M48
;GenerationSoftware,Autodesk,EAGLE,9.6.2*%
;CreationDate,2021-04-01T02:20:50Z*%
FMAT,2
ICI,OFF
METRIC,TZ,000.000
T3C0.350
T2C1.016
T1C1.372
%
G90
M71
T1
X65620Y31960
X65620Y37040
X58000Y34500
X65620Y46460
X65620Y51540
X58000Y49000
X65620Y17960
X65620Y23040
X58000Y20500
X36040Y76620
X30960Y76620
X33500Y69000
X19540Y76620
X14460Y76620
X17000Y69000
T2
X31000Y13500
X16000Y13500
X31000Y43500
X16000Y43500
T3
X22500Y73000
X21000Y73000
X21000Y75000
X22500Y75000
X23000Y38500
X22900Y33100
X28500Y75000
X28500Y73000
X30000Y75000
X30000Y73000
X30000Y71500
X28500Y71500
X28500Y69000
X30000Y69000
X28500Y67500
X30000Y67500
X28500Y65500
X30000Y65500
X27000Y61600
X31500Y70500
X31500Y68000
X35500Y70500
X35500Y68000
X39000Y66000
X39000Y72000
X39000Y78000
X45000Y78000
X45000Y72000
X45000Y66000
X51000Y78000
X51000Y72000
X51000Y66000
X57000Y78000
X57000Y72000
X57000Y66000
X63000Y66000
X63000Y72000
X63000Y78000
X39000Y39000
X33000Y39000
X27000Y39000
X27000Y33000
X26800Y31400
X33000Y33000
X39000Y33000
X39000Y27000
X15000Y9000
X9000Y9000
X3000Y9000
X15000Y3000
X9000Y3000
X3000Y3000
X46000Y37000
X46000Y35500
X48000Y37000
X48000Y35500
X49500Y37000
X49500Y35500
X51500Y37000
X51500Y35500
X53000Y37000
X53000Y35500
X55000Y37000
X55000Y35500
X46000Y33500
X46000Y32000
X48000Y33500
X48000Y32000
X49500Y33500
X49500Y32000
X51500Y33500
X51500Y32000
X53000Y33500
X53000Y32000
X55000Y33500
X55000Y32000
X56500Y36500
X59000Y36500
X56500Y32500
X59000Y32500
X20500Y32500
X15000Y33000
X18500Y35000
X17000Y35000
X18500Y37000
X17000Y37000
X20500Y39000
X15000Y39000
X9000Y39000
X9000Y33000
X3000Y33000
X3000Y39000
X33500Y51630
X27000Y48500
X28500Y48500
X27000Y47000
X28500Y47000
X46000Y44500
X48000Y43000
X48000Y44500
X46000Y43000
X33000Y42000
X29000Y42000
X3000Y78000
X27000Y45000
X29000Y45500
X30000Y48000
X33000Y48000
X33000Y45500
X48000Y57000
X54000Y57000
X60000Y57000
X66000Y57000
X54000Y51000
X48000Y51000
X56500Y51000
X59000Y51000
X56500Y47000
X59000Y47000
X49500Y44500
X49500Y43000
X51500Y43000
X51500Y44500
X53000Y44500
X53000Y43000
X55000Y44500
X55000Y43000
X56500Y44500
X56500Y43000
X58500Y44500
X58500Y43000
X17100Y60100
X15000Y57000
X9000Y57000
X3000Y57000
X9000Y51000
X3000Y51000
X15000Y51000
X3000Y45000
X9000Y45000
X14000Y45500
X14000Y42000
X18000Y45500
X18000Y42000
X33500Y22000
X26600Y18600
X28400Y18600
X26600Y17300
X28400Y17300
X24000Y18000
X24000Y15000
X24000Y12000
X27000Y15000
X27000Y12000
X30000Y18000
X29000Y15500
X29000Y12000
X33000Y12000
X33000Y15500
X33000Y18000
X46000Y26000
X46000Y24500
X48000Y26000
X48000Y24500
X49500Y26000
X49500Y24500
X51500Y26000
X51500Y24500
X53000Y26000
X53000Y24500
X55000Y26000
X55000Y24500
X56500Y26000
X56500Y24500
X58500Y26000
X58500Y24500
X48000Y21000
X54000Y21000
X56500Y22500
X59000Y22500
X56500Y18500
X59000Y18500
X48000Y15000
X54000Y15000
X60000Y15000
X54000Y9000
X48000Y9000
X60000Y9000
X48000Y3000
X54000Y3000
X60000Y3000
X66000Y15000
X66000Y9000
X66000Y3000
X17000Y30500
X3000Y27000
X9000Y27000
X15000Y27000
X15000Y21000
X9000Y21000
X3000Y21000
X9000Y15000
X3000Y15000
X14000Y15500
X14000Y12000
X18000Y15500
X18000Y12000
X22500Y71500
X21000Y71500
X22500Y69000
X21000Y69000
X22500Y67500
X21000Y67500
X22500Y65500
X21000Y65500
X19000Y70500
X19000Y68000
X15000Y66000
X15000Y68000
X15000Y70500
X9000Y78000
X9000Y72000
X9000Y66000
X3000Y66000
X3000Y72000
X27000Y42000
M30