G04 EAGLE Gerber RS-274X export*
G75*
%MOMM*%
%FSLAX34Y34*%
%LPD*%
%INBottom Copper*%
%IPPOS*%
%AMOC8*
5,1,8,0,0,1.08239X$1,22.5*%
G01*
%ADD10R,0.500000X0.812800*%
%ADD11R,0.558800X1.460500*%
%ADD12R,2.286000X2.286000*%
%ADD13P,1.632244X8X202.500000*%
%ADD14R,0.655600X0.800000*%
%ADD15C,1.508000*%
%ADD16C,0.756400*%
%ADD17C,0.152400*%
%ADD18C,0.300000*%

G36*
X591586Y658924D02*
X591586Y658924D01*
X591595Y658923D01*
X591683Y658944D01*
X591773Y658962D01*
X591780Y658967D01*
X591788Y658969D01*
X591861Y659023D01*
X591937Y659075D01*
X591941Y659082D01*
X591948Y659087D01*
X591995Y659165D01*
X592044Y659242D01*
X592045Y659251D01*
X592050Y659258D01*
X592077Y659422D01*
X592077Y885578D01*
X592076Y885586D01*
X592077Y885595D01*
X592056Y885683D01*
X592038Y885773D01*
X592033Y885780D01*
X592031Y885788D01*
X591977Y885861D01*
X591925Y885937D01*
X591918Y885941D01*
X591913Y885948D01*
X591835Y885995D01*
X591758Y886044D01*
X591749Y886045D01*
X591742Y886050D01*
X591578Y886077D01*
X374000Y886077D01*
X373992Y886076D01*
X373983Y886077D01*
X373895Y886056D01*
X373805Y886038D01*
X373798Y886033D01*
X373790Y886031D01*
X373717Y885977D01*
X373641Y885925D01*
X373637Y885918D01*
X373630Y885913D01*
X373583Y885835D01*
X373534Y885758D01*
X373533Y885749D01*
X373528Y885742D01*
X373501Y885578D01*
X373501Y790499D01*
X114422Y790499D01*
X114414Y790498D01*
X114405Y790499D01*
X114317Y790478D01*
X114227Y790460D01*
X114220Y790455D01*
X114212Y790453D01*
X114139Y790399D01*
X114063Y790347D01*
X114059Y790340D01*
X114052Y790335D01*
X114005Y790257D01*
X113956Y790180D01*
X113955Y790171D01*
X113950Y790164D01*
X113923Y790000D01*
X113923Y659422D01*
X113924Y659414D01*
X113923Y659405D01*
X113944Y659317D01*
X113962Y659227D01*
X113967Y659220D01*
X113969Y659212D01*
X114023Y659139D01*
X114075Y659063D01*
X114082Y659059D01*
X114087Y659052D01*
X114165Y659005D01*
X114242Y658956D01*
X114251Y658955D01*
X114258Y658950D01*
X114422Y658923D01*
X591578Y658923D01*
X591586Y658924D01*
G37*
G36*
X371008Y792502D02*
X371008Y792502D01*
X371017Y792501D01*
X371105Y792522D01*
X371195Y792540D01*
X371202Y792545D01*
X371210Y792547D01*
X371283Y792601D01*
X371359Y792653D01*
X371363Y792660D01*
X371370Y792665D01*
X371417Y792743D01*
X371466Y792820D01*
X371467Y792829D01*
X371472Y792836D01*
X371499Y793000D01*
X371499Y885578D01*
X371498Y885586D01*
X371499Y885595D01*
X371478Y885683D01*
X371460Y885773D01*
X371455Y885780D01*
X371453Y885788D01*
X371399Y885861D01*
X371347Y885937D01*
X371340Y885941D01*
X371335Y885948D01*
X371257Y885995D01*
X371180Y886044D01*
X371171Y886045D01*
X371164Y886050D01*
X371000Y886077D01*
X114422Y886077D01*
X114414Y886076D01*
X114405Y886077D01*
X114317Y886056D01*
X114227Y886038D01*
X114220Y886033D01*
X114212Y886031D01*
X114139Y885977D01*
X114063Y885925D01*
X114059Y885918D01*
X114052Y885913D01*
X114005Y885835D01*
X113956Y885758D01*
X113955Y885749D01*
X113950Y885742D01*
X113923Y885578D01*
X113923Y793000D01*
X113924Y792992D01*
X113923Y792983D01*
X113944Y792895D01*
X113962Y792805D01*
X113967Y792798D01*
X113969Y792790D01*
X114023Y792717D01*
X114075Y792641D01*
X114082Y792637D01*
X114087Y792630D01*
X114165Y792583D01*
X114242Y792534D01*
X114251Y792533D01*
X114258Y792528D01*
X114422Y792501D01*
X371000Y792501D01*
X371008Y792502D01*
G37*
%LPC*%
G36*
X555857Y778835D02*
X555857Y778835D01*
X552525Y780215D01*
X549975Y782765D01*
X548595Y786097D01*
X548595Y789703D01*
X549975Y793035D01*
X552525Y795585D01*
X555874Y796972D01*
X555879Y796975D01*
X555886Y796977D01*
X555962Y797031D01*
X556039Y797083D01*
X556043Y797088D01*
X556048Y797092D01*
X556096Y797171D01*
X556148Y797250D01*
X556149Y797256D01*
X556152Y797261D01*
X556166Y797353D01*
X556182Y797446D01*
X556181Y797452D01*
X556182Y797458D01*
X556159Y797548D01*
X556138Y797639D01*
X556134Y797645D01*
X556133Y797651D01*
X556036Y797786D01*
X516593Y837229D01*
X516583Y837236D01*
X516575Y837246D01*
X516500Y837291D01*
X516428Y837339D01*
X516415Y837341D01*
X516404Y837348D01*
X516240Y837375D01*
X491135Y837375D01*
X491131Y837374D01*
X491127Y837375D01*
X491033Y837355D01*
X490940Y837336D01*
X490937Y837333D01*
X490932Y837332D01*
X490855Y837277D01*
X490776Y837223D01*
X490774Y837220D01*
X490770Y837217D01*
X490720Y837136D01*
X490669Y837056D01*
X490668Y837051D01*
X490666Y837048D01*
X490652Y836954D01*
X490636Y836859D01*
X490637Y836855D01*
X490636Y836851D01*
X490660Y836759D01*
X490682Y836666D01*
X490684Y836663D01*
X490685Y836659D01*
X490782Y836523D01*
X492807Y834498D01*
X492807Y830102D01*
X489698Y826993D01*
X485302Y826993D01*
X483166Y829129D01*
X483156Y829136D01*
X483148Y829146D01*
X483073Y829191D01*
X483000Y829239D01*
X482988Y829241D01*
X482977Y829248D01*
X482813Y829275D01*
X478160Y829275D01*
X478147Y829273D01*
X478135Y829275D01*
X478051Y829253D01*
X477965Y829236D01*
X477954Y829229D01*
X477942Y829225D01*
X477807Y829129D01*
X470770Y822092D01*
X470765Y822085D01*
X470758Y822080D01*
X470711Y822003D01*
X470660Y821927D01*
X470659Y821918D01*
X470654Y821911D01*
X470641Y821821D01*
X470624Y821731D01*
X470626Y821723D01*
X470624Y821715D01*
X470647Y821626D01*
X470667Y821537D01*
X470672Y821530D01*
X470674Y821522D01*
X470770Y821386D01*
X471525Y820632D01*
X471525Y820119D01*
X471526Y820111D01*
X471525Y820102D01*
X471546Y820014D01*
X471564Y819924D01*
X471569Y819917D01*
X471571Y819909D01*
X471625Y819836D01*
X471677Y819760D01*
X471684Y819756D01*
X471689Y819749D01*
X471767Y819702D01*
X471844Y819653D01*
X471853Y819652D01*
X471860Y819647D01*
X472024Y819620D01*
X476960Y819620D01*
X476968Y819621D01*
X476977Y819620D01*
X477065Y819641D01*
X477155Y819659D01*
X477162Y819664D01*
X477170Y819666D01*
X477243Y819720D01*
X477319Y819772D01*
X477323Y819779D01*
X477330Y819784D01*
X477377Y819862D01*
X477426Y819939D01*
X477427Y819948D01*
X477432Y819955D01*
X477459Y820119D01*
X477459Y820334D01*
X477632Y820981D01*
X477967Y821560D01*
X478440Y822033D01*
X479019Y822368D01*
X479666Y822541D01*
X482279Y822541D01*
X482279Y816500D01*
X482280Y816492D01*
X482279Y816484D01*
X482300Y816395D01*
X482318Y816305D01*
X482323Y816298D01*
X482325Y816290D01*
X482379Y816217D01*
X482431Y816141D01*
X482438Y816137D01*
X482443Y816130D01*
X482521Y816084D01*
X482598Y816034D01*
X482607Y816033D01*
X482614Y816029D01*
X482778Y816001D01*
X483279Y816001D01*
X483279Y815999D01*
X482778Y815999D01*
X482770Y815997D01*
X482762Y815999D01*
X482673Y815978D01*
X482583Y815960D01*
X482576Y815955D01*
X482568Y815953D01*
X482495Y815899D01*
X482419Y815847D01*
X482415Y815840D01*
X482408Y815835D01*
X482362Y815757D01*
X482312Y815679D01*
X482311Y815671D01*
X482307Y815664D01*
X482279Y815500D01*
X482279Y809459D01*
X479666Y809459D01*
X479019Y809632D01*
X478440Y809967D01*
X477967Y810440D01*
X477632Y811019D01*
X477459Y811666D01*
X477459Y811881D01*
X477458Y811889D01*
X477459Y811898D01*
X477438Y811986D01*
X477420Y812076D01*
X477415Y812083D01*
X477413Y812091D01*
X477359Y812164D01*
X477307Y812240D01*
X477300Y812244D01*
X477295Y812251D01*
X477217Y812298D01*
X477140Y812347D01*
X477131Y812348D01*
X477124Y812353D01*
X476960Y812380D01*
X472024Y812380D01*
X472016Y812379D01*
X472007Y812380D01*
X471919Y812359D01*
X471829Y812341D01*
X471822Y812336D01*
X471814Y812334D01*
X471741Y812280D01*
X471665Y812228D01*
X471661Y812221D01*
X471654Y812216D01*
X471607Y812138D01*
X471558Y812061D01*
X471557Y812052D01*
X471552Y812045D01*
X471525Y811881D01*
X471525Y811368D01*
X471277Y811121D01*
X471275Y811118D01*
X471271Y811115D01*
X471220Y811035D01*
X471167Y810955D01*
X471167Y810951D01*
X471164Y810948D01*
X471149Y810854D01*
X471131Y810760D01*
X471132Y810756D01*
X471131Y810751D01*
X471153Y810660D01*
X471174Y810566D01*
X471176Y810562D01*
X471177Y810558D01*
X471233Y810482D01*
X471289Y810403D01*
X471293Y810401D01*
X471295Y810398D01*
X471377Y810350D01*
X471458Y810299D01*
X471463Y810299D01*
X471466Y810296D01*
X471630Y810269D01*
X474676Y810269D01*
X475569Y809376D01*
X475569Y793507D01*
X474676Y792614D01*
X467824Y792614D01*
X466931Y793507D01*
X466931Y809376D01*
X467179Y809623D01*
X467181Y809626D01*
X467185Y809629D01*
X467236Y809709D01*
X467289Y809789D01*
X467289Y809793D01*
X467292Y809796D01*
X467307Y809890D01*
X467325Y809984D01*
X467324Y809988D01*
X467325Y809993D01*
X467303Y810084D01*
X467282Y810178D01*
X467280Y810182D01*
X467279Y810186D01*
X467223Y810262D01*
X467167Y810341D01*
X467163Y810343D01*
X467161Y810346D01*
X467079Y810394D01*
X466998Y810445D01*
X466993Y810445D01*
X466990Y810448D01*
X466826Y810475D01*
X462974Y810475D01*
X462970Y810474D01*
X462966Y810475D01*
X462873Y810455D01*
X462779Y810436D01*
X462776Y810433D01*
X462772Y810432D01*
X462694Y810377D01*
X462615Y810323D01*
X462613Y810320D01*
X462610Y810317D01*
X462560Y810236D01*
X462508Y810156D01*
X462508Y810151D01*
X462506Y810148D01*
X462491Y810054D01*
X462475Y809959D01*
X462476Y809955D01*
X462476Y809951D01*
X462499Y809859D01*
X462521Y809766D01*
X462524Y809763D01*
X462525Y809759D01*
X462621Y809623D01*
X462869Y809376D01*
X462869Y793507D01*
X461976Y792614D01*
X455124Y792614D01*
X454231Y793507D01*
X454231Y809376D01*
X455150Y810294D01*
X455221Y810308D01*
X455228Y810313D01*
X455236Y810315D01*
X455309Y810369D01*
X455385Y810421D01*
X455389Y810428D01*
X455396Y810433D01*
X455442Y810511D01*
X455492Y810588D01*
X455493Y810597D01*
X455498Y810604D01*
X455525Y810768D01*
X455525Y813742D01*
X455524Y813746D01*
X455525Y813751D01*
X455505Y813844D01*
X455486Y813937D01*
X455483Y813941D01*
X455482Y813945D01*
X455427Y814023D01*
X455373Y814101D01*
X455370Y814103D01*
X455367Y814107D01*
X455286Y814157D01*
X455206Y814208D01*
X455201Y814209D01*
X455198Y814211D01*
X455104Y814225D01*
X455009Y814241D01*
X455005Y814240D01*
X455001Y814241D01*
X454909Y814217D01*
X454816Y814195D01*
X454813Y814193D01*
X454809Y814192D01*
X454673Y814095D01*
X450315Y809737D01*
X450308Y809727D01*
X450298Y809719D01*
X450253Y809644D01*
X450205Y809572D01*
X450203Y809559D01*
X450196Y809548D01*
X450169Y809384D01*
X450169Y793507D01*
X449276Y792614D01*
X442424Y792614D01*
X441531Y793507D01*
X441531Y809376D01*
X442450Y810294D01*
X442521Y810308D01*
X442528Y810313D01*
X442536Y810315D01*
X442609Y810369D01*
X442685Y810421D01*
X442689Y810428D01*
X442696Y810433D01*
X442742Y810511D01*
X442792Y810588D01*
X442793Y810597D01*
X442798Y810604D01*
X442825Y810768D01*
X442825Y810803D01*
X475447Y843425D01*
X518953Y843425D01*
X565267Y797111D01*
X565277Y797104D01*
X565285Y797094D01*
X565360Y797049D01*
X565432Y797001D01*
X565445Y796999D01*
X565456Y796992D01*
X565620Y796965D01*
X574543Y796965D01*
X577875Y795585D01*
X580425Y793035D01*
X581805Y789703D01*
X581805Y786097D01*
X580425Y782765D01*
X577875Y780215D01*
X574543Y778835D01*
X555857Y778835D01*
G37*
%LPD*%
%LPC*%
G36*
X454168Y712311D02*
X454168Y712311D01*
X453275Y713204D01*
X453275Y722596D01*
X454229Y723549D01*
X454236Y723560D01*
X454246Y723567D01*
X454291Y723642D01*
X454339Y723715D01*
X454341Y723728D01*
X454348Y723738D01*
X454375Y723902D01*
X454375Y725198D01*
X454373Y725210D01*
X454375Y725222D01*
X454353Y725306D01*
X454336Y725393D01*
X454329Y725403D01*
X454325Y725415D01*
X454229Y725551D01*
X453375Y726404D01*
X453375Y735796D01*
X454229Y736649D01*
X454236Y736660D01*
X454246Y736667D01*
X454291Y736742D01*
X454339Y736815D01*
X454341Y736828D01*
X454348Y736838D01*
X454375Y737002D01*
X454375Y738674D01*
X454373Y738686D01*
X454375Y738698D01*
X454353Y738783D01*
X454336Y738869D01*
X454329Y738879D01*
X454325Y738891D01*
X454231Y739024D01*
X454231Y754893D01*
X455124Y755786D01*
X461976Y755786D01*
X462869Y754893D01*
X462869Y739024D01*
X461976Y738131D01*
X460924Y738131D01*
X460916Y738130D01*
X460907Y738131D01*
X460819Y738110D01*
X460729Y738092D01*
X460722Y738087D01*
X460714Y738085D01*
X460641Y738031D01*
X460565Y737979D01*
X460561Y737972D01*
X460554Y737967D01*
X460507Y737889D01*
X460458Y737812D01*
X460457Y737803D01*
X460452Y737796D01*
X460425Y737632D01*
X460425Y737002D01*
X460427Y736990D01*
X460425Y736978D01*
X460447Y736893D01*
X460464Y736807D01*
X460471Y736797D01*
X460475Y736785D01*
X460571Y736649D01*
X461425Y735796D01*
X461425Y735664D01*
X461426Y735656D01*
X461425Y735647D01*
X461446Y735559D01*
X461464Y735469D01*
X461469Y735462D01*
X461471Y735454D01*
X461525Y735381D01*
X461577Y735305D01*
X461584Y735301D01*
X461589Y735294D01*
X461667Y735247D01*
X461744Y735198D01*
X461753Y735197D01*
X461760Y735192D01*
X461924Y735165D01*
X467876Y735165D01*
X467884Y735166D01*
X467893Y735165D01*
X467981Y735186D01*
X468071Y735204D01*
X468078Y735209D01*
X468086Y735211D01*
X468159Y735265D01*
X468235Y735317D01*
X468239Y735324D01*
X468246Y735329D01*
X468293Y735407D01*
X468342Y735484D01*
X468343Y735493D01*
X468348Y735500D01*
X468375Y735664D01*
X468375Y735796D01*
X469229Y736649D01*
X469236Y736660D01*
X469246Y736667D01*
X469291Y736742D01*
X469339Y736815D01*
X469341Y736828D01*
X469348Y736838D01*
X469375Y737002D01*
X469375Y737632D01*
X469374Y737640D01*
X469375Y737649D01*
X469354Y737737D01*
X469336Y737827D01*
X469331Y737834D01*
X469329Y737842D01*
X469275Y737915D01*
X469223Y737991D01*
X469216Y737995D01*
X469211Y738002D01*
X469133Y738049D01*
X469056Y738098D01*
X469047Y738099D01*
X469040Y738104D01*
X468876Y738131D01*
X467824Y738131D01*
X466931Y739024D01*
X466931Y754893D01*
X467824Y755786D01*
X474676Y755786D01*
X475569Y754893D01*
X475569Y739023D01*
X475564Y739016D01*
X475554Y739009D01*
X475509Y738934D01*
X475461Y738861D01*
X475459Y738848D01*
X475452Y738838D01*
X475425Y738674D01*
X475425Y737002D01*
X475427Y736990D01*
X475425Y736978D01*
X475447Y736893D01*
X475464Y736807D01*
X475471Y736797D01*
X475475Y736785D01*
X475571Y736649D01*
X476425Y735796D01*
X476425Y726404D01*
X475532Y725511D01*
X469268Y725511D01*
X468375Y726404D01*
X468375Y726536D01*
X468374Y726544D01*
X468375Y726553D01*
X468354Y726641D01*
X468336Y726731D01*
X468331Y726738D01*
X468329Y726746D01*
X468275Y726819D01*
X468223Y726895D01*
X468216Y726899D01*
X468211Y726906D01*
X468133Y726953D01*
X468056Y727002D01*
X468047Y727003D01*
X468040Y727008D01*
X467876Y727035D01*
X461924Y727035D01*
X461916Y727034D01*
X461907Y727035D01*
X461819Y727014D01*
X461729Y726996D01*
X461722Y726991D01*
X461714Y726989D01*
X461641Y726935D01*
X461565Y726883D01*
X461561Y726876D01*
X461554Y726871D01*
X461507Y726793D01*
X461458Y726716D01*
X461457Y726707D01*
X461452Y726700D01*
X461425Y726536D01*
X461425Y726404D01*
X460571Y725551D01*
X460564Y725540D01*
X460554Y725533D01*
X460510Y725458D01*
X460461Y725385D01*
X460459Y725373D01*
X460452Y725362D01*
X460425Y725198D01*
X460425Y723702D01*
X460427Y723690D01*
X460425Y723678D01*
X460447Y723593D01*
X460464Y723507D01*
X460471Y723497D01*
X460475Y723485D01*
X460571Y723349D01*
X461325Y722596D01*
X461325Y722464D01*
X461326Y722456D01*
X461325Y722447D01*
X461346Y722359D01*
X461364Y722269D01*
X461369Y722262D01*
X461371Y722254D01*
X461425Y722181D01*
X461477Y722105D01*
X461484Y722101D01*
X461489Y722094D01*
X461567Y722047D01*
X461644Y721998D01*
X461653Y721997D01*
X461660Y721992D01*
X461824Y721965D01*
X467776Y721965D01*
X467784Y721966D01*
X467793Y721965D01*
X467881Y721986D01*
X467971Y722004D01*
X467978Y722009D01*
X467986Y722011D01*
X468059Y722065D01*
X468135Y722117D01*
X468139Y722124D01*
X468146Y722129D01*
X468193Y722207D01*
X468242Y722284D01*
X468243Y722293D01*
X468248Y722300D01*
X468275Y722464D01*
X468275Y722596D01*
X469168Y723489D01*
X475432Y723489D01*
X476418Y722502D01*
X476425Y722497D01*
X476430Y722490D01*
X476508Y722443D01*
X476584Y722392D01*
X476592Y722391D01*
X476600Y722386D01*
X476689Y722373D01*
X476780Y722356D01*
X476788Y722358D01*
X476796Y722356D01*
X476884Y722379D01*
X476974Y722399D01*
X476981Y722404D01*
X476989Y722406D01*
X477124Y722502D01*
X511829Y757207D01*
X511836Y757217D01*
X511846Y757225D01*
X511891Y757300D01*
X511939Y757372D01*
X511941Y757385D01*
X511948Y757396D01*
X511975Y757560D01*
X511975Y812313D01*
X511973Y812325D01*
X511975Y812338D01*
X511953Y812422D01*
X511936Y812508D01*
X511929Y812518D01*
X511925Y812531D01*
X511829Y812666D01*
X509693Y814802D01*
X509693Y819198D01*
X512802Y822307D01*
X517198Y822307D01*
X520307Y819198D01*
X520307Y814802D01*
X518171Y812666D01*
X518164Y812656D01*
X518154Y812648D01*
X518109Y812573D01*
X518061Y812500D01*
X518059Y812488D01*
X518052Y812477D01*
X518025Y812313D01*
X518025Y754847D01*
X478053Y714875D01*
X476824Y714875D01*
X476816Y714874D01*
X476807Y714875D01*
X476719Y714854D01*
X476629Y714836D01*
X476622Y714831D01*
X476614Y714829D01*
X476541Y714775D01*
X476465Y714723D01*
X476461Y714716D01*
X476454Y714711D01*
X476407Y714633D01*
X476358Y714556D01*
X476357Y714547D01*
X476352Y714540D01*
X476325Y714376D01*
X476325Y713204D01*
X475432Y712311D01*
X469168Y712311D01*
X468275Y713204D01*
X468275Y713336D01*
X468274Y713344D01*
X468275Y713353D01*
X468254Y713441D01*
X468236Y713531D01*
X468231Y713538D01*
X468229Y713546D01*
X468175Y713619D01*
X468123Y713695D01*
X468116Y713699D01*
X468111Y713706D01*
X468033Y713753D01*
X467956Y713802D01*
X467947Y713803D01*
X467940Y713808D01*
X467776Y713835D01*
X461824Y713835D01*
X461816Y713834D01*
X461807Y713835D01*
X461719Y713814D01*
X461629Y713796D01*
X461622Y713791D01*
X461614Y713789D01*
X461541Y713735D01*
X461465Y713683D01*
X461461Y713676D01*
X461454Y713671D01*
X461407Y713593D01*
X461358Y713516D01*
X461357Y713507D01*
X461352Y713500D01*
X461325Y713336D01*
X461325Y713204D01*
X460432Y712311D01*
X454168Y712311D01*
G37*
%LPD*%
%LPC*%
G36*
X444657Y691935D02*
X444657Y691935D01*
X441325Y693315D01*
X438775Y695865D01*
X437395Y699197D01*
X437395Y702803D01*
X438775Y706135D01*
X441328Y708688D01*
X441333Y708695D01*
X441340Y708700D01*
X441388Y708777D01*
X441438Y708854D01*
X441440Y708862D01*
X441444Y708869D01*
X441458Y708959D01*
X441475Y709049D01*
X441473Y709057D01*
X441474Y709066D01*
X441452Y709154D01*
X441432Y709243D01*
X441427Y709250D01*
X441425Y709258D01*
X441328Y709394D01*
X431171Y719551D01*
X429253Y721469D01*
X429253Y723976D01*
X429252Y723984D01*
X429253Y723993D01*
X429232Y724081D01*
X429214Y724171D01*
X429209Y724178D01*
X429207Y724186D01*
X429153Y724259D01*
X429101Y724335D01*
X429094Y724339D01*
X429089Y724346D01*
X429011Y724393D01*
X428934Y724442D01*
X428925Y724443D01*
X428918Y724448D01*
X428754Y724475D01*
X428368Y724475D01*
X427475Y725368D01*
X427475Y725881D01*
X427474Y725889D01*
X427475Y725898D01*
X427454Y725986D01*
X427436Y726076D01*
X427431Y726083D01*
X427429Y726091D01*
X427375Y726164D01*
X427323Y726240D01*
X427316Y726244D01*
X427311Y726251D01*
X427233Y726298D01*
X427156Y726347D01*
X427147Y726348D01*
X427140Y726353D01*
X426976Y726380D01*
X422040Y726380D01*
X422032Y726379D01*
X422023Y726380D01*
X421935Y726359D01*
X421845Y726341D01*
X421838Y726336D01*
X421830Y726334D01*
X421757Y726280D01*
X421681Y726228D01*
X421677Y726221D01*
X421670Y726216D01*
X421623Y726137D01*
X421574Y726061D01*
X421573Y726052D01*
X421568Y726045D01*
X421541Y725881D01*
X421541Y725666D01*
X421368Y725019D01*
X421033Y724440D01*
X420560Y723967D01*
X419981Y723632D01*
X419334Y723459D01*
X416721Y723459D01*
X416721Y729500D01*
X416719Y729508D01*
X416721Y729516D01*
X416700Y729605D01*
X416682Y729695D01*
X416677Y729702D01*
X416675Y729710D01*
X416621Y729783D01*
X416569Y729859D01*
X416562Y729863D01*
X416557Y729870D01*
X416479Y729916D01*
X416401Y729966D01*
X416393Y729967D01*
X416386Y729971D01*
X416222Y729999D01*
X415721Y729999D01*
X415721Y730001D01*
X416222Y730001D01*
X416230Y730003D01*
X416238Y730001D01*
X416327Y730022D01*
X416417Y730040D01*
X416424Y730045D01*
X416432Y730047D01*
X416505Y730101D01*
X416581Y730153D01*
X416585Y730160D01*
X416592Y730165D01*
X416638Y730243D01*
X416688Y730321D01*
X416689Y730329D01*
X416693Y730336D01*
X416721Y730500D01*
X416721Y736541D01*
X419334Y736541D01*
X419981Y736368D01*
X420560Y736033D01*
X421033Y735560D01*
X421368Y734981D01*
X421541Y734334D01*
X421541Y734119D01*
X421542Y734111D01*
X421541Y734102D01*
X421562Y734014D01*
X421580Y733924D01*
X421585Y733917D01*
X421587Y733909D01*
X421641Y733836D01*
X421693Y733760D01*
X421700Y733756D01*
X421705Y733749D01*
X421783Y733702D01*
X421860Y733653D01*
X421869Y733652D01*
X421876Y733647D01*
X422040Y733620D01*
X426976Y733620D01*
X426984Y733621D01*
X426993Y733620D01*
X427081Y733641D01*
X427171Y733659D01*
X427178Y733664D01*
X427186Y733666D01*
X427259Y733720D01*
X427335Y733772D01*
X427339Y733779D01*
X427346Y733784D01*
X427393Y733862D01*
X427442Y733939D01*
X427443Y733948D01*
X427448Y733955D01*
X427475Y734119D01*
X427475Y734632D01*
X428368Y735525D01*
X428754Y735525D01*
X428762Y735526D01*
X428771Y735525D01*
X428859Y735546D01*
X428949Y735564D01*
X428956Y735569D01*
X428964Y735571D01*
X429037Y735625D01*
X429113Y735677D01*
X429117Y735684D01*
X429124Y735689D01*
X429171Y735767D01*
X429220Y735844D01*
X429221Y735853D01*
X429226Y735860D01*
X429253Y736024D01*
X429253Y738396D01*
X429251Y738408D01*
X429253Y738420D01*
X429231Y738505D01*
X429214Y738591D01*
X429207Y738601D01*
X429203Y738613D01*
X429107Y738749D01*
X428831Y739024D01*
X428831Y754893D01*
X429724Y755786D01*
X436576Y755786D01*
X437469Y754893D01*
X437469Y739024D01*
X436576Y738131D01*
X435802Y738131D01*
X435794Y738130D01*
X435785Y738131D01*
X435697Y738110D01*
X435607Y738092D01*
X435600Y738087D01*
X435592Y738085D01*
X435519Y738031D01*
X435443Y737979D01*
X435439Y737972D01*
X435432Y737967D01*
X435385Y737889D01*
X435336Y737812D01*
X435335Y737803D01*
X435330Y737796D01*
X435303Y737632D01*
X435303Y736024D01*
X435304Y736016D01*
X435303Y736007D01*
X435324Y735919D01*
X435342Y735829D01*
X435347Y735822D01*
X435349Y735814D01*
X435403Y735741D01*
X435455Y735665D01*
X435462Y735661D01*
X435467Y735654D01*
X435545Y735607D01*
X435622Y735558D01*
X435631Y735557D01*
X435638Y735552D01*
X435802Y735525D01*
X436188Y735525D01*
X437081Y734632D01*
X437081Y725368D01*
X436188Y724475D01*
X436008Y724475D01*
X436004Y724474D01*
X435999Y724475D01*
X435906Y724455D01*
X435813Y724436D01*
X435809Y724433D01*
X435805Y724432D01*
X435727Y724377D01*
X435649Y724323D01*
X435647Y724320D01*
X435643Y724317D01*
X435593Y724236D01*
X435542Y724156D01*
X435541Y724151D01*
X435539Y724148D01*
X435525Y724054D01*
X435509Y723959D01*
X435510Y723955D01*
X435509Y723951D01*
X435533Y723859D01*
X435555Y723766D01*
X435557Y723763D01*
X435558Y723759D01*
X435655Y723623D01*
X449067Y710211D01*
X449077Y710204D01*
X449085Y710194D01*
X449160Y710149D01*
X449232Y710101D01*
X449245Y710099D01*
X449256Y710092D01*
X449420Y710065D01*
X463343Y710065D01*
X466675Y708685D01*
X469225Y706135D01*
X470605Y702803D01*
X470605Y699197D01*
X469225Y695865D01*
X466675Y693315D01*
X463343Y691935D01*
X444657Y691935D01*
G37*
%LPD*%
%LPC*%
G36*
X435257Y837835D02*
X435257Y837835D01*
X431925Y839215D01*
X429375Y841765D01*
X427995Y845097D01*
X427995Y848703D01*
X429375Y852035D01*
X431925Y854585D01*
X435257Y855965D01*
X453943Y855965D01*
X457275Y854585D01*
X459825Y852035D01*
X461205Y848703D01*
X461205Y845097D01*
X459825Y841765D01*
X457275Y839215D01*
X453943Y837835D01*
X435257Y837835D01*
G37*
%LPD*%
%LPC*%
G36*
X133945Y770535D02*
X133945Y770535D01*
X128635Y775845D01*
X128635Y783355D01*
X133945Y788665D01*
X141455Y788665D01*
X146765Y783355D01*
X146765Y775845D01*
X141455Y770535D01*
X133945Y770535D01*
G37*
%LPD*%
%LPC*%
G36*
X453199Y775199D02*
X453199Y775199D01*
X453199Y788171D01*
X463964Y788171D01*
X464611Y787998D01*
X465190Y787663D01*
X465663Y787190D01*
X465998Y786611D01*
X466171Y785964D01*
X466171Y775199D01*
X453199Y775199D01*
G37*
%LPD*%
%LPC*%
G36*
X438229Y775199D02*
X438229Y775199D01*
X438229Y785964D01*
X438402Y786611D01*
X438737Y787190D01*
X439210Y787663D01*
X439789Y787998D01*
X440436Y788171D01*
X451201Y788171D01*
X451201Y775199D01*
X438229Y775199D01*
G37*
%LPD*%
%LPC*%
G36*
X453199Y760229D02*
X453199Y760229D01*
X453199Y773201D01*
X466171Y773201D01*
X466171Y762436D01*
X465998Y761789D01*
X465663Y761210D01*
X465190Y760737D01*
X464611Y760402D01*
X463964Y760229D01*
X453199Y760229D01*
G37*
%LPD*%
%LPC*%
G36*
X440436Y760229D02*
X440436Y760229D01*
X439789Y760402D01*
X439210Y760737D01*
X438737Y761210D01*
X438402Y761789D01*
X438229Y762436D01*
X438229Y773201D01*
X451201Y773201D01*
X451201Y760229D01*
X440436Y760229D01*
G37*
%LPD*%
%LPC*%
G36*
X429724Y792614D02*
X429724Y792614D01*
X428831Y793507D01*
X428831Y809376D01*
X429724Y810269D01*
X436576Y810269D01*
X437469Y809376D01*
X437469Y793507D01*
X436576Y792614D01*
X429724Y792614D01*
G37*
%LPD*%
%LPC*%
G36*
X566199Y763499D02*
X566199Y763499D01*
X566199Y772581D01*
X573533Y772581D01*
X575101Y772333D01*
X576610Y771842D01*
X578023Y771122D01*
X579307Y770189D01*
X580429Y769067D01*
X581362Y767783D01*
X582082Y766370D01*
X582573Y764861D01*
X582788Y763499D01*
X566199Y763499D01*
G37*
%LPD*%
%LPC*%
G36*
X445599Y873299D02*
X445599Y873299D01*
X445599Y882381D01*
X452933Y882381D01*
X454501Y882133D01*
X456010Y881642D01*
X457423Y880922D01*
X458707Y879989D01*
X459829Y878867D01*
X460762Y877583D01*
X461482Y876170D01*
X461973Y874661D01*
X462188Y873299D01*
X445599Y873299D01*
G37*
%LPD*%
%LPC*%
G36*
X454999Y676599D02*
X454999Y676599D01*
X454999Y685681D01*
X462333Y685681D01*
X463901Y685433D01*
X465410Y684942D01*
X466823Y684222D01*
X468107Y683289D01*
X469229Y682167D01*
X470162Y680883D01*
X470882Y679470D01*
X471373Y677961D01*
X471588Y676599D01*
X454999Y676599D01*
G37*
%LPD*%
%LPC*%
G36*
X385699Y861999D02*
X385699Y861999D01*
X385699Y878588D01*
X387061Y878373D01*
X388570Y877882D01*
X389983Y877162D01*
X391267Y876229D01*
X392389Y875107D01*
X393322Y873823D01*
X394042Y872410D01*
X394533Y870901D01*
X394781Y869333D01*
X394781Y861999D01*
X385699Y861999D01*
G37*
%LPD*%
%LPC*%
G36*
X360299Y861999D02*
X360299Y861999D01*
X360299Y878588D01*
X361661Y878373D01*
X363170Y877882D01*
X364583Y877162D01*
X365867Y876229D01*
X366989Y875107D01*
X367922Y873823D01*
X368642Y872410D01*
X369133Y870901D01*
X369381Y869333D01*
X369381Y861999D01*
X360299Y861999D01*
G37*
%LPD*%
%LPC*%
G36*
X547612Y763499D02*
X547612Y763499D01*
X547827Y764861D01*
X548318Y766370D01*
X549038Y767783D01*
X549971Y769067D01*
X551093Y770189D01*
X552377Y771122D01*
X553790Y771842D01*
X555299Y772333D01*
X556867Y772581D01*
X564201Y772581D01*
X564201Y763499D01*
X547612Y763499D01*
G37*
%LPD*%
%LPC*%
G36*
X436412Y676599D02*
X436412Y676599D01*
X436627Y677961D01*
X437118Y679470D01*
X437838Y680883D01*
X438771Y682167D01*
X439893Y683289D01*
X441177Y684222D01*
X442590Y684942D01*
X444099Y685433D01*
X445667Y685681D01*
X453001Y685681D01*
X453001Y676599D01*
X436412Y676599D01*
G37*
%LPD*%
%LPC*%
G36*
X427012Y873299D02*
X427012Y873299D01*
X427227Y874661D01*
X427718Y876170D01*
X428438Y877583D01*
X429371Y878867D01*
X430493Y879989D01*
X431777Y880922D01*
X433190Y881642D01*
X434699Y882133D01*
X436267Y882381D01*
X443601Y882381D01*
X443601Y873299D01*
X427012Y873299D01*
G37*
%LPD*%
%LPC*%
G36*
X360299Y860001D02*
X360299Y860001D01*
X369381Y860001D01*
X369381Y852667D01*
X369133Y851099D01*
X368642Y849590D01*
X367922Y848177D01*
X366989Y846893D01*
X365867Y845771D01*
X364583Y844838D01*
X363170Y844118D01*
X361661Y843627D01*
X360299Y843412D01*
X360299Y860001D01*
G37*
%LPD*%
%LPC*%
G36*
X385699Y860001D02*
X385699Y860001D01*
X394781Y860001D01*
X394781Y852667D01*
X394533Y851099D01*
X394042Y849590D01*
X393322Y848177D01*
X392389Y846893D01*
X391267Y845771D01*
X389983Y844838D01*
X388570Y844118D01*
X387061Y843627D01*
X385699Y843412D01*
X385699Y860001D01*
G37*
%LPD*%
%LPC*%
G36*
X454999Y665519D02*
X454999Y665519D01*
X454999Y674601D01*
X471588Y674601D01*
X471373Y673239D01*
X470882Y671730D01*
X470162Y670317D01*
X469229Y669033D01*
X468107Y667911D01*
X466823Y666978D01*
X465410Y666258D01*
X463901Y665767D01*
X462333Y665519D01*
X454999Y665519D01*
G37*
%LPD*%
%LPC*%
G36*
X445599Y862219D02*
X445599Y862219D01*
X445599Y871301D01*
X462188Y871301D01*
X461973Y869939D01*
X461482Y868430D01*
X460762Y867017D01*
X459829Y865733D01*
X458707Y864611D01*
X457423Y863678D01*
X456010Y862958D01*
X454501Y862467D01*
X452933Y862219D01*
X445599Y862219D01*
G37*
%LPD*%
%LPC*%
G36*
X566199Y752419D02*
X566199Y752419D01*
X566199Y761501D01*
X582788Y761501D01*
X582573Y760139D01*
X582082Y758630D01*
X581362Y757217D01*
X580429Y755933D01*
X579307Y754811D01*
X578023Y753878D01*
X576610Y753158D01*
X575101Y752667D01*
X573533Y752419D01*
X566199Y752419D01*
G37*
%LPD*%
%LPC*%
G36*
X374619Y861999D02*
X374619Y861999D01*
X374619Y869333D01*
X374867Y870901D01*
X375358Y872410D01*
X376078Y873823D01*
X377011Y875107D01*
X378133Y876229D01*
X379417Y877162D01*
X380830Y877882D01*
X382339Y878373D01*
X383701Y878588D01*
X383701Y861999D01*
X374619Y861999D01*
G37*
%LPD*%
%LPC*%
G36*
X349219Y861999D02*
X349219Y861999D01*
X349219Y869333D01*
X349467Y870901D01*
X349958Y872410D01*
X350678Y873823D01*
X351611Y875107D01*
X352733Y876229D01*
X354017Y877162D01*
X355430Y877882D01*
X356939Y878373D01*
X358301Y878588D01*
X358301Y861999D01*
X349219Y861999D01*
G37*
%LPD*%
%LPC*%
G36*
X382339Y843627D02*
X382339Y843627D01*
X380830Y844118D01*
X379417Y844838D01*
X378133Y845771D01*
X377011Y846893D01*
X376078Y848177D01*
X375358Y849590D01*
X374867Y851099D01*
X374619Y852667D01*
X374619Y860001D01*
X383701Y860001D01*
X383701Y843412D01*
X382339Y843627D01*
G37*
%LPD*%
%LPC*%
G36*
X445667Y665519D02*
X445667Y665519D01*
X444099Y665767D01*
X442590Y666258D01*
X441177Y666978D01*
X439893Y667911D01*
X438771Y669033D01*
X437838Y670317D01*
X437118Y671730D01*
X436627Y673239D01*
X436412Y674601D01*
X453001Y674601D01*
X453001Y665519D01*
X445667Y665519D01*
G37*
%LPD*%
%LPC*%
G36*
X556867Y752419D02*
X556867Y752419D01*
X555299Y752667D01*
X553790Y753158D01*
X552377Y753878D01*
X551093Y754811D01*
X549971Y755933D01*
X549038Y757217D01*
X548318Y758630D01*
X547827Y760139D01*
X547612Y761501D01*
X564201Y761501D01*
X564201Y752419D01*
X556867Y752419D01*
G37*
%LPD*%
%LPC*%
G36*
X356939Y843627D02*
X356939Y843627D01*
X355430Y844118D01*
X354017Y844838D01*
X352733Y845771D01*
X351611Y846893D01*
X350678Y848177D01*
X349958Y849590D01*
X349467Y851099D01*
X349219Y852667D01*
X349219Y860001D01*
X358301Y860001D01*
X358301Y843412D01*
X356939Y843627D01*
G37*
%LPD*%
%LPC*%
G36*
X436267Y862219D02*
X436267Y862219D01*
X434699Y862467D01*
X433190Y862958D01*
X431777Y863678D01*
X430493Y864611D01*
X429371Y865733D01*
X428438Y867017D01*
X427718Y868430D01*
X427227Y869939D01*
X427012Y871301D01*
X443601Y871301D01*
X443601Y862219D01*
X436267Y862219D01*
G37*
%LPD*%
%LPC*%
G36*
X138699Y805999D02*
X138699Y805999D01*
X138699Y815081D01*
X141876Y815081D01*
X147781Y809176D01*
X147781Y805999D01*
X138699Y805999D01*
G37*
%LPD*%
%LPC*%
G36*
X127619Y805999D02*
X127619Y805999D01*
X127619Y809176D01*
X133524Y815081D01*
X136701Y815081D01*
X136701Y805999D01*
X127619Y805999D01*
G37*
%LPD*%
%LPC*%
G36*
X138699Y794919D02*
X138699Y794919D01*
X138699Y804001D01*
X147781Y804001D01*
X147781Y800824D01*
X141876Y794919D01*
X138699Y794919D01*
G37*
%LPD*%
%LPC*%
G36*
X133524Y794919D02*
X133524Y794919D01*
X127619Y800824D01*
X127619Y804001D01*
X136701Y804001D01*
X136701Y794919D01*
X133524Y794919D01*
G37*
%LPD*%
%LPC*%
G36*
X446849Y747958D02*
X446849Y747958D01*
X446849Y756802D01*
X448978Y756802D01*
X449625Y756629D01*
X450204Y756294D01*
X450677Y755821D01*
X451012Y755242D01*
X451185Y754595D01*
X451185Y747958D01*
X446849Y747958D01*
G37*
%LPD*%
%LPC*%
G36*
X446849Y737115D02*
X446849Y737115D01*
X446849Y745959D01*
X451185Y745959D01*
X451185Y739322D01*
X451012Y738675D01*
X450677Y738096D01*
X450204Y737623D01*
X449625Y737288D01*
X448978Y737115D01*
X446849Y737115D01*
G37*
%LPD*%
%LPC*%
G36*
X440515Y747958D02*
X440515Y747958D01*
X440515Y754595D01*
X440688Y755242D01*
X441023Y755821D01*
X441496Y756294D01*
X442075Y756629D01*
X442722Y756802D01*
X444851Y756802D01*
X444851Y747958D01*
X440515Y747958D01*
G37*
%LPD*%
%LPC*%
G36*
X442722Y737115D02*
X442722Y737115D01*
X442075Y737288D01*
X441496Y737623D01*
X441023Y738096D01*
X440688Y738675D01*
X440515Y739322D01*
X440515Y745959D01*
X444851Y745959D01*
X444851Y737115D01*
X442722Y737115D01*
G37*
%LPD*%
%LPC*%
G36*
X484277Y816999D02*
X484277Y816999D01*
X484277Y822541D01*
X486890Y822541D01*
X487537Y822368D01*
X488116Y822033D01*
X488589Y821560D01*
X488924Y820981D01*
X489097Y820334D01*
X489097Y816999D01*
X484277Y816999D01*
G37*
%LPD*%
%LPC*%
G36*
X484277Y809459D02*
X484277Y809459D01*
X484277Y815001D01*
X489097Y815001D01*
X489097Y811666D01*
X488924Y811019D01*
X488589Y810440D01*
X488116Y809967D01*
X487537Y809632D01*
X486890Y809459D01*
X484277Y809459D01*
G37*
%LPD*%
%LPC*%
G36*
X409903Y730999D02*
X409903Y730999D01*
X409903Y734334D01*
X410076Y734981D01*
X410411Y735560D01*
X410884Y736033D01*
X411463Y736368D01*
X412110Y736541D01*
X414723Y736541D01*
X414723Y730999D01*
X409903Y730999D01*
G37*
%LPD*%
%LPC*%
G36*
X412110Y723459D02*
X412110Y723459D01*
X411463Y723632D01*
X410884Y723967D01*
X410411Y724440D01*
X410076Y725019D01*
X409903Y725666D01*
X409903Y729001D01*
X414723Y729001D01*
X414723Y723459D01*
X412110Y723459D01*
G37*
%LPD*%
%LPC*%
G36*
X444599Y872299D02*
X444599Y872299D01*
X444599Y872301D01*
X444601Y872301D01*
X444601Y872299D01*
X444599Y872299D01*
G37*
%LPD*%
%LPC*%
G36*
X384699Y860999D02*
X384699Y860999D01*
X384699Y861001D01*
X384701Y861001D01*
X384701Y860999D01*
X384699Y860999D01*
G37*
%LPD*%
%LPC*%
G36*
X565199Y762499D02*
X565199Y762499D01*
X565199Y762501D01*
X565201Y762501D01*
X565201Y762499D01*
X565199Y762499D01*
G37*
%LPD*%
%LPC*%
G36*
X137699Y804999D02*
X137699Y804999D01*
X137699Y805001D01*
X137701Y805001D01*
X137701Y804999D01*
X137699Y804999D01*
G37*
%LPD*%
%LPC*%
G36*
X359299Y860999D02*
X359299Y860999D01*
X359299Y861001D01*
X359301Y861001D01*
X359301Y860999D01*
X359299Y860999D01*
G37*
%LPD*%
%LPC*%
G36*
X453999Y675599D02*
X453999Y675599D01*
X453999Y675601D01*
X454001Y675601D01*
X454001Y675599D01*
X453999Y675599D01*
G37*
%LPD*%
%LPC*%
G36*
X445849Y746958D02*
X445849Y746958D01*
X445849Y746959D01*
X445851Y746959D01*
X445851Y746958D01*
X445849Y746958D01*
G37*
%LPD*%
%LPC*%
G36*
X452199Y774199D02*
X452199Y774199D01*
X452199Y774201D01*
X452201Y774201D01*
X452201Y774199D01*
X452199Y774199D01*
G37*
%LPD*%
D10*
X457400Y731100D03*
X472400Y731100D03*
D11*
X471250Y746959D03*
X458550Y746959D03*
X445850Y746959D03*
X433150Y746959D03*
X433150Y801442D03*
X445850Y801442D03*
X458550Y801442D03*
X471250Y801442D03*
D12*
X452200Y774200D03*
D10*
X472300Y717900D03*
X457300Y717900D03*
D13*
X137700Y805000D03*
X137700Y779600D03*
D14*
X432278Y730000D03*
X415722Y730000D03*
X466722Y816000D03*
X483278Y816000D03*
D15*
X452140Y846900D02*
X437060Y846900D01*
X437060Y872300D02*
X452140Y872300D01*
X446460Y701000D02*
X461540Y701000D01*
X461540Y675600D02*
X446460Y675600D01*
X359300Y853460D02*
X359300Y868540D01*
X384700Y868540D02*
X384700Y853460D01*
X557660Y787900D02*
X572740Y787900D01*
X572740Y762500D02*
X557660Y762500D01*
D16*
X146000Y822000D03*
X128000Y822000D03*
X128000Y834000D03*
X146000Y834000D03*
X344000Y825000D03*
X326000Y825000D03*
X309000Y825000D03*
X291000Y825000D03*
X291000Y835000D03*
X309000Y835000D03*
X326000Y835000D03*
X344000Y835000D03*
X359000Y835000D03*
D17*
X445850Y746959D02*
X449237Y746959D01*
D16*
X129000Y762000D03*
X146000Y762000D03*
X129000Y752000D03*
X146000Y752000D03*
X359000Y772000D03*
X278000Y769000D03*
X541000Y768000D03*
X541000Y757000D03*
X478000Y683000D03*
X478000Y671000D03*
X430000Y683000D03*
X430000Y670000D03*
X418000Y878000D03*
X418000Y866000D03*
X470000Y879000D03*
X470000Y866000D03*
X384000Y836000D03*
X487500Y832300D03*
D18*
X458550Y812950D02*
X458550Y801442D01*
X461600Y816000D02*
X466722Y816000D01*
X461600Y816000D02*
X458550Y812950D01*
X466722Y816000D02*
X466722Y822322D01*
X476700Y832300D01*
X487500Y832300D01*
D17*
X433150Y730872D02*
X432278Y730000D01*
D18*
X432278Y746087D01*
X433150Y746959D01*
X432278Y722722D02*
X454000Y701000D01*
X432278Y722722D02*
X432278Y730000D01*
X445850Y801442D02*
X445850Y809550D01*
X476700Y840400D01*
X517700Y840400D01*
X565200Y792900D01*
X565200Y787900D01*
X472400Y745809D02*
X472400Y731100D01*
X472400Y745809D02*
X471250Y746959D01*
D17*
X458150Y731850D02*
X457400Y731100D01*
X457900Y730600D01*
D18*
X457400Y731100D02*
X457400Y745809D01*
X458550Y746959D01*
X457400Y731100D02*
X457400Y718000D01*
X457300Y717900D01*
D16*
X515000Y817000D03*
D18*
X476800Y717900D02*
X472300Y717900D01*
X476800Y717900D02*
X515000Y756100D01*
X515000Y817000D01*
M02*
