M48
;GenerationSoftware,Autodesk,EAGLE,9.6.2*%
;CreationDate,2021-07-06T03:43:30Z*%
FMAT,2
ICI,OFF
METRIC,TZ,000.000
T2C0.350
T1C1.000
%
G90
M71
T1
X56520Y76250
X56520Y78790
X38470Y86100
X35930Y86100
X45400Y67560
X45400Y70100
X44460Y87230
X44460Y84690
X13770Y77960
X13770Y80500
T2
X32600Y83500
X34400Y83500
X35900Y83500
X12900Y76200
X14600Y76200
X12900Y75200
X14600Y75200
X35900Y77200
X27800Y76900
X54100Y76800
X54100Y75700
X14600Y82200
X47800Y67100
X43000Y68300
X43000Y67000
X41800Y87800
X41800Y86600
X47000Y87900
X47000Y86600
X38400Y83600
X48750Y83230
X51500Y81700
X30900Y83500
X29100Y83500
X29100Y82500
X30900Y82500
X32600Y82500
X34400Y82500
X14600Y83400
X12800Y83400
X12800Y82200
X47800Y68300
M30