M48
;GenerationSoftware,Autodesk,EAGLE,9.6.2*%
;CreationDate,2021-04-01T08:10:35Z*%
FMAT,2
ICI,OFF
METRIC,TZ,000.000
T3C0.350
T2C1.016
T1C1.372
%
G90
M71
T1
X61320Y31960
X61320Y37040
X53700Y34500
X61320Y46460
X61320Y51540
X53700Y49000
X61320Y17960
X61320Y23040
X53700Y20500
X36040Y72320
X30960Y72320
X33500Y64700
X19540Y72320
X14460Y72320
X17000Y64700
T2
X31000Y13500
X16000Y13500
X31000Y43500
X16000Y43500
T3
X28500Y65500
X27000Y61600
X31500Y66500
X31500Y62500
X35500Y66500
X35500Y62500
X39000Y66000
X39000Y72000
X51000Y72000
X51000Y66000
X63000Y66000
X63000Y72000
X29000Y37000
X27000Y33000
X39000Y37000
X39000Y32000
X39000Y27000
X21000Y6000
X14000Y6000
X7000Y6000
X46000Y37000
X48000Y37000
X49500Y37000
X51500Y37000
X53000Y37000
X55000Y37000
X46000Y32000
X48000Y32000
X49500Y32000
X51500Y32000
X53000Y32000
X55000Y32000
X20500Y32500
X18500Y35000
X18500Y37000
X20500Y39000
X14000Y36000
X7000Y36000
X57500Y36500
X57500Y32000
X33500Y51630
X27000Y47000
X48000Y43000
X46000Y43000
X33000Y42000
X29000Y42000
X27000Y42000
X27000Y45000
X29000Y45500
X33000Y48000
X33000Y45500
X48000Y57000
X58000Y57000
X66000Y57000
X48000Y51000
X51500Y51000
X7000Y66000
X51500Y47000
X56000Y47000
X49500Y43000
X51500Y43000
X53000Y43000
X55000Y43000
X56500Y43000
X58500Y43000
X17100Y60100
X15000Y57000
X7000Y57000
X15000Y51000
X7000Y45000
X14000Y45500
X14000Y42000
X18000Y45500
X18000Y42000
X33500Y22000
X26600Y18600
X24000Y18000
X24000Y12000
X27000Y15000
X27000Y12000
X30000Y18000
X29000Y15500
X29000Y11500
X33000Y11500
X33000Y15500
X46000Y26000
X48000Y26000
X49500Y26000
X51500Y26000
X53000Y26000
X55000Y26000
X56500Y26000
X58500Y26000
X48000Y22500
X51500Y22500
X56000Y22500
X51500Y18500
X56000Y18500
X48000Y15000
X65000Y15000
X57000Y7000
X48000Y7000
X65000Y7000
X17000Y30500
X7000Y27000
X15000Y27000
X15000Y21000
X7000Y21000
X7000Y15000
X14000Y15500
X14000Y12000
X18000Y15500
X18000Y12000
X28500Y67500
X28500Y69000
X28500Y71500
X28500Y73000
X28500Y75000
X15000Y63000
X22900Y33100
X23000Y38500
X22500Y75000
X22500Y73000
X22500Y71500
X22500Y69000
X22500Y67500
X22500Y65500
X19000Y63000
X15000Y66500
X19000Y66500
X7000Y72000
X56000Y51000
M30