G04 EAGLE Gerber RS-274X export*
G75*
%MOMM*%
%FSLAX34Y34*%
%LPD*%
%INSilkscreen Bottom*%
%IPPOS*%
%AMOC8*
5,1,8,0,0,1.08239X$1,22.5*%
G01*
%ADD10C,0.152400*%
%ADD11C,0.076200*%
%ADD12C,0.050800*%


D10*
X249158Y754416D02*
X260842Y754416D01*
X260842Y726984D02*
X249158Y726984D01*
X227822Y740700D02*
X227820Y740754D01*
X227814Y740808D01*
X227805Y740862D01*
X227791Y740915D01*
X227774Y740966D01*
X227753Y741017D01*
X227729Y741065D01*
X227701Y741112D01*
X227670Y741157D01*
X227636Y741199D01*
X227599Y741239D01*
X227559Y741276D01*
X227517Y741310D01*
X227472Y741341D01*
X227425Y741369D01*
X227377Y741393D01*
X227326Y741414D01*
X227275Y741431D01*
X227222Y741445D01*
X227168Y741454D01*
X227114Y741460D01*
X227060Y741462D01*
X227006Y741460D01*
X226952Y741454D01*
X226898Y741445D01*
X226845Y741431D01*
X226794Y741414D01*
X226743Y741393D01*
X226695Y741369D01*
X226648Y741341D01*
X226603Y741310D01*
X226561Y741276D01*
X226521Y741239D01*
X226484Y741199D01*
X226450Y741157D01*
X226419Y741112D01*
X226391Y741065D01*
X226367Y741017D01*
X226346Y740966D01*
X226329Y740915D01*
X226315Y740862D01*
X226306Y740808D01*
X226300Y740754D01*
X226298Y740700D01*
X226300Y740646D01*
X226306Y740592D01*
X226315Y740538D01*
X226329Y740485D01*
X226346Y740434D01*
X226367Y740383D01*
X226391Y740335D01*
X226419Y740288D01*
X226450Y740243D01*
X226484Y740201D01*
X226521Y740161D01*
X226561Y740124D01*
X226603Y740090D01*
X226648Y740059D01*
X226695Y740031D01*
X226743Y740007D01*
X226794Y739986D01*
X226845Y739969D01*
X226898Y739955D01*
X226952Y739946D01*
X227006Y739940D01*
X227060Y739938D01*
X227114Y739940D01*
X227168Y739946D01*
X227222Y739955D01*
X227275Y739969D01*
X227326Y739986D01*
X227377Y740007D01*
X227425Y740031D01*
X227472Y740059D01*
X227517Y740090D01*
X227559Y740124D01*
X227599Y740161D01*
X227636Y740201D01*
X227670Y740243D01*
X227701Y740288D01*
X227729Y740335D01*
X227753Y740383D01*
X227774Y740434D01*
X227791Y740485D01*
X227805Y740538D01*
X227814Y740592D01*
X227820Y740646D01*
X227822Y740700D01*
D11*
X221966Y734431D02*
X219313Y734431D01*
X221966Y734431D02*
X222068Y734433D01*
X222169Y734439D01*
X222270Y734449D01*
X222371Y734462D01*
X222471Y734480D01*
X222570Y734501D01*
X222669Y734526D01*
X222766Y734555D01*
X222863Y734587D01*
X222958Y734623D01*
X223051Y734663D01*
X223143Y734706D01*
X223233Y734753D01*
X223322Y734804D01*
X223408Y734857D01*
X223492Y734914D01*
X223574Y734974D01*
X223654Y735037D01*
X223731Y735103D01*
X223806Y735172D01*
X223878Y735244D01*
X223947Y735319D01*
X224013Y735396D01*
X224076Y735476D01*
X224136Y735558D01*
X224193Y735642D01*
X224246Y735728D01*
X224297Y735817D01*
X224344Y735907D01*
X224387Y735999D01*
X224427Y736092D01*
X224463Y736187D01*
X224495Y736284D01*
X224524Y736381D01*
X224549Y736480D01*
X224570Y736579D01*
X224588Y736679D01*
X224601Y736780D01*
X224611Y736881D01*
X224617Y736982D01*
X224619Y737084D01*
X224619Y743716D01*
X224617Y743818D01*
X224611Y743919D01*
X224601Y744020D01*
X224588Y744121D01*
X224570Y744221D01*
X224549Y744320D01*
X224524Y744419D01*
X224495Y744516D01*
X224463Y744613D01*
X224427Y744708D01*
X224387Y744801D01*
X224344Y744893D01*
X224297Y744983D01*
X224246Y745072D01*
X224193Y745158D01*
X224136Y745242D01*
X224076Y745324D01*
X224013Y745404D01*
X223947Y745481D01*
X223878Y745556D01*
X223806Y745628D01*
X223731Y745697D01*
X223654Y745763D01*
X223574Y745826D01*
X223492Y745886D01*
X223408Y745943D01*
X223322Y745996D01*
X223233Y746047D01*
X223143Y746094D01*
X223051Y746137D01*
X222958Y746177D01*
X222863Y746213D01*
X222766Y746245D01*
X222669Y746274D01*
X222570Y746299D01*
X222471Y746320D01*
X222371Y746338D01*
X222270Y746351D01*
X222169Y746361D01*
X222068Y746367D01*
X221966Y746369D01*
X219313Y746369D01*
X215065Y743716D02*
X211749Y746369D01*
X211749Y734431D01*
X215065Y734431D02*
X208433Y734431D01*
X203635Y734431D02*
X199656Y734431D01*
X199554Y734433D01*
X199453Y734439D01*
X199352Y734449D01*
X199251Y734462D01*
X199151Y734480D01*
X199052Y734501D01*
X198953Y734526D01*
X198856Y734555D01*
X198759Y734587D01*
X198664Y734623D01*
X198571Y734663D01*
X198479Y734706D01*
X198389Y734753D01*
X198300Y734804D01*
X198214Y734857D01*
X198130Y734914D01*
X198048Y734974D01*
X197968Y735037D01*
X197891Y735103D01*
X197816Y735172D01*
X197744Y735244D01*
X197675Y735319D01*
X197609Y735396D01*
X197546Y735476D01*
X197486Y735558D01*
X197429Y735642D01*
X197376Y735728D01*
X197325Y735817D01*
X197278Y735907D01*
X197235Y735999D01*
X197195Y736092D01*
X197159Y736187D01*
X197127Y736283D01*
X197098Y736381D01*
X197073Y736479D01*
X197052Y736579D01*
X197034Y736679D01*
X197021Y736780D01*
X197011Y736881D01*
X197005Y736982D01*
X197003Y737084D01*
X197003Y738410D01*
X197005Y738512D01*
X197011Y738613D01*
X197021Y738714D01*
X197034Y738815D01*
X197052Y738915D01*
X197073Y739014D01*
X197098Y739113D01*
X197127Y739210D01*
X197159Y739307D01*
X197195Y739402D01*
X197235Y739495D01*
X197278Y739587D01*
X197325Y739677D01*
X197376Y739766D01*
X197429Y739852D01*
X197486Y739936D01*
X197546Y740018D01*
X197609Y740098D01*
X197675Y740175D01*
X197744Y740250D01*
X197816Y740322D01*
X197891Y740391D01*
X197968Y740457D01*
X198048Y740520D01*
X198130Y740580D01*
X198214Y740637D01*
X198300Y740690D01*
X198389Y740741D01*
X198479Y740788D01*
X198571Y740831D01*
X198664Y740871D01*
X198759Y740907D01*
X198856Y740939D01*
X198953Y740968D01*
X199052Y740993D01*
X199151Y741014D01*
X199251Y741032D01*
X199352Y741045D01*
X199453Y741055D01*
X199554Y741061D01*
X199656Y741063D01*
X203635Y741063D01*
X203635Y746369D01*
X197003Y746369D01*
D10*
X249158Y718216D02*
X260842Y718216D01*
X260842Y690784D02*
X249158Y690784D01*
X227822Y704500D02*
X227820Y704554D01*
X227814Y704608D01*
X227805Y704662D01*
X227791Y704715D01*
X227774Y704766D01*
X227753Y704817D01*
X227729Y704865D01*
X227701Y704912D01*
X227670Y704957D01*
X227636Y704999D01*
X227599Y705039D01*
X227559Y705076D01*
X227517Y705110D01*
X227472Y705141D01*
X227425Y705169D01*
X227377Y705193D01*
X227326Y705214D01*
X227275Y705231D01*
X227222Y705245D01*
X227168Y705254D01*
X227114Y705260D01*
X227060Y705262D01*
X227006Y705260D01*
X226952Y705254D01*
X226898Y705245D01*
X226845Y705231D01*
X226794Y705214D01*
X226743Y705193D01*
X226695Y705169D01*
X226648Y705141D01*
X226603Y705110D01*
X226561Y705076D01*
X226521Y705039D01*
X226484Y704999D01*
X226450Y704957D01*
X226419Y704912D01*
X226391Y704865D01*
X226367Y704817D01*
X226346Y704766D01*
X226329Y704715D01*
X226315Y704662D01*
X226306Y704608D01*
X226300Y704554D01*
X226298Y704500D01*
X226300Y704446D01*
X226306Y704392D01*
X226315Y704338D01*
X226329Y704285D01*
X226346Y704234D01*
X226367Y704183D01*
X226391Y704135D01*
X226419Y704088D01*
X226450Y704043D01*
X226484Y704001D01*
X226521Y703961D01*
X226561Y703924D01*
X226603Y703890D01*
X226648Y703859D01*
X226695Y703831D01*
X226743Y703807D01*
X226794Y703786D01*
X226845Y703769D01*
X226898Y703755D01*
X226952Y703746D01*
X227006Y703740D01*
X227060Y703738D01*
X227114Y703740D01*
X227168Y703746D01*
X227222Y703755D01*
X227275Y703769D01*
X227326Y703786D01*
X227377Y703807D01*
X227425Y703831D01*
X227472Y703859D01*
X227517Y703890D01*
X227559Y703924D01*
X227599Y703961D01*
X227636Y704001D01*
X227670Y704043D01*
X227701Y704088D01*
X227729Y704135D01*
X227753Y704183D01*
X227774Y704234D01*
X227791Y704285D01*
X227805Y704338D01*
X227814Y704392D01*
X227820Y704446D01*
X227822Y704500D01*
D11*
X221966Y697231D02*
X219313Y697231D01*
X221966Y697231D02*
X222068Y697233D01*
X222169Y697239D01*
X222270Y697249D01*
X222371Y697262D01*
X222471Y697280D01*
X222570Y697301D01*
X222669Y697326D01*
X222766Y697355D01*
X222863Y697387D01*
X222958Y697423D01*
X223051Y697463D01*
X223143Y697506D01*
X223233Y697553D01*
X223322Y697604D01*
X223408Y697657D01*
X223492Y697714D01*
X223574Y697774D01*
X223654Y697837D01*
X223731Y697903D01*
X223806Y697972D01*
X223878Y698044D01*
X223947Y698119D01*
X224013Y698196D01*
X224076Y698276D01*
X224136Y698358D01*
X224193Y698442D01*
X224246Y698528D01*
X224297Y698617D01*
X224344Y698707D01*
X224387Y698799D01*
X224427Y698892D01*
X224463Y698987D01*
X224495Y699084D01*
X224524Y699181D01*
X224549Y699280D01*
X224570Y699379D01*
X224588Y699479D01*
X224601Y699580D01*
X224611Y699681D01*
X224617Y699782D01*
X224619Y699884D01*
X224619Y706516D01*
X224617Y706618D01*
X224611Y706719D01*
X224601Y706820D01*
X224588Y706921D01*
X224570Y707021D01*
X224549Y707120D01*
X224524Y707219D01*
X224495Y707316D01*
X224463Y707413D01*
X224427Y707508D01*
X224387Y707601D01*
X224344Y707693D01*
X224297Y707783D01*
X224246Y707872D01*
X224193Y707958D01*
X224136Y708042D01*
X224076Y708124D01*
X224013Y708204D01*
X223947Y708281D01*
X223878Y708356D01*
X223806Y708428D01*
X223731Y708497D01*
X223654Y708563D01*
X223574Y708626D01*
X223492Y708686D01*
X223408Y708743D01*
X223322Y708796D01*
X223233Y708847D01*
X223143Y708894D01*
X223051Y708937D01*
X222958Y708977D01*
X222863Y709013D01*
X222766Y709045D01*
X222669Y709074D01*
X222570Y709099D01*
X222471Y709120D01*
X222371Y709138D01*
X222270Y709151D01*
X222169Y709161D01*
X222068Y709167D01*
X221966Y709169D01*
X219313Y709169D01*
X215065Y706516D02*
X211749Y709169D01*
X211749Y697231D01*
X215065Y697231D02*
X208433Y697231D01*
X203635Y703863D02*
X199656Y703863D01*
X199554Y703861D01*
X199453Y703855D01*
X199352Y703845D01*
X199251Y703832D01*
X199151Y703814D01*
X199052Y703793D01*
X198953Y703768D01*
X198856Y703739D01*
X198759Y703707D01*
X198664Y703671D01*
X198571Y703631D01*
X198479Y703588D01*
X198389Y703541D01*
X198300Y703490D01*
X198214Y703437D01*
X198130Y703380D01*
X198048Y703320D01*
X197968Y703257D01*
X197891Y703191D01*
X197816Y703122D01*
X197744Y703050D01*
X197675Y702975D01*
X197609Y702898D01*
X197546Y702818D01*
X197486Y702736D01*
X197429Y702652D01*
X197376Y702566D01*
X197325Y702477D01*
X197278Y702387D01*
X197235Y702295D01*
X197195Y702202D01*
X197159Y702107D01*
X197127Y702010D01*
X197098Y701913D01*
X197073Y701815D01*
X197052Y701715D01*
X197034Y701615D01*
X197021Y701514D01*
X197011Y701413D01*
X197005Y701312D01*
X197003Y701210D01*
X197003Y700547D01*
X197005Y700433D01*
X197011Y700318D01*
X197021Y700204D01*
X197035Y700091D01*
X197052Y699977D01*
X197074Y699865D01*
X197099Y699753D01*
X197129Y699643D01*
X197162Y699533D01*
X197199Y699425D01*
X197239Y699318D01*
X197284Y699212D01*
X197331Y699108D01*
X197383Y699006D01*
X197438Y698906D01*
X197496Y698807D01*
X197558Y698711D01*
X197623Y698616D01*
X197691Y698525D01*
X197763Y698435D01*
X197837Y698348D01*
X197914Y698264D01*
X197995Y698182D01*
X198078Y698103D01*
X198163Y698027D01*
X198252Y697954D01*
X198342Y697885D01*
X198435Y697818D01*
X198531Y697755D01*
X198628Y697695D01*
X198728Y697638D01*
X198829Y697585D01*
X198932Y697535D01*
X199037Y697489D01*
X199143Y697446D01*
X199251Y697408D01*
X199360Y697373D01*
X199470Y697342D01*
X199581Y697314D01*
X199693Y697291D01*
X199806Y697271D01*
X199919Y697255D01*
X200033Y697243D01*
X200147Y697235D01*
X200262Y697231D01*
X200376Y697231D01*
X200491Y697235D01*
X200605Y697243D01*
X200719Y697255D01*
X200832Y697271D01*
X200945Y697291D01*
X201057Y697314D01*
X201168Y697342D01*
X201278Y697373D01*
X201387Y697408D01*
X201495Y697446D01*
X201601Y697489D01*
X201706Y697535D01*
X201809Y697585D01*
X201910Y697638D01*
X202010Y697695D01*
X202107Y697755D01*
X202203Y697818D01*
X202296Y697885D01*
X202386Y697954D01*
X202475Y698027D01*
X202560Y698103D01*
X202643Y698182D01*
X202724Y698264D01*
X202801Y698348D01*
X202875Y698435D01*
X202947Y698525D01*
X203015Y698616D01*
X203080Y698711D01*
X203142Y698807D01*
X203200Y698906D01*
X203255Y699006D01*
X203307Y699108D01*
X203354Y699212D01*
X203399Y699318D01*
X203439Y699425D01*
X203476Y699533D01*
X203509Y699643D01*
X203539Y699753D01*
X203564Y699865D01*
X203586Y699977D01*
X203603Y700091D01*
X203617Y700204D01*
X203627Y700318D01*
X203633Y700433D01*
X203635Y700547D01*
X203635Y703863D01*
X203633Y704007D01*
X203627Y704150D01*
X203617Y704294D01*
X203604Y704437D01*
X203586Y704579D01*
X203565Y704721D01*
X203540Y704863D01*
X203511Y705004D01*
X203478Y705144D01*
X203442Y705283D01*
X203401Y705420D01*
X203357Y705557D01*
X203310Y705693D01*
X203258Y705827D01*
X203203Y705960D01*
X203145Y706091D01*
X203082Y706221D01*
X203017Y706348D01*
X202948Y706474D01*
X202875Y706599D01*
X202800Y706721D01*
X202721Y706841D01*
X202638Y706958D01*
X202553Y707074D01*
X202465Y707187D01*
X202373Y707298D01*
X202279Y707406D01*
X202181Y707512D01*
X202081Y707615D01*
X201978Y707715D01*
X201872Y707813D01*
X201764Y707907D01*
X201653Y707999D01*
X201540Y708087D01*
X201424Y708172D01*
X201307Y708255D01*
X201187Y708334D01*
X201065Y708409D01*
X200940Y708482D01*
X200814Y708551D01*
X200687Y708616D01*
X200557Y708679D01*
X200426Y708737D01*
X200293Y708792D01*
X200159Y708844D01*
X200023Y708891D01*
X199886Y708935D01*
X199749Y708976D01*
X199610Y709012D01*
X199470Y709045D01*
X199329Y709074D01*
X199187Y709099D01*
X199045Y709120D01*
X198903Y709138D01*
X198760Y709151D01*
X198616Y709161D01*
X198473Y709167D01*
X198329Y709169D01*
D10*
X249158Y682016D02*
X260842Y682016D01*
X260842Y654584D02*
X249158Y654584D01*
X227822Y668300D02*
X227820Y668354D01*
X227814Y668408D01*
X227805Y668462D01*
X227791Y668515D01*
X227774Y668566D01*
X227753Y668617D01*
X227729Y668665D01*
X227701Y668712D01*
X227670Y668757D01*
X227636Y668799D01*
X227599Y668839D01*
X227559Y668876D01*
X227517Y668910D01*
X227472Y668941D01*
X227425Y668969D01*
X227377Y668993D01*
X227326Y669014D01*
X227275Y669031D01*
X227222Y669045D01*
X227168Y669054D01*
X227114Y669060D01*
X227060Y669062D01*
X227006Y669060D01*
X226952Y669054D01*
X226898Y669045D01*
X226845Y669031D01*
X226794Y669014D01*
X226743Y668993D01*
X226695Y668969D01*
X226648Y668941D01*
X226603Y668910D01*
X226561Y668876D01*
X226521Y668839D01*
X226484Y668799D01*
X226450Y668757D01*
X226419Y668712D01*
X226391Y668665D01*
X226367Y668617D01*
X226346Y668566D01*
X226329Y668515D01*
X226315Y668462D01*
X226306Y668408D01*
X226300Y668354D01*
X226298Y668300D01*
X226300Y668246D01*
X226306Y668192D01*
X226315Y668138D01*
X226329Y668085D01*
X226346Y668034D01*
X226367Y667983D01*
X226391Y667935D01*
X226419Y667888D01*
X226450Y667843D01*
X226484Y667801D01*
X226521Y667761D01*
X226561Y667724D01*
X226603Y667690D01*
X226648Y667659D01*
X226695Y667631D01*
X226743Y667607D01*
X226794Y667586D01*
X226845Y667569D01*
X226898Y667555D01*
X226952Y667546D01*
X227006Y667540D01*
X227060Y667538D01*
X227114Y667540D01*
X227168Y667546D01*
X227222Y667555D01*
X227275Y667569D01*
X227326Y667586D01*
X227377Y667607D01*
X227425Y667631D01*
X227472Y667659D01*
X227517Y667690D01*
X227559Y667724D01*
X227599Y667761D01*
X227636Y667801D01*
X227670Y667843D01*
X227701Y667888D01*
X227729Y667935D01*
X227753Y667983D01*
X227774Y668034D01*
X227791Y668085D01*
X227805Y668138D01*
X227814Y668192D01*
X227820Y668246D01*
X227822Y668300D01*
D11*
X221966Y660031D02*
X219313Y660031D01*
X221966Y660031D02*
X222068Y660033D01*
X222169Y660039D01*
X222270Y660049D01*
X222371Y660062D01*
X222471Y660080D01*
X222570Y660101D01*
X222669Y660126D01*
X222766Y660155D01*
X222863Y660187D01*
X222958Y660223D01*
X223051Y660263D01*
X223143Y660306D01*
X223233Y660353D01*
X223322Y660404D01*
X223408Y660457D01*
X223492Y660514D01*
X223574Y660574D01*
X223654Y660637D01*
X223731Y660703D01*
X223806Y660772D01*
X223878Y660844D01*
X223947Y660919D01*
X224013Y660996D01*
X224076Y661076D01*
X224136Y661158D01*
X224193Y661242D01*
X224246Y661328D01*
X224297Y661417D01*
X224344Y661507D01*
X224387Y661599D01*
X224427Y661692D01*
X224463Y661787D01*
X224495Y661884D01*
X224524Y661981D01*
X224549Y662080D01*
X224570Y662179D01*
X224588Y662279D01*
X224601Y662380D01*
X224611Y662481D01*
X224617Y662582D01*
X224619Y662684D01*
X224619Y669316D01*
X224617Y669418D01*
X224611Y669519D01*
X224601Y669620D01*
X224588Y669721D01*
X224570Y669821D01*
X224549Y669920D01*
X224524Y670019D01*
X224495Y670116D01*
X224463Y670213D01*
X224427Y670308D01*
X224387Y670401D01*
X224344Y670493D01*
X224297Y670583D01*
X224246Y670672D01*
X224193Y670758D01*
X224136Y670842D01*
X224076Y670924D01*
X224013Y671004D01*
X223947Y671081D01*
X223878Y671156D01*
X223806Y671228D01*
X223731Y671297D01*
X223654Y671363D01*
X223574Y671426D01*
X223492Y671486D01*
X223408Y671543D01*
X223322Y671596D01*
X223233Y671647D01*
X223143Y671694D01*
X223051Y671737D01*
X222958Y671777D01*
X222863Y671813D01*
X222766Y671845D01*
X222669Y671874D01*
X222570Y671899D01*
X222471Y671920D01*
X222371Y671938D01*
X222270Y671951D01*
X222169Y671961D01*
X222068Y671967D01*
X221966Y671969D01*
X219313Y671969D01*
X215065Y669316D02*
X211749Y671969D01*
X211749Y660031D01*
X215065Y660031D02*
X208433Y660031D01*
X203635Y670643D02*
X203635Y671969D01*
X197003Y671969D01*
X200319Y660031D01*
D10*
X338734Y508862D02*
X338734Y507338D01*
X328066Y507338D02*
X328066Y508862D01*
D12*
X325004Y521120D02*
X325004Y530612D01*
X325004Y521120D02*
X327641Y521120D01*
X327742Y521122D01*
X327843Y521128D01*
X327943Y521137D01*
X328044Y521151D01*
X328143Y521168D01*
X328242Y521189D01*
X328340Y521214D01*
X328437Y521243D01*
X328532Y521275D01*
X328627Y521311D01*
X328720Y521351D01*
X328811Y521394D01*
X328901Y521440D01*
X328989Y521490D01*
X329074Y521544D01*
X329158Y521600D01*
X329240Y521660D01*
X329319Y521723D01*
X329395Y521788D01*
X329470Y521857D01*
X329541Y521928D01*
X329610Y522003D01*
X329675Y522079D01*
X329738Y522158D01*
X329798Y522240D01*
X329854Y522324D01*
X329908Y522409D01*
X329958Y522497D01*
X330004Y522587D01*
X330047Y522678D01*
X330087Y522771D01*
X330123Y522866D01*
X330155Y522961D01*
X330184Y523058D01*
X330209Y523156D01*
X330230Y523255D01*
X330247Y523354D01*
X330261Y523455D01*
X330270Y523555D01*
X330276Y523656D01*
X330278Y523757D01*
X330276Y523858D01*
X330270Y523959D01*
X330261Y524059D01*
X330247Y524160D01*
X330230Y524259D01*
X330209Y524358D01*
X330184Y524456D01*
X330155Y524553D01*
X330123Y524648D01*
X330087Y524743D01*
X330047Y524836D01*
X330004Y524927D01*
X329958Y525017D01*
X329908Y525105D01*
X329854Y525190D01*
X329798Y525274D01*
X329738Y525356D01*
X329675Y525435D01*
X329610Y525511D01*
X329541Y525586D01*
X329470Y525657D01*
X329395Y525726D01*
X329319Y525791D01*
X329240Y525854D01*
X329158Y525914D01*
X329074Y525970D01*
X328989Y526024D01*
X328901Y526074D01*
X328811Y526120D01*
X328720Y526163D01*
X328627Y526203D01*
X328532Y526239D01*
X328437Y526271D01*
X328340Y526300D01*
X328242Y526325D01*
X328143Y526346D01*
X328044Y526363D01*
X327943Y526377D01*
X327843Y526386D01*
X327742Y526392D01*
X327641Y526394D01*
X327641Y526393D02*
X325004Y526393D01*
X328168Y526393D02*
X330277Y530612D01*
X333957Y530612D02*
X337121Y530612D01*
X337211Y530610D01*
X337300Y530604D01*
X337389Y530595D01*
X337477Y530582D01*
X337565Y530565D01*
X337652Y530544D01*
X337739Y530520D01*
X337824Y530492D01*
X337907Y530460D01*
X337990Y530425D01*
X338070Y530386D01*
X338150Y530344D01*
X338227Y530299D01*
X338302Y530250D01*
X338375Y530199D01*
X338446Y530144D01*
X338514Y530086D01*
X338580Y530026D01*
X338644Y529962D01*
X338704Y529896D01*
X338762Y529828D01*
X338817Y529757D01*
X338868Y529684D01*
X338917Y529609D01*
X338962Y529532D01*
X339004Y529452D01*
X339043Y529372D01*
X339078Y529289D01*
X339110Y529206D01*
X339138Y529121D01*
X339162Y529034D01*
X339183Y528947D01*
X339200Y528859D01*
X339213Y528771D01*
X339222Y528682D01*
X339228Y528593D01*
X339230Y528503D01*
X339230Y527448D01*
X339228Y527358D01*
X339222Y527269D01*
X339213Y527180D01*
X339200Y527092D01*
X339183Y527004D01*
X339162Y526917D01*
X339138Y526830D01*
X339110Y526745D01*
X339078Y526662D01*
X339043Y526579D01*
X339004Y526499D01*
X338962Y526419D01*
X338917Y526342D01*
X338868Y526267D01*
X338817Y526194D01*
X338762Y526123D01*
X338704Y526055D01*
X338644Y525989D01*
X338580Y525925D01*
X338514Y525865D01*
X338446Y525807D01*
X338375Y525752D01*
X338302Y525701D01*
X338227Y525652D01*
X338150Y525607D01*
X338070Y525565D01*
X337990Y525526D01*
X337907Y525491D01*
X337824Y525459D01*
X337739Y525431D01*
X337652Y525407D01*
X337565Y525386D01*
X337477Y525369D01*
X337389Y525356D01*
X337300Y525347D01*
X337211Y525341D01*
X337121Y525339D01*
X333957Y525339D01*
X333957Y521120D01*
X339230Y521120D01*
D10*
X220842Y345084D02*
X209158Y345084D01*
X209158Y372516D02*
X220842Y372516D01*
X242178Y358800D02*
X242180Y358746D01*
X242186Y358692D01*
X242195Y358638D01*
X242209Y358585D01*
X242226Y358534D01*
X242247Y358483D01*
X242271Y358435D01*
X242299Y358388D01*
X242330Y358343D01*
X242364Y358301D01*
X242401Y358261D01*
X242441Y358224D01*
X242483Y358190D01*
X242528Y358159D01*
X242575Y358131D01*
X242623Y358107D01*
X242674Y358086D01*
X242725Y358069D01*
X242778Y358055D01*
X242832Y358046D01*
X242886Y358040D01*
X242940Y358038D01*
X242994Y358040D01*
X243048Y358046D01*
X243102Y358055D01*
X243155Y358069D01*
X243206Y358086D01*
X243257Y358107D01*
X243305Y358131D01*
X243352Y358159D01*
X243397Y358190D01*
X243439Y358224D01*
X243479Y358261D01*
X243516Y358301D01*
X243550Y358343D01*
X243581Y358388D01*
X243609Y358435D01*
X243633Y358483D01*
X243654Y358534D01*
X243671Y358585D01*
X243685Y358638D01*
X243694Y358692D01*
X243700Y358746D01*
X243702Y358800D01*
X243700Y358854D01*
X243694Y358908D01*
X243685Y358962D01*
X243671Y359015D01*
X243654Y359066D01*
X243633Y359117D01*
X243609Y359165D01*
X243581Y359212D01*
X243550Y359257D01*
X243516Y359299D01*
X243479Y359339D01*
X243439Y359376D01*
X243397Y359410D01*
X243352Y359441D01*
X243305Y359469D01*
X243257Y359493D01*
X243206Y359514D01*
X243155Y359531D01*
X243102Y359545D01*
X243048Y359554D01*
X242994Y359560D01*
X242940Y359562D01*
X242886Y359560D01*
X242832Y359554D01*
X242778Y359545D01*
X242725Y359531D01*
X242674Y359514D01*
X242623Y359493D01*
X242575Y359469D01*
X242528Y359441D01*
X242483Y359410D01*
X242441Y359376D01*
X242401Y359339D01*
X242364Y359299D01*
X242330Y359257D01*
X242299Y359212D01*
X242271Y359165D01*
X242247Y359117D01*
X242226Y359066D01*
X242209Y359015D01*
X242195Y358962D01*
X242186Y358908D01*
X242180Y358854D01*
X242178Y358800D01*
D11*
X185732Y354831D02*
X183079Y354831D01*
X185732Y354831D02*
X185834Y354833D01*
X185935Y354839D01*
X186036Y354849D01*
X186137Y354862D01*
X186237Y354880D01*
X186336Y354901D01*
X186435Y354926D01*
X186532Y354955D01*
X186629Y354987D01*
X186724Y355023D01*
X186817Y355063D01*
X186909Y355106D01*
X186999Y355153D01*
X187088Y355204D01*
X187174Y355257D01*
X187258Y355314D01*
X187340Y355374D01*
X187420Y355437D01*
X187497Y355503D01*
X187572Y355572D01*
X187644Y355644D01*
X187713Y355719D01*
X187779Y355796D01*
X187842Y355876D01*
X187902Y355958D01*
X187959Y356042D01*
X188012Y356128D01*
X188063Y356217D01*
X188110Y356307D01*
X188153Y356399D01*
X188193Y356492D01*
X188229Y356587D01*
X188261Y356684D01*
X188290Y356781D01*
X188315Y356880D01*
X188336Y356979D01*
X188354Y357079D01*
X188367Y357180D01*
X188377Y357281D01*
X188383Y357382D01*
X188385Y357484D01*
X188385Y364116D01*
X188383Y364218D01*
X188377Y364319D01*
X188367Y364420D01*
X188354Y364521D01*
X188336Y364621D01*
X188315Y364720D01*
X188290Y364819D01*
X188261Y364916D01*
X188229Y365013D01*
X188193Y365108D01*
X188153Y365201D01*
X188110Y365293D01*
X188063Y365383D01*
X188012Y365472D01*
X187959Y365558D01*
X187902Y365642D01*
X187842Y365724D01*
X187779Y365804D01*
X187713Y365881D01*
X187644Y365956D01*
X187572Y366028D01*
X187497Y366097D01*
X187420Y366163D01*
X187340Y366226D01*
X187258Y366286D01*
X187174Y366343D01*
X187088Y366396D01*
X186999Y366447D01*
X186909Y366494D01*
X186817Y366537D01*
X186724Y366577D01*
X186629Y366613D01*
X186532Y366645D01*
X186435Y366674D01*
X186336Y366699D01*
X186237Y366720D01*
X186137Y366738D01*
X186036Y366751D01*
X185935Y366761D01*
X185834Y366767D01*
X185732Y366769D01*
X183079Y366769D01*
X178831Y364116D02*
X175515Y366769D01*
X175515Y354831D01*
X178831Y354831D02*
X172199Y354831D01*
X167401Y358147D02*
X167399Y358261D01*
X167393Y358376D01*
X167383Y358490D01*
X167369Y358603D01*
X167352Y358717D01*
X167330Y358829D01*
X167305Y358941D01*
X167275Y359051D01*
X167242Y359161D01*
X167205Y359269D01*
X167165Y359376D01*
X167120Y359482D01*
X167073Y359586D01*
X167021Y359688D01*
X166966Y359788D01*
X166908Y359887D01*
X166846Y359983D01*
X166781Y360078D01*
X166713Y360169D01*
X166641Y360259D01*
X166567Y360346D01*
X166490Y360430D01*
X166409Y360512D01*
X166326Y360591D01*
X166241Y360667D01*
X166152Y360740D01*
X166062Y360809D01*
X165969Y360876D01*
X165873Y360939D01*
X165776Y360999D01*
X165676Y361056D01*
X165575Y361109D01*
X165472Y361159D01*
X165367Y361205D01*
X165261Y361248D01*
X165153Y361286D01*
X165044Y361321D01*
X164934Y361352D01*
X164823Y361380D01*
X164711Y361403D01*
X164598Y361423D01*
X164485Y361439D01*
X164371Y361451D01*
X164257Y361459D01*
X164142Y361463D01*
X164028Y361463D01*
X163913Y361459D01*
X163799Y361451D01*
X163685Y361439D01*
X163572Y361423D01*
X163459Y361403D01*
X163347Y361380D01*
X163236Y361352D01*
X163126Y361321D01*
X163017Y361286D01*
X162909Y361248D01*
X162803Y361205D01*
X162698Y361159D01*
X162595Y361109D01*
X162494Y361056D01*
X162394Y360999D01*
X162297Y360939D01*
X162201Y360876D01*
X162108Y360809D01*
X162018Y360740D01*
X161929Y360667D01*
X161844Y360591D01*
X161761Y360512D01*
X161680Y360430D01*
X161603Y360346D01*
X161529Y360259D01*
X161457Y360169D01*
X161389Y360078D01*
X161324Y359983D01*
X161262Y359887D01*
X161204Y359788D01*
X161149Y359688D01*
X161097Y359586D01*
X161050Y359482D01*
X161005Y359376D01*
X160965Y359269D01*
X160928Y359161D01*
X160895Y359051D01*
X160865Y358941D01*
X160840Y358829D01*
X160818Y358717D01*
X160801Y358603D01*
X160787Y358490D01*
X160777Y358376D01*
X160771Y358261D01*
X160769Y358147D01*
X160771Y358033D01*
X160777Y357918D01*
X160787Y357804D01*
X160801Y357691D01*
X160818Y357577D01*
X160840Y357465D01*
X160865Y357353D01*
X160895Y357243D01*
X160928Y357133D01*
X160965Y357025D01*
X161005Y356918D01*
X161050Y356812D01*
X161097Y356708D01*
X161149Y356606D01*
X161204Y356506D01*
X161262Y356407D01*
X161324Y356311D01*
X161389Y356216D01*
X161457Y356125D01*
X161529Y356035D01*
X161603Y355948D01*
X161680Y355864D01*
X161761Y355782D01*
X161844Y355703D01*
X161929Y355627D01*
X162018Y355554D01*
X162108Y355485D01*
X162201Y355418D01*
X162297Y355355D01*
X162394Y355295D01*
X162494Y355238D01*
X162595Y355185D01*
X162698Y355135D01*
X162803Y355089D01*
X162909Y355046D01*
X163017Y355008D01*
X163126Y354973D01*
X163236Y354942D01*
X163347Y354914D01*
X163459Y354891D01*
X163572Y354871D01*
X163685Y354855D01*
X163799Y354843D01*
X163913Y354835D01*
X164028Y354831D01*
X164142Y354831D01*
X164257Y354835D01*
X164371Y354843D01*
X164485Y354855D01*
X164598Y354871D01*
X164711Y354891D01*
X164823Y354914D01*
X164934Y354942D01*
X165044Y354973D01*
X165153Y355008D01*
X165261Y355046D01*
X165367Y355089D01*
X165472Y355135D01*
X165575Y355185D01*
X165676Y355238D01*
X165776Y355295D01*
X165873Y355355D01*
X165969Y355418D01*
X166062Y355485D01*
X166152Y355554D01*
X166241Y355627D01*
X166326Y355703D01*
X166409Y355782D01*
X166490Y355864D01*
X166567Y355948D01*
X166641Y356035D01*
X166713Y356125D01*
X166781Y356216D01*
X166846Y356311D01*
X166908Y356407D01*
X166966Y356506D01*
X167021Y356606D01*
X167073Y356708D01*
X167120Y356812D01*
X167165Y356918D01*
X167205Y357025D01*
X167242Y357133D01*
X167275Y357243D01*
X167305Y357353D01*
X167330Y357465D01*
X167352Y357577D01*
X167369Y357691D01*
X167383Y357804D01*
X167393Y357918D01*
X167399Y358033D01*
X167401Y358147D01*
X166738Y364116D02*
X166736Y364218D01*
X166730Y364319D01*
X166720Y364420D01*
X166707Y364521D01*
X166689Y364621D01*
X166668Y364720D01*
X166643Y364819D01*
X166614Y364916D01*
X166582Y365013D01*
X166546Y365108D01*
X166506Y365201D01*
X166463Y365293D01*
X166416Y365383D01*
X166365Y365472D01*
X166312Y365558D01*
X166255Y365642D01*
X166195Y365724D01*
X166132Y365804D01*
X166066Y365881D01*
X165997Y365956D01*
X165925Y366028D01*
X165850Y366097D01*
X165773Y366163D01*
X165693Y366226D01*
X165611Y366286D01*
X165527Y366343D01*
X165441Y366396D01*
X165352Y366447D01*
X165262Y366494D01*
X165170Y366537D01*
X165077Y366577D01*
X164982Y366613D01*
X164885Y366645D01*
X164788Y366674D01*
X164689Y366699D01*
X164590Y366720D01*
X164490Y366738D01*
X164389Y366751D01*
X164288Y366761D01*
X164187Y366767D01*
X164085Y366769D01*
X163983Y366767D01*
X163882Y366761D01*
X163781Y366751D01*
X163680Y366738D01*
X163580Y366720D01*
X163481Y366699D01*
X163382Y366674D01*
X163285Y366645D01*
X163188Y366613D01*
X163093Y366577D01*
X163000Y366537D01*
X162908Y366494D01*
X162818Y366447D01*
X162729Y366396D01*
X162643Y366343D01*
X162559Y366286D01*
X162477Y366226D01*
X162397Y366163D01*
X162320Y366097D01*
X162245Y366028D01*
X162173Y365956D01*
X162104Y365881D01*
X162038Y365804D01*
X161975Y365724D01*
X161915Y365642D01*
X161858Y365558D01*
X161805Y365472D01*
X161754Y365383D01*
X161707Y365293D01*
X161664Y365201D01*
X161624Y365108D01*
X161588Y365013D01*
X161556Y364916D01*
X161527Y364819D01*
X161502Y364720D01*
X161481Y364621D01*
X161463Y364521D01*
X161450Y364420D01*
X161440Y364319D01*
X161434Y364218D01*
X161432Y364116D01*
X161434Y364014D01*
X161440Y363913D01*
X161450Y363812D01*
X161463Y363711D01*
X161481Y363611D01*
X161502Y363512D01*
X161527Y363413D01*
X161556Y363316D01*
X161588Y363219D01*
X161624Y363124D01*
X161664Y363031D01*
X161707Y362939D01*
X161754Y362849D01*
X161805Y362760D01*
X161858Y362674D01*
X161915Y362590D01*
X161975Y362508D01*
X162038Y362428D01*
X162104Y362351D01*
X162173Y362276D01*
X162245Y362204D01*
X162320Y362135D01*
X162397Y362069D01*
X162477Y362006D01*
X162559Y361946D01*
X162643Y361889D01*
X162729Y361836D01*
X162818Y361785D01*
X162908Y361738D01*
X163000Y361695D01*
X163093Y361655D01*
X163188Y361619D01*
X163285Y361587D01*
X163382Y361558D01*
X163481Y361533D01*
X163580Y361512D01*
X163680Y361494D01*
X163781Y361481D01*
X163882Y361471D01*
X163983Y361465D01*
X164085Y361463D01*
X164187Y361465D01*
X164288Y361471D01*
X164389Y361481D01*
X164490Y361494D01*
X164590Y361512D01*
X164689Y361533D01*
X164788Y361558D01*
X164885Y361587D01*
X164982Y361619D01*
X165077Y361655D01*
X165170Y361695D01*
X165262Y361738D01*
X165352Y361785D01*
X165441Y361836D01*
X165527Y361889D01*
X165611Y361946D01*
X165693Y362006D01*
X165773Y362069D01*
X165850Y362135D01*
X165925Y362204D01*
X165997Y362276D01*
X166066Y362351D01*
X166132Y362428D01*
X166195Y362508D01*
X166255Y362590D01*
X166312Y362674D01*
X166365Y362760D01*
X166416Y362849D01*
X166463Y362939D01*
X166506Y363031D01*
X166546Y363124D01*
X166582Y363219D01*
X166614Y363316D01*
X166643Y363413D01*
X166668Y363512D01*
X166689Y363611D01*
X166707Y363711D01*
X166720Y363812D01*
X166730Y363913D01*
X166736Y364014D01*
X166738Y364116D01*
D10*
X337734Y192012D02*
X337734Y190488D01*
X327066Y190488D02*
X327066Y192012D01*
D12*
X323004Y207270D02*
X323004Y216762D01*
X323004Y207270D02*
X325641Y207270D01*
X325742Y207272D01*
X325843Y207278D01*
X325943Y207287D01*
X326044Y207301D01*
X326143Y207318D01*
X326242Y207339D01*
X326340Y207364D01*
X326437Y207393D01*
X326532Y207425D01*
X326627Y207461D01*
X326720Y207501D01*
X326811Y207544D01*
X326901Y207590D01*
X326989Y207640D01*
X327074Y207694D01*
X327158Y207750D01*
X327240Y207810D01*
X327319Y207873D01*
X327395Y207938D01*
X327470Y208007D01*
X327541Y208078D01*
X327610Y208153D01*
X327675Y208229D01*
X327738Y208308D01*
X327798Y208390D01*
X327854Y208474D01*
X327908Y208559D01*
X327958Y208647D01*
X328004Y208737D01*
X328047Y208828D01*
X328087Y208921D01*
X328123Y209016D01*
X328155Y209111D01*
X328184Y209208D01*
X328209Y209306D01*
X328230Y209405D01*
X328247Y209504D01*
X328261Y209605D01*
X328270Y209705D01*
X328276Y209806D01*
X328278Y209907D01*
X328276Y210008D01*
X328270Y210109D01*
X328261Y210209D01*
X328247Y210310D01*
X328230Y210409D01*
X328209Y210508D01*
X328184Y210606D01*
X328155Y210703D01*
X328123Y210798D01*
X328087Y210893D01*
X328047Y210986D01*
X328004Y211077D01*
X327958Y211167D01*
X327908Y211255D01*
X327854Y211340D01*
X327798Y211424D01*
X327738Y211506D01*
X327675Y211585D01*
X327610Y211661D01*
X327541Y211736D01*
X327470Y211807D01*
X327395Y211876D01*
X327319Y211941D01*
X327240Y212004D01*
X327158Y212064D01*
X327074Y212120D01*
X326989Y212174D01*
X326901Y212224D01*
X326811Y212270D01*
X326720Y212313D01*
X326627Y212353D01*
X326532Y212389D01*
X326437Y212421D01*
X326340Y212450D01*
X326242Y212475D01*
X326143Y212496D01*
X326044Y212513D01*
X325943Y212527D01*
X325843Y212536D01*
X325742Y212542D01*
X325641Y212544D01*
X325641Y212543D02*
X323004Y212543D01*
X326168Y212543D02*
X328277Y216762D01*
X331957Y211489D02*
X335121Y211489D01*
X335211Y211491D01*
X335300Y211497D01*
X335389Y211506D01*
X335477Y211519D01*
X335565Y211536D01*
X335652Y211557D01*
X335739Y211581D01*
X335824Y211609D01*
X335907Y211641D01*
X335990Y211676D01*
X336070Y211715D01*
X336150Y211757D01*
X336227Y211802D01*
X336302Y211851D01*
X336375Y211902D01*
X336446Y211957D01*
X336514Y212015D01*
X336580Y212075D01*
X336644Y212139D01*
X336704Y212205D01*
X336762Y212273D01*
X336817Y212344D01*
X336868Y212417D01*
X336917Y212492D01*
X336962Y212569D01*
X337004Y212649D01*
X337043Y212729D01*
X337078Y212812D01*
X337110Y212895D01*
X337138Y212980D01*
X337162Y213067D01*
X337183Y213154D01*
X337200Y213242D01*
X337213Y213330D01*
X337222Y213419D01*
X337228Y213508D01*
X337230Y213598D01*
X337230Y214125D01*
X337228Y214226D01*
X337222Y214327D01*
X337213Y214427D01*
X337199Y214528D01*
X337182Y214627D01*
X337161Y214726D01*
X337136Y214824D01*
X337107Y214921D01*
X337075Y215016D01*
X337039Y215111D01*
X336999Y215204D01*
X336956Y215295D01*
X336910Y215385D01*
X336860Y215473D01*
X336806Y215558D01*
X336750Y215642D01*
X336690Y215724D01*
X336627Y215803D01*
X336562Y215879D01*
X336493Y215954D01*
X336422Y216025D01*
X336347Y216094D01*
X336271Y216159D01*
X336192Y216222D01*
X336110Y216282D01*
X336026Y216338D01*
X335941Y216392D01*
X335853Y216442D01*
X335763Y216488D01*
X335672Y216531D01*
X335579Y216571D01*
X335484Y216607D01*
X335389Y216639D01*
X335292Y216668D01*
X335194Y216693D01*
X335095Y216714D01*
X334996Y216731D01*
X334895Y216745D01*
X334795Y216754D01*
X334694Y216760D01*
X334593Y216762D01*
X334492Y216760D01*
X334391Y216754D01*
X334291Y216745D01*
X334190Y216731D01*
X334091Y216714D01*
X333992Y216693D01*
X333894Y216668D01*
X333797Y216639D01*
X333702Y216607D01*
X333607Y216571D01*
X333514Y216531D01*
X333423Y216488D01*
X333333Y216442D01*
X333245Y216392D01*
X333160Y216338D01*
X333076Y216282D01*
X332994Y216222D01*
X332915Y216159D01*
X332839Y216094D01*
X332764Y216025D01*
X332693Y215954D01*
X332624Y215879D01*
X332559Y215803D01*
X332496Y215724D01*
X332436Y215642D01*
X332380Y215558D01*
X332326Y215473D01*
X332276Y215385D01*
X332230Y215295D01*
X332187Y215204D01*
X332147Y215111D01*
X332111Y215016D01*
X332079Y214921D01*
X332050Y214824D01*
X332025Y214726D01*
X332004Y214627D01*
X331987Y214528D01*
X331973Y214427D01*
X331964Y214327D01*
X331958Y214226D01*
X331956Y214125D01*
X331957Y214125D02*
X331957Y211489D01*
X331956Y211489D02*
X331958Y211362D01*
X331964Y211234D01*
X331973Y211107D01*
X331987Y210980D01*
X332004Y210854D01*
X332025Y210729D01*
X332050Y210604D01*
X332079Y210479D01*
X332111Y210356D01*
X332147Y210234D01*
X332187Y210113D01*
X332230Y209993D01*
X332277Y209874D01*
X332328Y209757D01*
X332382Y209642D01*
X332439Y209528D01*
X332500Y209416D01*
X332564Y209306D01*
X332632Y209198D01*
X332703Y209092D01*
X332777Y208989D01*
X332854Y208887D01*
X332934Y208788D01*
X333017Y208691D01*
X333103Y208597D01*
X333192Y208506D01*
X333283Y208417D01*
X333377Y208331D01*
X333474Y208248D01*
X333573Y208168D01*
X333675Y208091D01*
X333778Y208017D01*
X333884Y207946D01*
X333992Y207878D01*
X334102Y207814D01*
X334214Y207753D01*
X334328Y207696D01*
X334443Y207642D01*
X334560Y207591D01*
X334679Y207544D01*
X334799Y207501D01*
X334920Y207461D01*
X335042Y207425D01*
X335165Y207393D01*
X335289Y207364D01*
X335414Y207339D01*
X335540Y207318D01*
X335666Y207301D01*
X335793Y207287D01*
X335920Y207278D01*
X336048Y207272D01*
X336175Y207270D01*
D10*
X456284Y284158D02*
X456284Y295842D01*
X483716Y295842D02*
X483716Y284158D01*
X470000Y262822D02*
X469946Y262820D01*
X469892Y262814D01*
X469838Y262805D01*
X469785Y262791D01*
X469734Y262774D01*
X469683Y262753D01*
X469635Y262729D01*
X469588Y262701D01*
X469543Y262670D01*
X469501Y262636D01*
X469461Y262599D01*
X469424Y262559D01*
X469390Y262517D01*
X469359Y262472D01*
X469331Y262425D01*
X469307Y262377D01*
X469286Y262326D01*
X469269Y262275D01*
X469255Y262222D01*
X469246Y262168D01*
X469240Y262114D01*
X469238Y262060D01*
X469240Y262006D01*
X469246Y261952D01*
X469255Y261898D01*
X469269Y261845D01*
X469286Y261794D01*
X469307Y261743D01*
X469331Y261695D01*
X469359Y261648D01*
X469390Y261603D01*
X469424Y261561D01*
X469461Y261521D01*
X469501Y261484D01*
X469543Y261450D01*
X469588Y261419D01*
X469635Y261391D01*
X469683Y261367D01*
X469734Y261346D01*
X469785Y261329D01*
X469838Y261315D01*
X469892Y261306D01*
X469946Y261300D01*
X470000Y261298D01*
X470054Y261300D01*
X470108Y261306D01*
X470162Y261315D01*
X470215Y261329D01*
X470266Y261346D01*
X470317Y261367D01*
X470365Y261391D01*
X470412Y261419D01*
X470457Y261450D01*
X470499Y261484D01*
X470539Y261521D01*
X470576Y261561D01*
X470610Y261603D01*
X470641Y261648D01*
X470669Y261695D01*
X470693Y261743D01*
X470714Y261794D01*
X470731Y261845D01*
X470745Y261898D01*
X470754Y261952D01*
X470760Y262006D01*
X470762Y262060D01*
X470760Y262114D01*
X470754Y262168D01*
X470745Y262222D01*
X470731Y262275D01*
X470714Y262326D01*
X470693Y262377D01*
X470669Y262425D01*
X470641Y262472D01*
X470610Y262517D01*
X470576Y262559D01*
X470539Y262599D01*
X470499Y262636D01*
X470457Y262670D01*
X470412Y262701D01*
X470365Y262729D01*
X470317Y262753D01*
X470266Y262774D01*
X470215Y262791D01*
X470162Y262805D01*
X470108Y262814D01*
X470054Y262820D01*
X470000Y262822D01*
D12*
X478177Y250254D02*
X480287Y250254D01*
X480377Y250256D01*
X480466Y250262D01*
X480555Y250271D01*
X480643Y250284D01*
X480731Y250301D01*
X480818Y250322D01*
X480905Y250346D01*
X480990Y250374D01*
X481073Y250406D01*
X481156Y250441D01*
X481236Y250480D01*
X481316Y250522D01*
X481393Y250567D01*
X481468Y250616D01*
X481541Y250667D01*
X481612Y250722D01*
X481680Y250780D01*
X481746Y250840D01*
X481810Y250904D01*
X481870Y250970D01*
X481928Y251038D01*
X481983Y251109D01*
X482034Y251182D01*
X482083Y251257D01*
X482128Y251334D01*
X482170Y251414D01*
X482209Y251494D01*
X482244Y251577D01*
X482276Y251660D01*
X482304Y251745D01*
X482328Y251832D01*
X482349Y251919D01*
X482366Y252007D01*
X482379Y252095D01*
X482388Y252184D01*
X482394Y252273D01*
X482396Y252363D01*
X482396Y257637D01*
X482394Y257727D01*
X482388Y257816D01*
X482379Y257905D01*
X482366Y257993D01*
X482349Y258081D01*
X482328Y258168D01*
X482304Y258255D01*
X482276Y258340D01*
X482244Y258423D01*
X482209Y258506D01*
X482170Y258586D01*
X482128Y258666D01*
X482083Y258743D01*
X482034Y258818D01*
X481983Y258891D01*
X481928Y258962D01*
X481870Y259030D01*
X481810Y259096D01*
X481746Y259160D01*
X481680Y259220D01*
X481612Y259278D01*
X481541Y259333D01*
X481468Y259384D01*
X481393Y259433D01*
X481316Y259478D01*
X481236Y259520D01*
X481156Y259559D01*
X481073Y259594D01*
X480990Y259626D01*
X480905Y259654D01*
X480818Y259678D01*
X480731Y259699D01*
X480643Y259716D01*
X480555Y259729D01*
X480466Y259738D01*
X480377Y259744D01*
X480287Y259746D01*
X478177Y259746D01*
X471974Y259746D02*
X471878Y259744D01*
X471783Y259738D01*
X471688Y259729D01*
X471593Y259715D01*
X471499Y259698D01*
X471406Y259677D01*
X471314Y259652D01*
X471223Y259624D01*
X471133Y259592D01*
X471044Y259556D01*
X470957Y259517D01*
X470871Y259474D01*
X470788Y259428D01*
X470706Y259379D01*
X470626Y259326D01*
X470548Y259270D01*
X470473Y259211D01*
X470400Y259149D01*
X470330Y259084D01*
X470263Y259017D01*
X470198Y258947D01*
X470136Y258874D01*
X470077Y258799D01*
X470021Y258721D01*
X469968Y258641D01*
X469919Y258560D01*
X469873Y258476D01*
X469830Y258390D01*
X469791Y258303D01*
X469755Y258214D01*
X469723Y258124D01*
X469695Y258033D01*
X469670Y257941D01*
X469649Y257848D01*
X469632Y257754D01*
X469618Y257659D01*
X469609Y257564D01*
X469603Y257469D01*
X469601Y257373D01*
X471974Y259746D02*
X472084Y259744D01*
X472193Y259738D01*
X472302Y259728D01*
X472411Y259715D01*
X472519Y259697D01*
X472626Y259675D01*
X472733Y259650D01*
X472838Y259621D01*
X472943Y259588D01*
X473046Y259551D01*
X473148Y259511D01*
X473248Y259467D01*
X473347Y259419D01*
X473444Y259368D01*
X473539Y259314D01*
X473632Y259256D01*
X473723Y259195D01*
X473811Y259130D01*
X473898Y259063D01*
X473981Y258992D01*
X474062Y258918D01*
X474141Y258842D01*
X474217Y258763D01*
X474289Y258681D01*
X474359Y258596D01*
X474426Y258509D01*
X474489Y258420D01*
X474550Y258329D01*
X474607Y258235D01*
X474660Y258140D01*
X474710Y258042D01*
X474757Y257943D01*
X474800Y257842D01*
X474839Y257740D01*
X474875Y257636D01*
X470392Y255527D02*
X470322Y255596D01*
X470255Y255668D01*
X470191Y255742D01*
X470129Y255819D01*
X470071Y255898D01*
X470016Y255979D01*
X469964Y256063D01*
X469915Y256148D01*
X469869Y256235D01*
X469827Y256324D01*
X469788Y256414D01*
X469753Y256506D01*
X469721Y256599D01*
X469693Y256693D01*
X469669Y256788D01*
X469648Y256885D01*
X469631Y256981D01*
X469618Y257079D01*
X469609Y257177D01*
X469603Y257275D01*
X469601Y257373D01*
X470392Y255527D02*
X474875Y250254D01*
X469601Y250254D01*
X465875Y250254D02*
X463238Y250254D01*
X463137Y250256D01*
X463036Y250262D01*
X462936Y250271D01*
X462835Y250285D01*
X462736Y250302D01*
X462637Y250323D01*
X462539Y250348D01*
X462442Y250377D01*
X462347Y250409D01*
X462252Y250445D01*
X462159Y250485D01*
X462068Y250528D01*
X461978Y250574D01*
X461890Y250624D01*
X461805Y250678D01*
X461721Y250734D01*
X461639Y250794D01*
X461560Y250857D01*
X461484Y250922D01*
X461409Y250991D01*
X461338Y251062D01*
X461269Y251137D01*
X461204Y251213D01*
X461141Y251292D01*
X461081Y251374D01*
X461025Y251458D01*
X460971Y251543D01*
X460921Y251631D01*
X460875Y251721D01*
X460832Y251812D01*
X460792Y251905D01*
X460756Y252000D01*
X460724Y252095D01*
X460695Y252192D01*
X460670Y252290D01*
X460649Y252389D01*
X460632Y252488D01*
X460618Y252589D01*
X460609Y252689D01*
X460603Y252790D01*
X460601Y252891D01*
X460603Y252992D01*
X460609Y253093D01*
X460618Y253193D01*
X460632Y253294D01*
X460649Y253393D01*
X460670Y253492D01*
X460695Y253590D01*
X460724Y253687D01*
X460756Y253782D01*
X460792Y253877D01*
X460832Y253970D01*
X460875Y254061D01*
X460921Y254151D01*
X460971Y254239D01*
X461025Y254324D01*
X461081Y254408D01*
X461141Y254490D01*
X461204Y254569D01*
X461269Y254645D01*
X461338Y254720D01*
X461409Y254791D01*
X461484Y254860D01*
X461560Y254925D01*
X461639Y254988D01*
X461721Y255048D01*
X461805Y255104D01*
X461890Y255158D01*
X461978Y255208D01*
X462068Y255254D01*
X462159Y255297D01*
X462252Y255337D01*
X462347Y255373D01*
X462442Y255405D01*
X462539Y255434D01*
X462637Y255459D01*
X462736Y255480D01*
X462835Y255497D01*
X462936Y255511D01*
X463036Y255520D01*
X463137Y255526D01*
X463238Y255528D01*
X462711Y259746D02*
X465875Y259746D01*
X462711Y259746D02*
X462620Y259744D01*
X462530Y259738D01*
X462439Y259728D01*
X462350Y259715D01*
X462261Y259697D01*
X462172Y259676D01*
X462085Y259651D01*
X461999Y259622D01*
X461914Y259590D01*
X461831Y259554D01*
X461749Y259514D01*
X461670Y259471D01*
X461592Y259424D01*
X461516Y259375D01*
X461442Y259322D01*
X461371Y259265D01*
X461302Y259206D01*
X461236Y259144D01*
X461172Y259079D01*
X461112Y259012D01*
X461054Y258942D01*
X460999Y258869D01*
X460948Y258795D01*
X460900Y258718D01*
X460855Y258639D01*
X460814Y258558D01*
X460776Y258475D01*
X460742Y258391D01*
X460711Y258306D01*
X460684Y258219D01*
X460661Y258132D01*
X460641Y258043D01*
X460626Y257953D01*
X460614Y257863D01*
X460606Y257773D01*
X460602Y257682D01*
X460602Y257592D01*
X460606Y257501D01*
X460614Y257411D01*
X460626Y257321D01*
X460641Y257231D01*
X460661Y257142D01*
X460684Y257055D01*
X460711Y256968D01*
X460742Y256883D01*
X460776Y256799D01*
X460814Y256716D01*
X460855Y256635D01*
X460900Y256556D01*
X460948Y256479D01*
X460999Y256405D01*
X461054Y256332D01*
X461112Y256262D01*
X461172Y256195D01*
X461236Y256130D01*
X461302Y256068D01*
X461371Y256009D01*
X461442Y255952D01*
X461516Y255899D01*
X461592Y255850D01*
X461670Y255803D01*
X461749Y255760D01*
X461831Y255720D01*
X461914Y255684D01*
X461999Y255652D01*
X462085Y255623D01*
X462172Y255598D01*
X462261Y255577D01*
X462350Y255559D01*
X462439Y255546D01*
X462530Y255536D01*
X462620Y255530D01*
X462711Y255528D01*
X462711Y255527D02*
X464820Y255527D01*
D10*
X491284Y284158D02*
X491284Y295842D01*
X518716Y295842D02*
X518716Y284158D01*
X505000Y262822D02*
X504946Y262820D01*
X504892Y262814D01*
X504838Y262805D01*
X504785Y262791D01*
X504734Y262774D01*
X504683Y262753D01*
X504635Y262729D01*
X504588Y262701D01*
X504543Y262670D01*
X504501Y262636D01*
X504461Y262599D01*
X504424Y262559D01*
X504390Y262517D01*
X504359Y262472D01*
X504331Y262425D01*
X504307Y262377D01*
X504286Y262326D01*
X504269Y262275D01*
X504255Y262222D01*
X504246Y262168D01*
X504240Y262114D01*
X504238Y262060D01*
X504240Y262006D01*
X504246Y261952D01*
X504255Y261898D01*
X504269Y261845D01*
X504286Y261794D01*
X504307Y261743D01*
X504331Y261695D01*
X504359Y261648D01*
X504390Y261603D01*
X504424Y261561D01*
X504461Y261521D01*
X504501Y261484D01*
X504543Y261450D01*
X504588Y261419D01*
X504635Y261391D01*
X504683Y261367D01*
X504734Y261346D01*
X504785Y261329D01*
X504838Y261315D01*
X504892Y261306D01*
X504946Y261300D01*
X505000Y261298D01*
X505054Y261300D01*
X505108Y261306D01*
X505162Y261315D01*
X505215Y261329D01*
X505266Y261346D01*
X505317Y261367D01*
X505365Y261391D01*
X505412Y261419D01*
X505457Y261450D01*
X505499Y261484D01*
X505539Y261521D01*
X505576Y261561D01*
X505610Y261603D01*
X505641Y261648D01*
X505669Y261695D01*
X505693Y261743D01*
X505714Y261794D01*
X505731Y261845D01*
X505745Y261898D01*
X505754Y261952D01*
X505760Y262006D01*
X505762Y262060D01*
X505760Y262114D01*
X505754Y262168D01*
X505745Y262222D01*
X505731Y262275D01*
X505714Y262326D01*
X505693Y262377D01*
X505669Y262425D01*
X505641Y262472D01*
X505610Y262517D01*
X505576Y262559D01*
X505539Y262599D01*
X505499Y262636D01*
X505457Y262670D01*
X505412Y262701D01*
X505365Y262729D01*
X505317Y262753D01*
X505266Y262774D01*
X505215Y262791D01*
X505162Y262805D01*
X505108Y262814D01*
X505054Y262820D01*
X505000Y262822D01*
D12*
X513177Y250254D02*
X515287Y250254D01*
X515377Y250256D01*
X515466Y250262D01*
X515555Y250271D01*
X515643Y250284D01*
X515731Y250301D01*
X515818Y250322D01*
X515905Y250346D01*
X515990Y250374D01*
X516073Y250406D01*
X516156Y250441D01*
X516236Y250480D01*
X516316Y250522D01*
X516393Y250567D01*
X516468Y250616D01*
X516541Y250667D01*
X516612Y250722D01*
X516680Y250780D01*
X516746Y250840D01*
X516810Y250904D01*
X516870Y250970D01*
X516928Y251038D01*
X516983Y251109D01*
X517034Y251182D01*
X517083Y251257D01*
X517128Y251334D01*
X517170Y251414D01*
X517209Y251494D01*
X517244Y251577D01*
X517276Y251660D01*
X517304Y251745D01*
X517328Y251832D01*
X517349Y251919D01*
X517366Y252007D01*
X517379Y252095D01*
X517388Y252184D01*
X517394Y252273D01*
X517396Y252363D01*
X517396Y257637D01*
X517394Y257727D01*
X517388Y257816D01*
X517379Y257905D01*
X517366Y257993D01*
X517349Y258081D01*
X517328Y258168D01*
X517304Y258255D01*
X517276Y258340D01*
X517244Y258423D01*
X517209Y258506D01*
X517170Y258586D01*
X517128Y258666D01*
X517083Y258743D01*
X517034Y258818D01*
X516983Y258891D01*
X516928Y258962D01*
X516870Y259030D01*
X516810Y259096D01*
X516746Y259160D01*
X516680Y259220D01*
X516612Y259278D01*
X516541Y259333D01*
X516468Y259384D01*
X516393Y259433D01*
X516316Y259478D01*
X516236Y259520D01*
X516156Y259559D01*
X516073Y259594D01*
X515990Y259626D01*
X515905Y259654D01*
X515818Y259678D01*
X515731Y259699D01*
X515643Y259716D01*
X515555Y259729D01*
X515466Y259738D01*
X515377Y259744D01*
X515287Y259746D01*
X513177Y259746D01*
X506974Y259746D02*
X506878Y259744D01*
X506783Y259738D01*
X506688Y259729D01*
X506593Y259715D01*
X506499Y259698D01*
X506406Y259677D01*
X506314Y259652D01*
X506223Y259624D01*
X506133Y259592D01*
X506044Y259556D01*
X505957Y259517D01*
X505871Y259474D01*
X505788Y259428D01*
X505706Y259379D01*
X505626Y259326D01*
X505548Y259270D01*
X505473Y259211D01*
X505400Y259149D01*
X505330Y259084D01*
X505263Y259017D01*
X505198Y258947D01*
X505136Y258874D01*
X505077Y258799D01*
X505021Y258721D01*
X504968Y258641D01*
X504919Y258560D01*
X504873Y258476D01*
X504830Y258390D01*
X504791Y258303D01*
X504755Y258214D01*
X504723Y258124D01*
X504695Y258033D01*
X504670Y257941D01*
X504649Y257848D01*
X504632Y257754D01*
X504618Y257659D01*
X504609Y257564D01*
X504603Y257469D01*
X504601Y257373D01*
X506974Y259746D02*
X507084Y259744D01*
X507193Y259738D01*
X507302Y259728D01*
X507411Y259715D01*
X507519Y259697D01*
X507626Y259675D01*
X507733Y259650D01*
X507838Y259621D01*
X507943Y259588D01*
X508046Y259551D01*
X508148Y259511D01*
X508248Y259467D01*
X508347Y259419D01*
X508444Y259368D01*
X508539Y259314D01*
X508632Y259256D01*
X508723Y259195D01*
X508811Y259130D01*
X508898Y259063D01*
X508981Y258992D01*
X509062Y258918D01*
X509141Y258842D01*
X509217Y258763D01*
X509289Y258681D01*
X509359Y258596D01*
X509426Y258509D01*
X509489Y258420D01*
X509550Y258329D01*
X509607Y258235D01*
X509660Y258140D01*
X509710Y258042D01*
X509757Y257943D01*
X509800Y257842D01*
X509839Y257740D01*
X509875Y257636D01*
X505392Y255527D02*
X505322Y255596D01*
X505255Y255668D01*
X505191Y255742D01*
X505129Y255819D01*
X505071Y255898D01*
X505016Y255979D01*
X504964Y256063D01*
X504915Y256148D01*
X504869Y256235D01*
X504827Y256324D01*
X504788Y256414D01*
X504753Y256506D01*
X504721Y256599D01*
X504693Y256693D01*
X504669Y256788D01*
X504648Y256885D01*
X504631Y256981D01*
X504618Y257079D01*
X504609Y257177D01*
X504603Y257275D01*
X504601Y257373D01*
X505392Y255527D02*
X509875Y250254D01*
X504601Y250254D01*
X500875Y252363D02*
X498765Y259746D01*
X500875Y252363D02*
X495601Y252363D01*
X497183Y250254D02*
X497183Y254473D01*
D10*
X526284Y284158D02*
X526284Y295842D01*
X553716Y295842D02*
X553716Y284158D01*
X540000Y262822D02*
X539946Y262820D01*
X539892Y262814D01*
X539838Y262805D01*
X539785Y262791D01*
X539734Y262774D01*
X539683Y262753D01*
X539635Y262729D01*
X539588Y262701D01*
X539543Y262670D01*
X539501Y262636D01*
X539461Y262599D01*
X539424Y262559D01*
X539390Y262517D01*
X539359Y262472D01*
X539331Y262425D01*
X539307Y262377D01*
X539286Y262326D01*
X539269Y262275D01*
X539255Y262222D01*
X539246Y262168D01*
X539240Y262114D01*
X539238Y262060D01*
X539240Y262006D01*
X539246Y261952D01*
X539255Y261898D01*
X539269Y261845D01*
X539286Y261794D01*
X539307Y261743D01*
X539331Y261695D01*
X539359Y261648D01*
X539390Y261603D01*
X539424Y261561D01*
X539461Y261521D01*
X539501Y261484D01*
X539543Y261450D01*
X539588Y261419D01*
X539635Y261391D01*
X539683Y261367D01*
X539734Y261346D01*
X539785Y261329D01*
X539838Y261315D01*
X539892Y261306D01*
X539946Y261300D01*
X540000Y261298D01*
X540054Y261300D01*
X540108Y261306D01*
X540162Y261315D01*
X540215Y261329D01*
X540266Y261346D01*
X540317Y261367D01*
X540365Y261391D01*
X540412Y261419D01*
X540457Y261450D01*
X540499Y261484D01*
X540539Y261521D01*
X540576Y261561D01*
X540610Y261603D01*
X540641Y261648D01*
X540669Y261695D01*
X540693Y261743D01*
X540714Y261794D01*
X540731Y261845D01*
X540745Y261898D01*
X540754Y261952D01*
X540760Y262006D01*
X540762Y262060D01*
X540760Y262114D01*
X540754Y262168D01*
X540745Y262222D01*
X540731Y262275D01*
X540714Y262326D01*
X540693Y262377D01*
X540669Y262425D01*
X540641Y262472D01*
X540610Y262517D01*
X540576Y262559D01*
X540539Y262599D01*
X540499Y262636D01*
X540457Y262670D01*
X540412Y262701D01*
X540365Y262729D01*
X540317Y262753D01*
X540266Y262774D01*
X540215Y262791D01*
X540162Y262805D01*
X540108Y262814D01*
X540054Y262820D01*
X540000Y262822D01*
D12*
X548177Y250254D02*
X550287Y250254D01*
X550377Y250256D01*
X550466Y250262D01*
X550555Y250271D01*
X550643Y250284D01*
X550731Y250301D01*
X550818Y250322D01*
X550905Y250346D01*
X550990Y250374D01*
X551073Y250406D01*
X551156Y250441D01*
X551236Y250480D01*
X551316Y250522D01*
X551393Y250567D01*
X551468Y250616D01*
X551541Y250667D01*
X551612Y250722D01*
X551680Y250780D01*
X551746Y250840D01*
X551810Y250904D01*
X551870Y250970D01*
X551928Y251038D01*
X551983Y251109D01*
X552034Y251182D01*
X552083Y251257D01*
X552128Y251334D01*
X552170Y251414D01*
X552209Y251494D01*
X552244Y251577D01*
X552276Y251660D01*
X552304Y251745D01*
X552328Y251832D01*
X552349Y251919D01*
X552366Y252007D01*
X552379Y252095D01*
X552388Y252184D01*
X552394Y252273D01*
X552396Y252363D01*
X552396Y257637D01*
X552394Y257727D01*
X552388Y257816D01*
X552379Y257905D01*
X552366Y257993D01*
X552349Y258081D01*
X552328Y258168D01*
X552304Y258255D01*
X552276Y258340D01*
X552244Y258423D01*
X552209Y258506D01*
X552170Y258586D01*
X552128Y258666D01*
X552083Y258743D01*
X552034Y258818D01*
X551983Y258891D01*
X551928Y258962D01*
X551870Y259030D01*
X551810Y259096D01*
X551746Y259160D01*
X551680Y259220D01*
X551612Y259278D01*
X551541Y259333D01*
X551468Y259384D01*
X551393Y259433D01*
X551316Y259478D01*
X551236Y259520D01*
X551156Y259559D01*
X551073Y259594D01*
X550990Y259626D01*
X550905Y259654D01*
X550818Y259678D01*
X550731Y259699D01*
X550643Y259716D01*
X550555Y259729D01*
X550466Y259738D01*
X550377Y259744D01*
X550287Y259746D01*
X548177Y259746D01*
X541974Y259746D02*
X541878Y259744D01*
X541783Y259738D01*
X541688Y259729D01*
X541593Y259715D01*
X541499Y259698D01*
X541406Y259677D01*
X541314Y259652D01*
X541223Y259624D01*
X541133Y259592D01*
X541044Y259556D01*
X540957Y259517D01*
X540871Y259474D01*
X540788Y259428D01*
X540706Y259379D01*
X540626Y259326D01*
X540548Y259270D01*
X540473Y259211D01*
X540400Y259149D01*
X540330Y259084D01*
X540263Y259017D01*
X540198Y258947D01*
X540136Y258874D01*
X540077Y258799D01*
X540021Y258721D01*
X539968Y258641D01*
X539919Y258560D01*
X539873Y258476D01*
X539830Y258390D01*
X539791Y258303D01*
X539755Y258214D01*
X539723Y258124D01*
X539695Y258033D01*
X539670Y257941D01*
X539649Y257848D01*
X539632Y257754D01*
X539618Y257659D01*
X539609Y257564D01*
X539603Y257469D01*
X539601Y257373D01*
X541974Y259746D02*
X542084Y259744D01*
X542193Y259738D01*
X542302Y259728D01*
X542411Y259715D01*
X542519Y259697D01*
X542626Y259675D01*
X542733Y259650D01*
X542838Y259621D01*
X542943Y259588D01*
X543046Y259551D01*
X543148Y259511D01*
X543248Y259467D01*
X543347Y259419D01*
X543444Y259368D01*
X543539Y259314D01*
X543632Y259256D01*
X543723Y259195D01*
X543811Y259130D01*
X543898Y259063D01*
X543981Y258992D01*
X544062Y258918D01*
X544141Y258842D01*
X544217Y258763D01*
X544289Y258681D01*
X544359Y258596D01*
X544426Y258509D01*
X544489Y258420D01*
X544550Y258329D01*
X544607Y258235D01*
X544660Y258140D01*
X544710Y258042D01*
X544757Y257943D01*
X544800Y257842D01*
X544839Y257740D01*
X544875Y257636D01*
X540392Y255527D02*
X540322Y255596D01*
X540255Y255668D01*
X540191Y255742D01*
X540129Y255819D01*
X540071Y255898D01*
X540016Y255979D01*
X539964Y256063D01*
X539915Y256148D01*
X539869Y256235D01*
X539827Y256324D01*
X539788Y256414D01*
X539753Y256506D01*
X539721Y256599D01*
X539693Y256693D01*
X539669Y256788D01*
X539648Y256885D01*
X539631Y256981D01*
X539618Y257079D01*
X539609Y257177D01*
X539603Y257275D01*
X539601Y257373D01*
X540392Y255527D02*
X544875Y250254D01*
X539601Y250254D01*
X535875Y250254D02*
X532711Y250254D01*
X532621Y250256D01*
X532532Y250262D01*
X532443Y250271D01*
X532355Y250284D01*
X532267Y250301D01*
X532180Y250322D01*
X532093Y250346D01*
X532008Y250374D01*
X531925Y250406D01*
X531842Y250441D01*
X531762Y250480D01*
X531682Y250522D01*
X531605Y250567D01*
X531530Y250616D01*
X531457Y250667D01*
X531386Y250722D01*
X531318Y250780D01*
X531252Y250840D01*
X531188Y250904D01*
X531128Y250970D01*
X531070Y251038D01*
X531015Y251109D01*
X530964Y251182D01*
X530915Y251257D01*
X530870Y251334D01*
X530828Y251414D01*
X530789Y251494D01*
X530754Y251577D01*
X530722Y251660D01*
X530694Y251745D01*
X530670Y251832D01*
X530649Y251919D01*
X530632Y252007D01*
X530619Y252095D01*
X530610Y252184D01*
X530604Y252273D01*
X530602Y252363D01*
X530601Y252363D02*
X530601Y253418D01*
X530602Y253418D02*
X530604Y253508D01*
X530610Y253597D01*
X530619Y253686D01*
X530632Y253774D01*
X530649Y253862D01*
X530670Y253949D01*
X530694Y254036D01*
X530722Y254121D01*
X530754Y254204D01*
X530789Y254287D01*
X530828Y254367D01*
X530870Y254447D01*
X530915Y254524D01*
X530964Y254599D01*
X531015Y254672D01*
X531070Y254743D01*
X531128Y254811D01*
X531188Y254877D01*
X531252Y254941D01*
X531318Y255001D01*
X531386Y255059D01*
X531457Y255114D01*
X531530Y255165D01*
X531605Y255214D01*
X531682Y255259D01*
X531762Y255301D01*
X531842Y255340D01*
X531925Y255375D01*
X532008Y255407D01*
X532093Y255435D01*
X532180Y255459D01*
X532267Y255480D01*
X532355Y255497D01*
X532443Y255510D01*
X532532Y255519D01*
X532621Y255525D01*
X532711Y255527D01*
X535875Y255527D01*
X535875Y259746D01*
X530601Y259746D01*
D10*
X561284Y284158D02*
X561284Y295842D01*
X588716Y295842D02*
X588716Y284158D01*
X575000Y262822D02*
X574946Y262820D01*
X574892Y262814D01*
X574838Y262805D01*
X574785Y262791D01*
X574734Y262774D01*
X574683Y262753D01*
X574635Y262729D01*
X574588Y262701D01*
X574543Y262670D01*
X574501Y262636D01*
X574461Y262599D01*
X574424Y262559D01*
X574390Y262517D01*
X574359Y262472D01*
X574331Y262425D01*
X574307Y262377D01*
X574286Y262326D01*
X574269Y262275D01*
X574255Y262222D01*
X574246Y262168D01*
X574240Y262114D01*
X574238Y262060D01*
X574240Y262006D01*
X574246Y261952D01*
X574255Y261898D01*
X574269Y261845D01*
X574286Y261794D01*
X574307Y261743D01*
X574331Y261695D01*
X574359Y261648D01*
X574390Y261603D01*
X574424Y261561D01*
X574461Y261521D01*
X574501Y261484D01*
X574543Y261450D01*
X574588Y261419D01*
X574635Y261391D01*
X574683Y261367D01*
X574734Y261346D01*
X574785Y261329D01*
X574838Y261315D01*
X574892Y261306D01*
X574946Y261300D01*
X575000Y261298D01*
X575054Y261300D01*
X575108Y261306D01*
X575162Y261315D01*
X575215Y261329D01*
X575266Y261346D01*
X575317Y261367D01*
X575365Y261391D01*
X575412Y261419D01*
X575457Y261450D01*
X575499Y261484D01*
X575539Y261521D01*
X575576Y261561D01*
X575610Y261603D01*
X575641Y261648D01*
X575669Y261695D01*
X575693Y261743D01*
X575714Y261794D01*
X575731Y261845D01*
X575745Y261898D01*
X575754Y261952D01*
X575760Y262006D01*
X575762Y262060D01*
X575760Y262114D01*
X575754Y262168D01*
X575745Y262222D01*
X575731Y262275D01*
X575714Y262326D01*
X575693Y262377D01*
X575669Y262425D01*
X575641Y262472D01*
X575610Y262517D01*
X575576Y262559D01*
X575539Y262599D01*
X575499Y262636D01*
X575457Y262670D01*
X575412Y262701D01*
X575365Y262729D01*
X575317Y262753D01*
X575266Y262774D01*
X575215Y262791D01*
X575162Y262805D01*
X575108Y262814D01*
X575054Y262820D01*
X575000Y262822D01*
D12*
X583177Y250254D02*
X585287Y250254D01*
X585377Y250256D01*
X585466Y250262D01*
X585555Y250271D01*
X585643Y250284D01*
X585731Y250301D01*
X585818Y250322D01*
X585905Y250346D01*
X585990Y250374D01*
X586073Y250406D01*
X586156Y250441D01*
X586236Y250480D01*
X586316Y250522D01*
X586393Y250567D01*
X586468Y250616D01*
X586541Y250667D01*
X586612Y250722D01*
X586680Y250780D01*
X586746Y250840D01*
X586810Y250904D01*
X586870Y250970D01*
X586928Y251038D01*
X586983Y251109D01*
X587034Y251182D01*
X587083Y251257D01*
X587128Y251334D01*
X587170Y251414D01*
X587209Y251494D01*
X587244Y251577D01*
X587276Y251660D01*
X587304Y251745D01*
X587328Y251832D01*
X587349Y251919D01*
X587366Y252007D01*
X587379Y252095D01*
X587388Y252184D01*
X587394Y252273D01*
X587396Y252363D01*
X587396Y257637D01*
X587394Y257727D01*
X587388Y257816D01*
X587379Y257905D01*
X587366Y257993D01*
X587349Y258081D01*
X587328Y258168D01*
X587304Y258255D01*
X587276Y258340D01*
X587244Y258423D01*
X587209Y258506D01*
X587170Y258586D01*
X587128Y258666D01*
X587083Y258743D01*
X587034Y258818D01*
X586983Y258891D01*
X586928Y258962D01*
X586870Y259030D01*
X586810Y259096D01*
X586746Y259160D01*
X586680Y259220D01*
X586612Y259278D01*
X586541Y259333D01*
X586468Y259384D01*
X586393Y259433D01*
X586316Y259478D01*
X586236Y259520D01*
X586156Y259559D01*
X586073Y259594D01*
X585990Y259626D01*
X585905Y259654D01*
X585818Y259678D01*
X585731Y259699D01*
X585643Y259716D01*
X585555Y259729D01*
X585466Y259738D01*
X585377Y259744D01*
X585287Y259746D01*
X583177Y259746D01*
X576974Y259746D02*
X576878Y259744D01*
X576783Y259738D01*
X576688Y259729D01*
X576593Y259715D01*
X576499Y259698D01*
X576406Y259677D01*
X576314Y259652D01*
X576223Y259624D01*
X576133Y259592D01*
X576044Y259556D01*
X575957Y259517D01*
X575871Y259474D01*
X575788Y259428D01*
X575706Y259379D01*
X575626Y259326D01*
X575548Y259270D01*
X575473Y259211D01*
X575400Y259149D01*
X575330Y259084D01*
X575263Y259017D01*
X575198Y258947D01*
X575136Y258874D01*
X575077Y258799D01*
X575021Y258721D01*
X574968Y258641D01*
X574919Y258560D01*
X574873Y258476D01*
X574830Y258390D01*
X574791Y258303D01*
X574755Y258214D01*
X574723Y258124D01*
X574695Y258033D01*
X574670Y257941D01*
X574649Y257848D01*
X574632Y257754D01*
X574618Y257659D01*
X574609Y257564D01*
X574603Y257469D01*
X574601Y257373D01*
X576974Y259746D02*
X577084Y259744D01*
X577193Y259738D01*
X577302Y259728D01*
X577411Y259715D01*
X577519Y259697D01*
X577626Y259675D01*
X577733Y259650D01*
X577838Y259621D01*
X577943Y259588D01*
X578046Y259551D01*
X578148Y259511D01*
X578248Y259467D01*
X578347Y259419D01*
X578444Y259368D01*
X578539Y259314D01*
X578632Y259256D01*
X578723Y259195D01*
X578811Y259130D01*
X578898Y259063D01*
X578981Y258992D01*
X579062Y258918D01*
X579141Y258842D01*
X579217Y258763D01*
X579289Y258681D01*
X579359Y258596D01*
X579426Y258509D01*
X579489Y258420D01*
X579550Y258329D01*
X579607Y258235D01*
X579660Y258140D01*
X579710Y258042D01*
X579757Y257943D01*
X579800Y257842D01*
X579839Y257740D01*
X579875Y257636D01*
X575392Y255527D02*
X575322Y255596D01*
X575255Y255668D01*
X575191Y255742D01*
X575129Y255819D01*
X575071Y255898D01*
X575016Y255979D01*
X574964Y256063D01*
X574915Y256148D01*
X574869Y256235D01*
X574827Y256324D01*
X574788Y256414D01*
X574753Y256506D01*
X574721Y256599D01*
X574693Y256693D01*
X574669Y256788D01*
X574648Y256885D01*
X574631Y256981D01*
X574618Y257079D01*
X574609Y257177D01*
X574603Y257275D01*
X574601Y257373D01*
X575392Y255527D02*
X579875Y250254D01*
X574601Y250254D01*
X570875Y255527D02*
X567711Y255527D01*
X567621Y255525D01*
X567532Y255519D01*
X567443Y255510D01*
X567355Y255497D01*
X567267Y255480D01*
X567180Y255459D01*
X567093Y255435D01*
X567008Y255407D01*
X566925Y255375D01*
X566842Y255340D01*
X566762Y255301D01*
X566682Y255259D01*
X566605Y255214D01*
X566530Y255165D01*
X566457Y255114D01*
X566386Y255059D01*
X566318Y255001D01*
X566252Y254941D01*
X566188Y254877D01*
X566128Y254811D01*
X566070Y254743D01*
X566015Y254672D01*
X565964Y254599D01*
X565915Y254524D01*
X565870Y254447D01*
X565828Y254367D01*
X565789Y254287D01*
X565754Y254204D01*
X565722Y254121D01*
X565694Y254036D01*
X565670Y253949D01*
X565649Y253862D01*
X565632Y253774D01*
X565619Y253686D01*
X565610Y253597D01*
X565604Y253508D01*
X565602Y253418D01*
X565601Y253418D02*
X565601Y252891D01*
X565603Y252790D01*
X565609Y252689D01*
X565618Y252589D01*
X565632Y252488D01*
X565649Y252389D01*
X565670Y252290D01*
X565695Y252192D01*
X565724Y252095D01*
X565756Y252000D01*
X565792Y251905D01*
X565832Y251812D01*
X565875Y251721D01*
X565921Y251631D01*
X565971Y251543D01*
X566025Y251458D01*
X566081Y251374D01*
X566141Y251292D01*
X566204Y251213D01*
X566269Y251137D01*
X566338Y251062D01*
X566409Y250991D01*
X566484Y250922D01*
X566560Y250857D01*
X566639Y250794D01*
X566721Y250734D01*
X566805Y250678D01*
X566890Y250624D01*
X566978Y250574D01*
X567068Y250528D01*
X567159Y250485D01*
X567252Y250445D01*
X567347Y250409D01*
X567442Y250377D01*
X567539Y250348D01*
X567637Y250323D01*
X567736Y250302D01*
X567835Y250285D01*
X567936Y250271D01*
X568036Y250262D01*
X568137Y250256D01*
X568238Y250254D01*
X568339Y250256D01*
X568440Y250262D01*
X568540Y250271D01*
X568641Y250285D01*
X568740Y250302D01*
X568839Y250323D01*
X568937Y250348D01*
X569034Y250377D01*
X569129Y250409D01*
X569224Y250445D01*
X569317Y250485D01*
X569408Y250528D01*
X569498Y250574D01*
X569586Y250624D01*
X569671Y250678D01*
X569755Y250734D01*
X569837Y250794D01*
X569916Y250857D01*
X569992Y250922D01*
X570067Y250991D01*
X570138Y251062D01*
X570207Y251137D01*
X570272Y251213D01*
X570335Y251292D01*
X570395Y251374D01*
X570451Y251458D01*
X570505Y251543D01*
X570555Y251631D01*
X570601Y251721D01*
X570644Y251812D01*
X570684Y251905D01*
X570720Y252000D01*
X570752Y252095D01*
X570781Y252192D01*
X570806Y252290D01*
X570827Y252389D01*
X570844Y252488D01*
X570858Y252589D01*
X570867Y252689D01*
X570873Y252790D01*
X570875Y252891D01*
X570875Y255527D01*
X570873Y255654D01*
X570867Y255782D01*
X570858Y255909D01*
X570844Y256036D01*
X570827Y256162D01*
X570806Y256287D01*
X570781Y256412D01*
X570752Y256537D01*
X570720Y256660D01*
X570684Y256782D01*
X570644Y256903D01*
X570601Y257023D01*
X570554Y257142D01*
X570503Y257259D01*
X570449Y257374D01*
X570392Y257488D01*
X570331Y257600D01*
X570267Y257710D01*
X570199Y257818D01*
X570128Y257924D01*
X570054Y258027D01*
X569977Y258129D01*
X569897Y258228D01*
X569814Y258325D01*
X569728Y258419D01*
X569639Y258510D01*
X569548Y258599D01*
X569454Y258685D01*
X569357Y258768D01*
X569258Y258848D01*
X569156Y258925D01*
X569053Y258999D01*
X568947Y259070D01*
X568839Y259138D01*
X568729Y259202D01*
X568617Y259263D01*
X568503Y259320D01*
X568388Y259374D01*
X568271Y259425D01*
X568152Y259472D01*
X568032Y259515D01*
X567911Y259555D01*
X567789Y259591D01*
X567666Y259623D01*
X567542Y259652D01*
X567417Y259677D01*
X567291Y259698D01*
X567165Y259715D01*
X567038Y259729D01*
X566911Y259738D01*
X566783Y259744D01*
X566656Y259746D01*
D10*
X483716Y394158D02*
X483716Y405842D01*
X456284Y405842D02*
X456284Y394158D01*
X470000Y427178D02*
X470054Y427180D01*
X470108Y427186D01*
X470162Y427195D01*
X470215Y427209D01*
X470266Y427226D01*
X470317Y427247D01*
X470365Y427271D01*
X470412Y427299D01*
X470457Y427330D01*
X470499Y427364D01*
X470539Y427401D01*
X470576Y427441D01*
X470610Y427483D01*
X470641Y427528D01*
X470669Y427575D01*
X470693Y427623D01*
X470714Y427674D01*
X470731Y427725D01*
X470745Y427778D01*
X470754Y427832D01*
X470760Y427886D01*
X470762Y427940D01*
X470760Y427994D01*
X470754Y428048D01*
X470745Y428102D01*
X470731Y428155D01*
X470714Y428206D01*
X470693Y428257D01*
X470669Y428305D01*
X470641Y428352D01*
X470610Y428397D01*
X470576Y428439D01*
X470539Y428479D01*
X470499Y428516D01*
X470457Y428550D01*
X470412Y428581D01*
X470365Y428609D01*
X470317Y428633D01*
X470266Y428654D01*
X470215Y428671D01*
X470162Y428685D01*
X470108Y428694D01*
X470054Y428700D01*
X470000Y428702D01*
X469946Y428700D01*
X469892Y428694D01*
X469838Y428685D01*
X469785Y428671D01*
X469734Y428654D01*
X469683Y428633D01*
X469635Y428609D01*
X469588Y428581D01*
X469543Y428550D01*
X469501Y428516D01*
X469461Y428479D01*
X469424Y428439D01*
X469390Y428397D01*
X469359Y428352D01*
X469331Y428305D01*
X469307Y428257D01*
X469286Y428206D01*
X469269Y428155D01*
X469255Y428102D01*
X469246Y428048D01*
X469240Y427994D01*
X469238Y427940D01*
X469240Y427886D01*
X469246Y427832D01*
X469255Y427778D01*
X469269Y427725D01*
X469286Y427674D01*
X469307Y427623D01*
X469331Y427575D01*
X469359Y427528D01*
X469390Y427483D01*
X469424Y427441D01*
X469461Y427401D01*
X469501Y427364D01*
X469543Y427330D01*
X469588Y427299D01*
X469635Y427271D01*
X469683Y427247D01*
X469734Y427226D01*
X469785Y427209D01*
X469838Y427195D01*
X469892Y427186D01*
X469946Y427180D01*
X470000Y427178D01*
D12*
X478377Y431254D02*
X480487Y431254D01*
X480577Y431256D01*
X480666Y431262D01*
X480755Y431271D01*
X480843Y431284D01*
X480931Y431301D01*
X481018Y431322D01*
X481105Y431346D01*
X481190Y431374D01*
X481273Y431406D01*
X481356Y431441D01*
X481436Y431480D01*
X481516Y431522D01*
X481593Y431567D01*
X481668Y431616D01*
X481741Y431667D01*
X481812Y431722D01*
X481880Y431780D01*
X481946Y431840D01*
X482010Y431904D01*
X482070Y431970D01*
X482128Y432038D01*
X482183Y432109D01*
X482234Y432182D01*
X482283Y432257D01*
X482328Y432334D01*
X482370Y432414D01*
X482409Y432494D01*
X482444Y432577D01*
X482476Y432660D01*
X482504Y432745D01*
X482528Y432832D01*
X482549Y432919D01*
X482566Y433007D01*
X482579Y433095D01*
X482588Y433184D01*
X482594Y433273D01*
X482596Y433363D01*
X482596Y438637D01*
X482594Y438727D01*
X482588Y438816D01*
X482579Y438905D01*
X482566Y438993D01*
X482549Y439081D01*
X482528Y439168D01*
X482504Y439255D01*
X482476Y439340D01*
X482444Y439423D01*
X482409Y439506D01*
X482370Y439586D01*
X482328Y439666D01*
X482283Y439743D01*
X482234Y439818D01*
X482183Y439891D01*
X482128Y439962D01*
X482070Y440030D01*
X482010Y440096D01*
X481946Y440160D01*
X481880Y440220D01*
X481812Y440278D01*
X481741Y440333D01*
X481668Y440384D01*
X481593Y440433D01*
X481516Y440478D01*
X481436Y440520D01*
X481356Y440559D01*
X481273Y440594D01*
X481190Y440626D01*
X481105Y440654D01*
X481018Y440678D01*
X480931Y440699D01*
X480843Y440716D01*
X480755Y440729D01*
X480666Y440738D01*
X480577Y440744D01*
X480487Y440746D01*
X478377Y440746D01*
X475075Y438637D02*
X472438Y440746D01*
X472438Y431254D01*
X475075Y431254D02*
X469801Y431254D01*
X463965Y435473D02*
X460801Y435473D01*
X463965Y435473D02*
X464055Y435475D01*
X464144Y435481D01*
X464233Y435490D01*
X464321Y435503D01*
X464409Y435520D01*
X464496Y435541D01*
X464583Y435565D01*
X464668Y435593D01*
X464751Y435625D01*
X464834Y435660D01*
X464914Y435699D01*
X464994Y435741D01*
X465071Y435786D01*
X465146Y435835D01*
X465219Y435886D01*
X465290Y435941D01*
X465358Y435999D01*
X465424Y436059D01*
X465488Y436123D01*
X465548Y436189D01*
X465606Y436257D01*
X465661Y436328D01*
X465712Y436401D01*
X465761Y436476D01*
X465806Y436553D01*
X465848Y436633D01*
X465887Y436713D01*
X465922Y436796D01*
X465954Y436879D01*
X465982Y436964D01*
X466006Y437051D01*
X466027Y437138D01*
X466044Y437226D01*
X466057Y437314D01*
X466066Y437403D01*
X466072Y437493D01*
X466074Y437582D01*
X466075Y437582D02*
X466075Y438109D01*
X466073Y438210D01*
X466067Y438311D01*
X466058Y438411D01*
X466044Y438512D01*
X466027Y438611D01*
X466006Y438710D01*
X465981Y438808D01*
X465952Y438905D01*
X465920Y439000D01*
X465884Y439095D01*
X465844Y439188D01*
X465801Y439279D01*
X465755Y439369D01*
X465705Y439457D01*
X465651Y439542D01*
X465595Y439626D01*
X465535Y439708D01*
X465472Y439787D01*
X465407Y439863D01*
X465338Y439938D01*
X465267Y440009D01*
X465192Y440078D01*
X465116Y440143D01*
X465037Y440206D01*
X464955Y440266D01*
X464871Y440322D01*
X464786Y440376D01*
X464698Y440426D01*
X464608Y440472D01*
X464517Y440515D01*
X464424Y440555D01*
X464329Y440591D01*
X464234Y440623D01*
X464137Y440652D01*
X464039Y440677D01*
X463940Y440698D01*
X463841Y440715D01*
X463740Y440729D01*
X463640Y440738D01*
X463539Y440744D01*
X463438Y440746D01*
X463337Y440744D01*
X463236Y440738D01*
X463136Y440729D01*
X463035Y440715D01*
X462936Y440698D01*
X462837Y440677D01*
X462739Y440652D01*
X462642Y440623D01*
X462547Y440591D01*
X462452Y440555D01*
X462359Y440515D01*
X462268Y440472D01*
X462178Y440426D01*
X462090Y440376D01*
X462005Y440322D01*
X461921Y440266D01*
X461839Y440206D01*
X461760Y440143D01*
X461684Y440078D01*
X461609Y440009D01*
X461538Y439938D01*
X461469Y439863D01*
X461404Y439787D01*
X461341Y439708D01*
X461281Y439626D01*
X461225Y439542D01*
X461171Y439457D01*
X461121Y439369D01*
X461075Y439279D01*
X461032Y439188D01*
X460992Y439095D01*
X460956Y439000D01*
X460924Y438905D01*
X460895Y438808D01*
X460870Y438710D01*
X460849Y438611D01*
X460832Y438512D01*
X460818Y438411D01*
X460809Y438311D01*
X460803Y438210D01*
X460801Y438109D01*
X460801Y435473D01*
X460803Y435346D01*
X460809Y435218D01*
X460818Y435091D01*
X460832Y434964D01*
X460849Y434838D01*
X460870Y434713D01*
X460895Y434588D01*
X460924Y434463D01*
X460956Y434340D01*
X460992Y434218D01*
X461032Y434097D01*
X461075Y433977D01*
X461122Y433858D01*
X461173Y433741D01*
X461227Y433626D01*
X461284Y433512D01*
X461345Y433400D01*
X461409Y433290D01*
X461477Y433182D01*
X461548Y433076D01*
X461622Y432973D01*
X461699Y432871D01*
X461779Y432772D01*
X461862Y432675D01*
X461948Y432581D01*
X462037Y432490D01*
X462128Y432401D01*
X462222Y432315D01*
X462319Y432232D01*
X462418Y432152D01*
X462520Y432075D01*
X462623Y432001D01*
X462729Y431930D01*
X462837Y431862D01*
X462947Y431798D01*
X463059Y431737D01*
X463173Y431680D01*
X463288Y431626D01*
X463405Y431575D01*
X463524Y431528D01*
X463644Y431485D01*
X463765Y431445D01*
X463887Y431409D01*
X464010Y431377D01*
X464135Y431348D01*
X464260Y431323D01*
X464385Y431302D01*
X464511Y431285D01*
X464638Y431271D01*
X464765Y431262D01*
X464893Y431256D01*
X465020Y431254D01*
D10*
X518716Y405842D02*
X518716Y394158D01*
X491284Y394158D02*
X491284Y405842D01*
X505000Y427178D02*
X505054Y427180D01*
X505108Y427186D01*
X505162Y427195D01*
X505215Y427209D01*
X505266Y427226D01*
X505317Y427247D01*
X505365Y427271D01*
X505412Y427299D01*
X505457Y427330D01*
X505499Y427364D01*
X505539Y427401D01*
X505576Y427441D01*
X505610Y427483D01*
X505641Y427528D01*
X505669Y427575D01*
X505693Y427623D01*
X505714Y427674D01*
X505731Y427725D01*
X505745Y427778D01*
X505754Y427832D01*
X505760Y427886D01*
X505762Y427940D01*
X505760Y427994D01*
X505754Y428048D01*
X505745Y428102D01*
X505731Y428155D01*
X505714Y428206D01*
X505693Y428257D01*
X505669Y428305D01*
X505641Y428352D01*
X505610Y428397D01*
X505576Y428439D01*
X505539Y428479D01*
X505499Y428516D01*
X505457Y428550D01*
X505412Y428581D01*
X505365Y428609D01*
X505317Y428633D01*
X505266Y428654D01*
X505215Y428671D01*
X505162Y428685D01*
X505108Y428694D01*
X505054Y428700D01*
X505000Y428702D01*
X504946Y428700D01*
X504892Y428694D01*
X504838Y428685D01*
X504785Y428671D01*
X504734Y428654D01*
X504683Y428633D01*
X504635Y428609D01*
X504588Y428581D01*
X504543Y428550D01*
X504501Y428516D01*
X504461Y428479D01*
X504424Y428439D01*
X504390Y428397D01*
X504359Y428352D01*
X504331Y428305D01*
X504307Y428257D01*
X504286Y428206D01*
X504269Y428155D01*
X504255Y428102D01*
X504246Y428048D01*
X504240Y427994D01*
X504238Y427940D01*
X504240Y427886D01*
X504246Y427832D01*
X504255Y427778D01*
X504269Y427725D01*
X504286Y427674D01*
X504307Y427623D01*
X504331Y427575D01*
X504359Y427528D01*
X504390Y427483D01*
X504424Y427441D01*
X504461Y427401D01*
X504501Y427364D01*
X504543Y427330D01*
X504588Y427299D01*
X504635Y427271D01*
X504683Y427247D01*
X504734Y427226D01*
X504785Y427209D01*
X504838Y427195D01*
X504892Y427186D01*
X504946Y427180D01*
X505000Y427178D01*
D12*
X513377Y431254D02*
X515487Y431254D01*
X515577Y431256D01*
X515666Y431262D01*
X515755Y431271D01*
X515843Y431284D01*
X515931Y431301D01*
X516018Y431322D01*
X516105Y431346D01*
X516190Y431374D01*
X516273Y431406D01*
X516356Y431441D01*
X516436Y431480D01*
X516516Y431522D01*
X516593Y431567D01*
X516668Y431616D01*
X516741Y431667D01*
X516812Y431722D01*
X516880Y431780D01*
X516946Y431840D01*
X517010Y431904D01*
X517070Y431970D01*
X517128Y432038D01*
X517183Y432109D01*
X517234Y432182D01*
X517283Y432257D01*
X517328Y432334D01*
X517370Y432414D01*
X517409Y432494D01*
X517444Y432577D01*
X517476Y432660D01*
X517504Y432745D01*
X517528Y432832D01*
X517549Y432919D01*
X517566Y433007D01*
X517579Y433095D01*
X517588Y433184D01*
X517594Y433273D01*
X517596Y433363D01*
X517596Y438637D01*
X517594Y438727D01*
X517588Y438816D01*
X517579Y438905D01*
X517566Y438993D01*
X517549Y439081D01*
X517528Y439168D01*
X517504Y439255D01*
X517476Y439340D01*
X517444Y439423D01*
X517409Y439506D01*
X517370Y439586D01*
X517328Y439666D01*
X517283Y439743D01*
X517234Y439818D01*
X517183Y439891D01*
X517128Y439962D01*
X517070Y440030D01*
X517010Y440096D01*
X516946Y440160D01*
X516880Y440220D01*
X516812Y440278D01*
X516741Y440333D01*
X516668Y440384D01*
X516593Y440433D01*
X516516Y440478D01*
X516436Y440520D01*
X516356Y440559D01*
X516273Y440594D01*
X516190Y440626D01*
X516105Y440654D01*
X516018Y440678D01*
X515931Y440699D01*
X515843Y440716D01*
X515755Y440729D01*
X515666Y440738D01*
X515577Y440744D01*
X515487Y440746D01*
X513377Y440746D01*
X507174Y440746D02*
X507078Y440744D01*
X506983Y440738D01*
X506888Y440729D01*
X506793Y440715D01*
X506699Y440698D01*
X506606Y440677D01*
X506514Y440652D01*
X506423Y440624D01*
X506333Y440592D01*
X506244Y440556D01*
X506157Y440517D01*
X506071Y440474D01*
X505988Y440428D01*
X505906Y440379D01*
X505826Y440326D01*
X505748Y440270D01*
X505673Y440211D01*
X505600Y440149D01*
X505530Y440084D01*
X505463Y440017D01*
X505398Y439947D01*
X505336Y439874D01*
X505277Y439799D01*
X505221Y439721D01*
X505168Y439641D01*
X505119Y439560D01*
X505073Y439476D01*
X505030Y439390D01*
X504991Y439303D01*
X504955Y439214D01*
X504923Y439124D01*
X504895Y439033D01*
X504870Y438941D01*
X504849Y438848D01*
X504832Y438754D01*
X504818Y438659D01*
X504809Y438564D01*
X504803Y438469D01*
X504801Y438373D01*
X507174Y440746D02*
X507284Y440744D01*
X507393Y440738D01*
X507502Y440728D01*
X507611Y440715D01*
X507719Y440697D01*
X507826Y440675D01*
X507933Y440650D01*
X508038Y440621D01*
X508143Y440588D01*
X508246Y440551D01*
X508348Y440511D01*
X508448Y440467D01*
X508547Y440419D01*
X508644Y440368D01*
X508739Y440314D01*
X508832Y440256D01*
X508923Y440195D01*
X509011Y440130D01*
X509098Y440063D01*
X509181Y439992D01*
X509262Y439918D01*
X509341Y439842D01*
X509417Y439763D01*
X509489Y439681D01*
X509559Y439596D01*
X509626Y439509D01*
X509689Y439420D01*
X509750Y439329D01*
X509807Y439235D01*
X509860Y439140D01*
X509910Y439042D01*
X509957Y438943D01*
X510000Y438842D01*
X510039Y438740D01*
X510075Y438636D01*
X505592Y436527D02*
X505522Y436596D01*
X505455Y436668D01*
X505391Y436742D01*
X505329Y436819D01*
X505271Y436898D01*
X505216Y436979D01*
X505164Y437063D01*
X505115Y437148D01*
X505069Y437235D01*
X505027Y437324D01*
X504988Y437414D01*
X504953Y437506D01*
X504921Y437599D01*
X504893Y437693D01*
X504869Y437788D01*
X504848Y437885D01*
X504831Y437981D01*
X504818Y438079D01*
X504809Y438177D01*
X504803Y438275D01*
X504801Y438373D01*
X505592Y436527D02*
X510075Y431254D01*
X504801Y431254D01*
X501075Y436000D02*
X501073Y436187D01*
X501066Y436373D01*
X501055Y436560D01*
X501039Y436746D01*
X501019Y436931D01*
X500995Y437117D01*
X500966Y437301D01*
X500933Y437485D01*
X500895Y437668D01*
X500853Y437850D01*
X500807Y438031D01*
X500756Y438210D01*
X500701Y438389D01*
X500642Y438566D01*
X500579Y438742D01*
X500511Y438916D01*
X500440Y439088D01*
X500364Y439259D01*
X500284Y439428D01*
X500254Y439509D01*
X500220Y439589D01*
X500183Y439667D01*
X500143Y439743D01*
X500099Y439818D01*
X500053Y439890D01*
X500002Y439961D01*
X499949Y440029D01*
X499893Y440095D01*
X499834Y440158D01*
X499772Y440218D01*
X499708Y440276D01*
X499641Y440331D01*
X499572Y440383D01*
X499501Y440431D01*
X499427Y440477D01*
X499352Y440519D01*
X499274Y440558D01*
X499195Y440593D01*
X499115Y440625D01*
X499033Y440653D01*
X498951Y440677D01*
X498867Y440698D01*
X498782Y440715D01*
X498697Y440729D01*
X498611Y440738D01*
X498524Y440744D01*
X498438Y440746D01*
X498352Y440744D01*
X498265Y440738D01*
X498179Y440729D01*
X498094Y440715D01*
X498009Y440698D01*
X497925Y440677D01*
X497843Y440653D01*
X497761Y440625D01*
X497681Y440593D01*
X497602Y440558D01*
X497524Y440519D01*
X497449Y440477D01*
X497375Y440431D01*
X497304Y440383D01*
X497235Y440331D01*
X497168Y440276D01*
X497104Y440218D01*
X497042Y440158D01*
X496983Y440095D01*
X496927Y440029D01*
X496874Y439961D01*
X496824Y439890D01*
X496777Y439818D01*
X496733Y439743D01*
X496693Y439667D01*
X496656Y439589D01*
X496622Y439509D01*
X496592Y439428D01*
X496512Y439259D01*
X496436Y439088D01*
X496365Y438916D01*
X496297Y438742D01*
X496234Y438566D01*
X496175Y438389D01*
X496120Y438210D01*
X496069Y438031D01*
X496023Y437850D01*
X495981Y437668D01*
X495943Y437485D01*
X495910Y437301D01*
X495881Y437117D01*
X495857Y436931D01*
X495837Y436746D01*
X495821Y436560D01*
X495810Y436373D01*
X495803Y436187D01*
X495801Y436000D01*
X501074Y436000D02*
X501072Y435813D01*
X501065Y435627D01*
X501054Y435440D01*
X501038Y435254D01*
X501018Y435069D01*
X500994Y434883D01*
X500965Y434699D01*
X500932Y434515D01*
X500894Y434332D01*
X500852Y434150D01*
X500806Y433969D01*
X500755Y433790D01*
X500700Y433611D01*
X500641Y433434D01*
X500578Y433258D01*
X500510Y433084D01*
X500439Y432912D01*
X500363Y432741D01*
X500283Y432572D01*
X500284Y432572D02*
X500254Y432491D01*
X500220Y432411D01*
X500183Y432333D01*
X500143Y432257D01*
X500099Y432182D01*
X500052Y432110D01*
X500002Y432039D01*
X499949Y431971D01*
X499893Y431905D01*
X499834Y431842D01*
X499772Y431782D01*
X499708Y431724D01*
X499641Y431669D01*
X499572Y431617D01*
X499501Y431569D01*
X499427Y431523D01*
X499352Y431481D01*
X499274Y431442D01*
X499195Y431407D01*
X499115Y431375D01*
X499033Y431347D01*
X498951Y431323D01*
X498867Y431302D01*
X498782Y431285D01*
X498697Y431271D01*
X498611Y431262D01*
X498524Y431256D01*
X498438Y431254D01*
X496593Y432572D02*
X496513Y432741D01*
X496437Y432912D01*
X496366Y433084D01*
X496298Y433258D01*
X496235Y433434D01*
X496176Y433611D01*
X496121Y433790D01*
X496070Y433969D01*
X496024Y434150D01*
X495982Y434332D01*
X495944Y434515D01*
X495911Y434699D01*
X495882Y434883D01*
X495858Y435069D01*
X495838Y435254D01*
X495822Y435440D01*
X495811Y435627D01*
X495804Y435813D01*
X495802Y436000D01*
X496592Y432572D02*
X496622Y432491D01*
X496656Y432411D01*
X496693Y432333D01*
X496733Y432257D01*
X496777Y432182D01*
X496824Y432110D01*
X496874Y432039D01*
X496927Y431971D01*
X496983Y431905D01*
X497042Y431842D01*
X497104Y431782D01*
X497168Y431724D01*
X497235Y431669D01*
X497304Y431617D01*
X497375Y431569D01*
X497449Y431523D01*
X497524Y431481D01*
X497602Y431442D01*
X497681Y431407D01*
X497761Y431375D01*
X497843Y431347D01*
X497925Y431323D01*
X498009Y431302D01*
X498094Y431285D01*
X498179Y431271D01*
X498265Y431262D01*
X498352Y431256D01*
X498438Y431254D01*
X500547Y433363D02*
X496329Y438637D01*
D10*
X553716Y405842D02*
X553716Y394158D01*
X526284Y394158D02*
X526284Y405842D01*
X540000Y427178D02*
X540054Y427180D01*
X540108Y427186D01*
X540162Y427195D01*
X540215Y427209D01*
X540266Y427226D01*
X540317Y427247D01*
X540365Y427271D01*
X540412Y427299D01*
X540457Y427330D01*
X540499Y427364D01*
X540539Y427401D01*
X540576Y427441D01*
X540610Y427483D01*
X540641Y427528D01*
X540669Y427575D01*
X540693Y427623D01*
X540714Y427674D01*
X540731Y427725D01*
X540745Y427778D01*
X540754Y427832D01*
X540760Y427886D01*
X540762Y427940D01*
X540760Y427994D01*
X540754Y428048D01*
X540745Y428102D01*
X540731Y428155D01*
X540714Y428206D01*
X540693Y428257D01*
X540669Y428305D01*
X540641Y428352D01*
X540610Y428397D01*
X540576Y428439D01*
X540539Y428479D01*
X540499Y428516D01*
X540457Y428550D01*
X540412Y428581D01*
X540365Y428609D01*
X540317Y428633D01*
X540266Y428654D01*
X540215Y428671D01*
X540162Y428685D01*
X540108Y428694D01*
X540054Y428700D01*
X540000Y428702D01*
X539946Y428700D01*
X539892Y428694D01*
X539838Y428685D01*
X539785Y428671D01*
X539734Y428654D01*
X539683Y428633D01*
X539635Y428609D01*
X539588Y428581D01*
X539543Y428550D01*
X539501Y428516D01*
X539461Y428479D01*
X539424Y428439D01*
X539390Y428397D01*
X539359Y428352D01*
X539331Y428305D01*
X539307Y428257D01*
X539286Y428206D01*
X539269Y428155D01*
X539255Y428102D01*
X539246Y428048D01*
X539240Y427994D01*
X539238Y427940D01*
X539240Y427886D01*
X539246Y427832D01*
X539255Y427778D01*
X539269Y427725D01*
X539286Y427674D01*
X539307Y427623D01*
X539331Y427575D01*
X539359Y427528D01*
X539390Y427483D01*
X539424Y427441D01*
X539461Y427401D01*
X539501Y427364D01*
X539543Y427330D01*
X539588Y427299D01*
X539635Y427271D01*
X539683Y427247D01*
X539734Y427226D01*
X539785Y427209D01*
X539838Y427195D01*
X539892Y427186D01*
X539946Y427180D01*
X540000Y427178D01*
D12*
X548377Y431254D02*
X550487Y431254D01*
X550577Y431256D01*
X550666Y431262D01*
X550755Y431271D01*
X550843Y431284D01*
X550931Y431301D01*
X551018Y431322D01*
X551105Y431346D01*
X551190Y431374D01*
X551273Y431406D01*
X551356Y431441D01*
X551436Y431480D01*
X551516Y431522D01*
X551593Y431567D01*
X551668Y431616D01*
X551741Y431667D01*
X551812Y431722D01*
X551880Y431780D01*
X551946Y431840D01*
X552010Y431904D01*
X552070Y431970D01*
X552128Y432038D01*
X552183Y432109D01*
X552234Y432182D01*
X552283Y432257D01*
X552328Y432334D01*
X552370Y432414D01*
X552409Y432494D01*
X552444Y432577D01*
X552476Y432660D01*
X552504Y432745D01*
X552528Y432832D01*
X552549Y432919D01*
X552566Y433007D01*
X552579Y433095D01*
X552588Y433184D01*
X552594Y433273D01*
X552596Y433363D01*
X552596Y438637D01*
X552594Y438727D01*
X552588Y438816D01*
X552579Y438905D01*
X552566Y438993D01*
X552549Y439081D01*
X552528Y439168D01*
X552504Y439255D01*
X552476Y439340D01*
X552444Y439423D01*
X552409Y439506D01*
X552370Y439586D01*
X552328Y439666D01*
X552283Y439743D01*
X552234Y439818D01*
X552183Y439891D01*
X552128Y439962D01*
X552070Y440030D01*
X552010Y440096D01*
X551946Y440160D01*
X551880Y440220D01*
X551812Y440278D01*
X551741Y440333D01*
X551668Y440384D01*
X551593Y440433D01*
X551516Y440478D01*
X551436Y440520D01*
X551356Y440559D01*
X551273Y440594D01*
X551190Y440626D01*
X551105Y440654D01*
X551018Y440678D01*
X550931Y440699D01*
X550843Y440716D01*
X550755Y440729D01*
X550666Y440738D01*
X550577Y440744D01*
X550487Y440746D01*
X548377Y440746D01*
X542174Y440746D02*
X542078Y440744D01*
X541983Y440738D01*
X541888Y440729D01*
X541793Y440715D01*
X541699Y440698D01*
X541606Y440677D01*
X541514Y440652D01*
X541423Y440624D01*
X541333Y440592D01*
X541244Y440556D01*
X541157Y440517D01*
X541071Y440474D01*
X540988Y440428D01*
X540906Y440379D01*
X540826Y440326D01*
X540748Y440270D01*
X540673Y440211D01*
X540600Y440149D01*
X540530Y440084D01*
X540463Y440017D01*
X540398Y439947D01*
X540336Y439874D01*
X540277Y439799D01*
X540221Y439721D01*
X540168Y439641D01*
X540119Y439560D01*
X540073Y439476D01*
X540030Y439390D01*
X539991Y439303D01*
X539955Y439214D01*
X539923Y439124D01*
X539895Y439033D01*
X539870Y438941D01*
X539849Y438848D01*
X539832Y438754D01*
X539818Y438659D01*
X539809Y438564D01*
X539803Y438469D01*
X539801Y438373D01*
X542174Y440746D02*
X542284Y440744D01*
X542393Y440738D01*
X542502Y440728D01*
X542611Y440715D01*
X542719Y440697D01*
X542826Y440675D01*
X542933Y440650D01*
X543038Y440621D01*
X543143Y440588D01*
X543246Y440551D01*
X543348Y440511D01*
X543448Y440467D01*
X543547Y440419D01*
X543644Y440368D01*
X543739Y440314D01*
X543832Y440256D01*
X543923Y440195D01*
X544011Y440130D01*
X544098Y440063D01*
X544181Y439992D01*
X544262Y439918D01*
X544341Y439842D01*
X544417Y439763D01*
X544489Y439681D01*
X544559Y439596D01*
X544626Y439509D01*
X544689Y439420D01*
X544750Y439329D01*
X544807Y439235D01*
X544860Y439140D01*
X544910Y439042D01*
X544957Y438943D01*
X545000Y438842D01*
X545039Y438740D01*
X545075Y438636D01*
X540592Y436527D02*
X540522Y436596D01*
X540455Y436668D01*
X540391Y436742D01*
X540329Y436819D01*
X540271Y436898D01*
X540216Y436979D01*
X540164Y437063D01*
X540115Y437148D01*
X540069Y437235D01*
X540027Y437324D01*
X539988Y437414D01*
X539953Y437506D01*
X539921Y437599D01*
X539893Y437693D01*
X539869Y437788D01*
X539848Y437885D01*
X539831Y437981D01*
X539818Y438079D01*
X539809Y438177D01*
X539803Y438275D01*
X539801Y438373D01*
X540592Y436527D02*
X545075Y431254D01*
X539801Y431254D01*
X536075Y438637D02*
X533438Y440746D01*
X533438Y431254D01*
X536075Y431254D02*
X530801Y431254D01*
D10*
X588716Y405842D02*
X588716Y394158D01*
X561284Y394158D02*
X561284Y405842D01*
X575000Y427178D02*
X575054Y427180D01*
X575108Y427186D01*
X575162Y427195D01*
X575215Y427209D01*
X575266Y427226D01*
X575317Y427247D01*
X575365Y427271D01*
X575412Y427299D01*
X575457Y427330D01*
X575499Y427364D01*
X575539Y427401D01*
X575576Y427441D01*
X575610Y427483D01*
X575641Y427528D01*
X575669Y427575D01*
X575693Y427623D01*
X575714Y427674D01*
X575731Y427725D01*
X575745Y427778D01*
X575754Y427832D01*
X575760Y427886D01*
X575762Y427940D01*
X575760Y427994D01*
X575754Y428048D01*
X575745Y428102D01*
X575731Y428155D01*
X575714Y428206D01*
X575693Y428257D01*
X575669Y428305D01*
X575641Y428352D01*
X575610Y428397D01*
X575576Y428439D01*
X575539Y428479D01*
X575499Y428516D01*
X575457Y428550D01*
X575412Y428581D01*
X575365Y428609D01*
X575317Y428633D01*
X575266Y428654D01*
X575215Y428671D01*
X575162Y428685D01*
X575108Y428694D01*
X575054Y428700D01*
X575000Y428702D01*
X574946Y428700D01*
X574892Y428694D01*
X574838Y428685D01*
X574785Y428671D01*
X574734Y428654D01*
X574683Y428633D01*
X574635Y428609D01*
X574588Y428581D01*
X574543Y428550D01*
X574501Y428516D01*
X574461Y428479D01*
X574424Y428439D01*
X574390Y428397D01*
X574359Y428352D01*
X574331Y428305D01*
X574307Y428257D01*
X574286Y428206D01*
X574269Y428155D01*
X574255Y428102D01*
X574246Y428048D01*
X574240Y427994D01*
X574238Y427940D01*
X574240Y427886D01*
X574246Y427832D01*
X574255Y427778D01*
X574269Y427725D01*
X574286Y427674D01*
X574307Y427623D01*
X574331Y427575D01*
X574359Y427528D01*
X574390Y427483D01*
X574424Y427441D01*
X574461Y427401D01*
X574501Y427364D01*
X574543Y427330D01*
X574588Y427299D01*
X574635Y427271D01*
X574683Y427247D01*
X574734Y427226D01*
X574785Y427209D01*
X574838Y427195D01*
X574892Y427186D01*
X574946Y427180D01*
X575000Y427178D01*
D12*
X583377Y431254D02*
X585487Y431254D01*
X585577Y431256D01*
X585666Y431262D01*
X585755Y431271D01*
X585843Y431284D01*
X585931Y431301D01*
X586018Y431322D01*
X586105Y431346D01*
X586190Y431374D01*
X586273Y431406D01*
X586356Y431441D01*
X586436Y431480D01*
X586516Y431522D01*
X586593Y431567D01*
X586668Y431616D01*
X586741Y431667D01*
X586812Y431722D01*
X586880Y431780D01*
X586946Y431840D01*
X587010Y431904D01*
X587070Y431970D01*
X587128Y432038D01*
X587183Y432109D01*
X587234Y432182D01*
X587283Y432257D01*
X587328Y432334D01*
X587370Y432414D01*
X587409Y432494D01*
X587444Y432577D01*
X587476Y432660D01*
X587504Y432745D01*
X587528Y432832D01*
X587549Y432919D01*
X587566Y433007D01*
X587579Y433095D01*
X587588Y433184D01*
X587594Y433273D01*
X587596Y433363D01*
X587596Y438637D01*
X587594Y438727D01*
X587588Y438816D01*
X587579Y438905D01*
X587566Y438993D01*
X587549Y439081D01*
X587528Y439168D01*
X587504Y439255D01*
X587476Y439340D01*
X587444Y439423D01*
X587409Y439506D01*
X587370Y439586D01*
X587328Y439666D01*
X587283Y439743D01*
X587234Y439818D01*
X587183Y439891D01*
X587128Y439962D01*
X587070Y440030D01*
X587010Y440096D01*
X586946Y440160D01*
X586880Y440220D01*
X586812Y440278D01*
X586741Y440333D01*
X586668Y440384D01*
X586593Y440433D01*
X586516Y440478D01*
X586436Y440520D01*
X586356Y440559D01*
X586273Y440594D01*
X586190Y440626D01*
X586105Y440654D01*
X586018Y440678D01*
X585931Y440699D01*
X585843Y440716D01*
X585755Y440729D01*
X585666Y440738D01*
X585577Y440744D01*
X585487Y440746D01*
X583377Y440746D01*
X577174Y440746D02*
X577078Y440744D01*
X576983Y440738D01*
X576888Y440729D01*
X576793Y440715D01*
X576699Y440698D01*
X576606Y440677D01*
X576514Y440652D01*
X576423Y440624D01*
X576333Y440592D01*
X576244Y440556D01*
X576157Y440517D01*
X576071Y440474D01*
X575988Y440428D01*
X575906Y440379D01*
X575826Y440326D01*
X575748Y440270D01*
X575673Y440211D01*
X575600Y440149D01*
X575530Y440084D01*
X575463Y440017D01*
X575398Y439947D01*
X575336Y439874D01*
X575277Y439799D01*
X575221Y439721D01*
X575168Y439641D01*
X575119Y439560D01*
X575073Y439476D01*
X575030Y439390D01*
X574991Y439303D01*
X574955Y439214D01*
X574923Y439124D01*
X574895Y439033D01*
X574870Y438941D01*
X574849Y438848D01*
X574832Y438754D01*
X574818Y438659D01*
X574809Y438564D01*
X574803Y438469D01*
X574801Y438373D01*
X577174Y440746D02*
X577284Y440744D01*
X577393Y440738D01*
X577502Y440728D01*
X577611Y440715D01*
X577719Y440697D01*
X577826Y440675D01*
X577933Y440650D01*
X578038Y440621D01*
X578143Y440588D01*
X578246Y440551D01*
X578348Y440511D01*
X578448Y440467D01*
X578547Y440419D01*
X578644Y440368D01*
X578739Y440314D01*
X578832Y440256D01*
X578923Y440195D01*
X579011Y440130D01*
X579098Y440063D01*
X579181Y439992D01*
X579262Y439918D01*
X579341Y439842D01*
X579417Y439763D01*
X579489Y439681D01*
X579559Y439596D01*
X579626Y439509D01*
X579689Y439420D01*
X579750Y439329D01*
X579807Y439235D01*
X579860Y439140D01*
X579910Y439042D01*
X579957Y438943D01*
X580000Y438842D01*
X580039Y438740D01*
X580075Y438636D01*
X575592Y436527D02*
X575522Y436596D01*
X575455Y436668D01*
X575391Y436742D01*
X575329Y436819D01*
X575271Y436898D01*
X575216Y436979D01*
X575164Y437063D01*
X575115Y437148D01*
X575069Y437235D01*
X575027Y437324D01*
X574988Y437414D01*
X574953Y437506D01*
X574921Y437599D01*
X574893Y437693D01*
X574869Y437788D01*
X574848Y437885D01*
X574831Y437981D01*
X574818Y438079D01*
X574809Y438177D01*
X574803Y438275D01*
X574801Y438373D01*
X575592Y436527D02*
X580075Y431254D01*
X574801Y431254D01*
X565801Y438373D02*
X565803Y438469D01*
X565809Y438564D01*
X565818Y438659D01*
X565832Y438754D01*
X565849Y438848D01*
X565870Y438941D01*
X565895Y439033D01*
X565923Y439124D01*
X565955Y439214D01*
X565991Y439303D01*
X566030Y439390D01*
X566073Y439476D01*
X566119Y439560D01*
X566168Y439641D01*
X566221Y439721D01*
X566277Y439799D01*
X566336Y439874D01*
X566398Y439947D01*
X566463Y440017D01*
X566530Y440084D01*
X566600Y440149D01*
X566673Y440211D01*
X566748Y440270D01*
X566826Y440326D01*
X566906Y440379D01*
X566988Y440428D01*
X567071Y440474D01*
X567157Y440517D01*
X567244Y440556D01*
X567333Y440592D01*
X567423Y440624D01*
X567514Y440652D01*
X567606Y440677D01*
X567699Y440698D01*
X567793Y440715D01*
X567888Y440729D01*
X567983Y440738D01*
X568078Y440744D01*
X568174Y440746D01*
X568284Y440744D01*
X568393Y440738D01*
X568502Y440728D01*
X568611Y440715D01*
X568719Y440697D01*
X568826Y440675D01*
X568933Y440650D01*
X569038Y440621D01*
X569143Y440588D01*
X569246Y440551D01*
X569348Y440511D01*
X569448Y440467D01*
X569547Y440419D01*
X569644Y440368D01*
X569739Y440314D01*
X569832Y440256D01*
X569923Y440195D01*
X570011Y440130D01*
X570098Y440063D01*
X570181Y439992D01*
X570262Y439918D01*
X570341Y439842D01*
X570417Y439763D01*
X570489Y439681D01*
X570559Y439596D01*
X570626Y439509D01*
X570689Y439420D01*
X570750Y439329D01*
X570807Y439235D01*
X570860Y439140D01*
X570910Y439042D01*
X570957Y438943D01*
X571000Y438842D01*
X571039Y438740D01*
X571075Y438636D01*
X566592Y436527D02*
X566522Y436596D01*
X566455Y436668D01*
X566391Y436742D01*
X566329Y436819D01*
X566271Y436898D01*
X566216Y436979D01*
X566164Y437063D01*
X566115Y437148D01*
X566069Y437235D01*
X566027Y437324D01*
X565988Y437414D01*
X565953Y437506D01*
X565921Y437599D01*
X565893Y437693D01*
X565869Y437788D01*
X565848Y437885D01*
X565831Y437981D01*
X565818Y438079D01*
X565809Y438177D01*
X565803Y438275D01*
X565801Y438373D01*
X566592Y436527D02*
X571075Y431254D01*
X565801Y431254D01*
M02*
