G04 EAGLE Gerber RS-274X export*
G75*
%MOMM*%
%FSLAX34Y34*%
%LPD*%
%INSilkscreen Bottom*%
%IPPOS*%
%AMOC8*
5,1,8,0,0,1.08239X$1,22.5*%
G01*
%ADD10C,0.152400*%
%ADD11C,0.076200*%
%ADD12C,0.050800*%


D10*
X249158Y754416D02*
X260842Y754416D01*
X260842Y726984D02*
X249158Y726984D01*
X227822Y740700D02*
X227820Y740754D01*
X227814Y740808D01*
X227805Y740862D01*
X227791Y740915D01*
X227774Y740966D01*
X227753Y741017D01*
X227729Y741065D01*
X227701Y741112D01*
X227670Y741157D01*
X227636Y741199D01*
X227599Y741239D01*
X227559Y741276D01*
X227517Y741310D01*
X227472Y741341D01*
X227425Y741369D01*
X227377Y741393D01*
X227326Y741414D01*
X227275Y741431D01*
X227222Y741445D01*
X227168Y741454D01*
X227114Y741460D01*
X227060Y741462D01*
X227006Y741460D01*
X226952Y741454D01*
X226898Y741445D01*
X226845Y741431D01*
X226794Y741414D01*
X226743Y741393D01*
X226695Y741369D01*
X226648Y741341D01*
X226603Y741310D01*
X226561Y741276D01*
X226521Y741239D01*
X226484Y741199D01*
X226450Y741157D01*
X226419Y741112D01*
X226391Y741065D01*
X226367Y741017D01*
X226346Y740966D01*
X226329Y740915D01*
X226315Y740862D01*
X226306Y740808D01*
X226300Y740754D01*
X226298Y740700D01*
X226300Y740646D01*
X226306Y740592D01*
X226315Y740538D01*
X226329Y740485D01*
X226346Y740434D01*
X226367Y740383D01*
X226391Y740335D01*
X226419Y740288D01*
X226450Y740243D01*
X226484Y740201D01*
X226521Y740161D01*
X226561Y740124D01*
X226603Y740090D01*
X226648Y740059D01*
X226695Y740031D01*
X226743Y740007D01*
X226794Y739986D01*
X226845Y739969D01*
X226898Y739955D01*
X226952Y739946D01*
X227006Y739940D01*
X227060Y739938D01*
X227114Y739940D01*
X227168Y739946D01*
X227222Y739955D01*
X227275Y739969D01*
X227326Y739986D01*
X227377Y740007D01*
X227425Y740031D01*
X227472Y740059D01*
X227517Y740090D01*
X227559Y740124D01*
X227599Y740161D01*
X227636Y740201D01*
X227670Y740243D01*
X227701Y740288D01*
X227729Y740335D01*
X227753Y740383D01*
X227774Y740434D01*
X227791Y740485D01*
X227805Y740538D01*
X227814Y740592D01*
X227820Y740646D01*
X227822Y740700D01*
D11*
X221966Y734431D02*
X219313Y734431D01*
X221966Y734431D02*
X222068Y734433D01*
X222169Y734439D01*
X222270Y734449D01*
X222371Y734462D01*
X222471Y734480D01*
X222570Y734501D01*
X222669Y734526D01*
X222766Y734555D01*
X222863Y734587D01*
X222958Y734623D01*
X223051Y734663D01*
X223143Y734706D01*
X223233Y734753D01*
X223322Y734804D01*
X223408Y734857D01*
X223492Y734914D01*
X223574Y734974D01*
X223654Y735037D01*
X223731Y735103D01*
X223806Y735172D01*
X223878Y735244D01*
X223947Y735319D01*
X224013Y735396D01*
X224076Y735476D01*
X224136Y735558D01*
X224193Y735642D01*
X224246Y735728D01*
X224297Y735817D01*
X224344Y735907D01*
X224387Y735999D01*
X224427Y736092D01*
X224463Y736187D01*
X224495Y736284D01*
X224524Y736381D01*
X224549Y736480D01*
X224570Y736579D01*
X224588Y736679D01*
X224601Y736780D01*
X224611Y736881D01*
X224617Y736982D01*
X224619Y737084D01*
X224619Y743716D01*
X224617Y743818D01*
X224611Y743919D01*
X224601Y744020D01*
X224588Y744121D01*
X224570Y744221D01*
X224549Y744320D01*
X224524Y744419D01*
X224495Y744516D01*
X224463Y744613D01*
X224427Y744708D01*
X224387Y744801D01*
X224344Y744893D01*
X224297Y744983D01*
X224246Y745072D01*
X224193Y745158D01*
X224136Y745242D01*
X224076Y745324D01*
X224013Y745404D01*
X223947Y745481D01*
X223878Y745556D01*
X223806Y745628D01*
X223731Y745697D01*
X223654Y745763D01*
X223574Y745826D01*
X223492Y745886D01*
X223408Y745943D01*
X223322Y745996D01*
X223233Y746047D01*
X223143Y746094D01*
X223051Y746137D01*
X222958Y746177D01*
X222863Y746213D01*
X222766Y746245D01*
X222669Y746274D01*
X222570Y746299D01*
X222471Y746320D01*
X222371Y746338D01*
X222270Y746351D01*
X222169Y746361D01*
X222068Y746367D01*
X221966Y746369D01*
X219313Y746369D01*
X215065Y743716D02*
X211749Y746369D01*
X211749Y734431D01*
X215065Y734431D02*
X208433Y734431D01*
X203635Y741063D02*
X199656Y741063D01*
X199554Y741061D01*
X199453Y741055D01*
X199352Y741045D01*
X199251Y741032D01*
X199151Y741014D01*
X199052Y740993D01*
X198953Y740968D01*
X198856Y740939D01*
X198759Y740907D01*
X198664Y740871D01*
X198571Y740831D01*
X198479Y740788D01*
X198389Y740741D01*
X198300Y740690D01*
X198214Y740637D01*
X198130Y740580D01*
X198048Y740520D01*
X197968Y740457D01*
X197891Y740391D01*
X197816Y740322D01*
X197744Y740250D01*
X197675Y740175D01*
X197609Y740098D01*
X197546Y740018D01*
X197486Y739936D01*
X197429Y739852D01*
X197376Y739766D01*
X197325Y739677D01*
X197278Y739587D01*
X197235Y739495D01*
X197195Y739402D01*
X197159Y739307D01*
X197127Y739210D01*
X197098Y739113D01*
X197073Y739015D01*
X197052Y738915D01*
X197034Y738815D01*
X197021Y738714D01*
X197011Y738613D01*
X197005Y738512D01*
X197003Y738410D01*
X197003Y737747D01*
X197005Y737633D01*
X197011Y737518D01*
X197021Y737404D01*
X197035Y737291D01*
X197052Y737177D01*
X197074Y737065D01*
X197099Y736953D01*
X197129Y736843D01*
X197162Y736733D01*
X197199Y736625D01*
X197239Y736518D01*
X197284Y736412D01*
X197331Y736308D01*
X197383Y736206D01*
X197438Y736106D01*
X197496Y736007D01*
X197558Y735911D01*
X197623Y735816D01*
X197691Y735725D01*
X197763Y735635D01*
X197837Y735548D01*
X197914Y735464D01*
X197995Y735382D01*
X198078Y735303D01*
X198163Y735227D01*
X198252Y735154D01*
X198342Y735085D01*
X198435Y735018D01*
X198531Y734955D01*
X198628Y734895D01*
X198728Y734838D01*
X198829Y734785D01*
X198932Y734735D01*
X199037Y734689D01*
X199143Y734646D01*
X199251Y734608D01*
X199360Y734573D01*
X199470Y734542D01*
X199581Y734514D01*
X199693Y734491D01*
X199806Y734471D01*
X199919Y734455D01*
X200033Y734443D01*
X200147Y734435D01*
X200262Y734431D01*
X200376Y734431D01*
X200491Y734435D01*
X200605Y734443D01*
X200719Y734455D01*
X200832Y734471D01*
X200945Y734491D01*
X201057Y734514D01*
X201168Y734542D01*
X201278Y734573D01*
X201387Y734608D01*
X201495Y734646D01*
X201601Y734689D01*
X201706Y734735D01*
X201809Y734785D01*
X201910Y734838D01*
X202010Y734895D01*
X202107Y734955D01*
X202203Y735018D01*
X202296Y735085D01*
X202386Y735154D01*
X202475Y735227D01*
X202560Y735303D01*
X202643Y735382D01*
X202724Y735464D01*
X202801Y735548D01*
X202875Y735635D01*
X202947Y735725D01*
X203015Y735816D01*
X203080Y735911D01*
X203142Y736007D01*
X203200Y736106D01*
X203255Y736206D01*
X203307Y736308D01*
X203354Y736412D01*
X203399Y736518D01*
X203439Y736625D01*
X203476Y736733D01*
X203509Y736843D01*
X203539Y736953D01*
X203564Y737065D01*
X203586Y737177D01*
X203603Y737291D01*
X203617Y737404D01*
X203627Y737518D01*
X203633Y737633D01*
X203635Y737747D01*
X203635Y741063D01*
X203633Y741207D01*
X203627Y741350D01*
X203617Y741494D01*
X203604Y741637D01*
X203586Y741779D01*
X203565Y741921D01*
X203540Y742063D01*
X203511Y742204D01*
X203478Y742344D01*
X203442Y742483D01*
X203401Y742620D01*
X203357Y742757D01*
X203310Y742893D01*
X203258Y743027D01*
X203203Y743160D01*
X203145Y743291D01*
X203082Y743421D01*
X203017Y743548D01*
X202948Y743674D01*
X202875Y743799D01*
X202800Y743921D01*
X202721Y744041D01*
X202638Y744158D01*
X202553Y744274D01*
X202465Y744387D01*
X202373Y744498D01*
X202279Y744606D01*
X202181Y744712D01*
X202081Y744815D01*
X201978Y744915D01*
X201872Y745013D01*
X201764Y745107D01*
X201653Y745199D01*
X201540Y745287D01*
X201424Y745372D01*
X201307Y745455D01*
X201187Y745534D01*
X201065Y745609D01*
X200940Y745682D01*
X200814Y745751D01*
X200687Y745816D01*
X200557Y745879D01*
X200426Y745937D01*
X200293Y745992D01*
X200159Y746044D01*
X200023Y746091D01*
X199886Y746135D01*
X199749Y746176D01*
X199610Y746212D01*
X199470Y746245D01*
X199329Y746274D01*
X199187Y746299D01*
X199045Y746320D01*
X198903Y746338D01*
X198760Y746351D01*
X198616Y746361D01*
X198473Y746367D01*
X198329Y746369D01*
D10*
X249158Y718216D02*
X260842Y718216D01*
X260842Y690784D02*
X249158Y690784D01*
X227822Y704500D02*
X227820Y704554D01*
X227814Y704608D01*
X227805Y704662D01*
X227791Y704715D01*
X227774Y704766D01*
X227753Y704817D01*
X227729Y704865D01*
X227701Y704912D01*
X227670Y704957D01*
X227636Y704999D01*
X227599Y705039D01*
X227559Y705076D01*
X227517Y705110D01*
X227472Y705141D01*
X227425Y705169D01*
X227377Y705193D01*
X227326Y705214D01*
X227275Y705231D01*
X227222Y705245D01*
X227168Y705254D01*
X227114Y705260D01*
X227060Y705262D01*
X227006Y705260D01*
X226952Y705254D01*
X226898Y705245D01*
X226845Y705231D01*
X226794Y705214D01*
X226743Y705193D01*
X226695Y705169D01*
X226648Y705141D01*
X226603Y705110D01*
X226561Y705076D01*
X226521Y705039D01*
X226484Y704999D01*
X226450Y704957D01*
X226419Y704912D01*
X226391Y704865D01*
X226367Y704817D01*
X226346Y704766D01*
X226329Y704715D01*
X226315Y704662D01*
X226306Y704608D01*
X226300Y704554D01*
X226298Y704500D01*
X226300Y704446D01*
X226306Y704392D01*
X226315Y704338D01*
X226329Y704285D01*
X226346Y704234D01*
X226367Y704183D01*
X226391Y704135D01*
X226419Y704088D01*
X226450Y704043D01*
X226484Y704001D01*
X226521Y703961D01*
X226561Y703924D01*
X226603Y703890D01*
X226648Y703859D01*
X226695Y703831D01*
X226743Y703807D01*
X226794Y703786D01*
X226845Y703769D01*
X226898Y703755D01*
X226952Y703746D01*
X227006Y703740D01*
X227060Y703738D01*
X227114Y703740D01*
X227168Y703746D01*
X227222Y703755D01*
X227275Y703769D01*
X227326Y703786D01*
X227377Y703807D01*
X227425Y703831D01*
X227472Y703859D01*
X227517Y703890D01*
X227559Y703924D01*
X227599Y703961D01*
X227636Y704001D01*
X227670Y704043D01*
X227701Y704088D01*
X227729Y704135D01*
X227753Y704183D01*
X227774Y704234D01*
X227791Y704285D01*
X227805Y704338D01*
X227814Y704392D01*
X227820Y704446D01*
X227822Y704500D01*
D11*
X221966Y697231D02*
X219313Y697231D01*
X221966Y697231D02*
X222068Y697233D01*
X222169Y697239D01*
X222270Y697249D01*
X222371Y697262D01*
X222471Y697280D01*
X222570Y697301D01*
X222669Y697326D01*
X222766Y697355D01*
X222863Y697387D01*
X222958Y697423D01*
X223051Y697463D01*
X223143Y697506D01*
X223233Y697553D01*
X223322Y697604D01*
X223408Y697657D01*
X223492Y697714D01*
X223574Y697774D01*
X223654Y697837D01*
X223731Y697903D01*
X223806Y697972D01*
X223878Y698044D01*
X223947Y698119D01*
X224013Y698196D01*
X224076Y698276D01*
X224136Y698358D01*
X224193Y698442D01*
X224246Y698528D01*
X224297Y698617D01*
X224344Y698707D01*
X224387Y698799D01*
X224427Y698892D01*
X224463Y698987D01*
X224495Y699084D01*
X224524Y699181D01*
X224549Y699280D01*
X224570Y699379D01*
X224588Y699479D01*
X224601Y699580D01*
X224611Y699681D01*
X224617Y699782D01*
X224619Y699884D01*
X224619Y706516D01*
X224617Y706618D01*
X224611Y706719D01*
X224601Y706820D01*
X224588Y706921D01*
X224570Y707021D01*
X224549Y707120D01*
X224524Y707219D01*
X224495Y707316D01*
X224463Y707413D01*
X224427Y707508D01*
X224387Y707601D01*
X224344Y707693D01*
X224297Y707783D01*
X224246Y707872D01*
X224193Y707958D01*
X224136Y708042D01*
X224076Y708124D01*
X224013Y708204D01*
X223947Y708281D01*
X223878Y708356D01*
X223806Y708428D01*
X223731Y708497D01*
X223654Y708563D01*
X223574Y708626D01*
X223492Y708686D01*
X223408Y708743D01*
X223322Y708796D01*
X223233Y708847D01*
X223143Y708894D01*
X223051Y708937D01*
X222958Y708977D01*
X222863Y709013D01*
X222766Y709045D01*
X222669Y709074D01*
X222570Y709099D01*
X222471Y709120D01*
X222371Y709138D01*
X222270Y709151D01*
X222169Y709161D01*
X222068Y709167D01*
X221966Y709169D01*
X219313Y709169D01*
X215065Y706516D02*
X211749Y709169D01*
X211749Y697231D01*
X215065Y697231D02*
X208433Y697231D01*
X203635Y707843D02*
X203635Y709169D01*
X197003Y709169D01*
X200319Y697231D01*
D10*
X249158Y682016D02*
X260842Y682016D01*
X260842Y654584D02*
X249158Y654584D01*
X227822Y668300D02*
X227820Y668354D01*
X227814Y668408D01*
X227805Y668462D01*
X227791Y668515D01*
X227774Y668566D01*
X227753Y668617D01*
X227729Y668665D01*
X227701Y668712D01*
X227670Y668757D01*
X227636Y668799D01*
X227599Y668839D01*
X227559Y668876D01*
X227517Y668910D01*
X227472Y668941D01*
X227425Y668969D01*
X227377Y668993D01*
X227326Y669014D01*
X227275Y669031D01*
X227222Y669045D01*
X227168Y669054D01*
X227114Y669060D01*
X227060Y669062D01*
X227006Y669060D01*
X226952Y669054D01*
X226898Y669045D01*
X226845Y669031D01*
X226794Y669014D01*
X226743Y668993D01*
X226695Y668969D01*
X226648Y668941D01*
X226603Y668910D01*
X226561Y668876D01*
X226521Y668839D01*
X226484Y668799D01*
X226450Y668757D01*
X226419Y668712D01*
X226391Y668665D01*
X226367Y668617D01*
X226346Y668566D01*
X226329Y668515D01*
X226315Y668462D01*
X226306Y668408D01*
X226300Y668354D01*
X226298Y668300D01*
X226300Y668246D01*
X226306Y668192D01*
X226315Y668138D01*
X226329Y668085D01*
X226346Y668034D01*
X226367Y667983D01*
X226391Y667935D01*
X226419Y667888D01*
X226450Y667843D01*
X226484Y667801D01*
X226521Y667761D01*
X226561Y667724D01*
X226603Y667690D01*
X226648Y667659D01*
X226695Y667631D01*
X226743Y667607D01*
X226794Y667586D01*
X226845Y667569D01*
X226898Y667555D01*
X226952Y667546D01*
X227006Y667540D01*
X227060Y667538D01*
X227114Y667540D01*
X227168Y667546D01*
X227222Y667555D01*
X227275Y667569D01*
X227326Y667586D01*
X227377Y667607D01*
X227425Y667631D01*
X227472Y667659D01*
X227517Y667690D01*
X227559Y667724D01*
X227599Y667761D01*
X227636Y667801D01*
X227670Y667843D01*
X227701Y667888D01*
X227729Y667935D01*
X227753Y667983D01*
X227774Y668034D01*
X227791Y668085D01*
X227805Y668138D01*
X227814Y668192D01*
X227820Y668246D01*
X227822Y668300D01*
D11*
X221966Y660031D02*
X219313Y660031D01*
X221966Y660031D02*
X222068Y660033D01*
X222169Y660039D01*
X222270Y660049D01*
X222371Y660062D01*
X222471Y660080D01*
X222570Y660101D01*
X222669Y660126D01*
X222766Y660155D01*
X222863Y660187D01*
X222958Y660223D01*
X223051Y660263D01*
X223143Y660306D01*
X223233Y660353D01*
X223322Y660404D01*
X223408Y660457D01*
X223492Y660514D01*
X223574Y660574D01*
X223654Y660637D01*
X223731Y660703D01*
X223806Y660772D01*
X223878Y660844D01*
X223947Y660919D01*
X224013Y660996D01*
X224076Y661076D01*
X224136Y661158D01*
X224193Y661242D01*
X224246Y661328D01*
X224297Y661417D01*
X224344Y661507D01*
X224387Y661599D01*
X224427Y661692D01*
X224463Y661787D01*
X224495Y661884D01*
X224524Y661981D01*
X224549Y662080D01*
X224570Y662179D01*
X224588Y662279D01*
X224601Y662380D01*
X224611Y662481D01*
X224617Y662582D01*
X224619Y662684D01*
X224619Y669316D01*
X224617Y669418D01*
X224611Y669519D01*
X224601Y669620D01*
X224588Y669721D01*
X224570Y669821D01*
X224549Y669920D01*
X224524Y670019D01*
X224495Y670116D01*
X224463Y670213D01*
X224427Y670308D01*
X224387Y670401D01*
X224344Y670493D01*
X224297Y670583D01*
X224246Y670672D01*
X224193Y670758D01*
X224136Y670842D01*
X224076Y670924D01*
X224013Y671004D01*
X223947Y671081D01*
X223878Y671156D01*
X223806Y671228D01*
X223731Y671297D01*
X223654Y671363D01*
X223574Y671426D01*
X223492Y671486D01*
X223408Y671543D01*
X223322Y671596D01*
X223233Y671647D01*
X223143Y671694D01*
X223051Y671737D01*
X222958Y671777D01*
X222863Y671813D01*
X222766Y671845D01*
X222669Y671874D01*
X222570Y671899D01*
X222471Y671920D01*
X222371Y671938D01*
X222270Y671951D01*
X222169Y671961D01*
X222068Y671967D01*
X221966Y671969D01*
X219313Y671969D01*
X215065Y669316D02*
X211749Y671969D01*
X211749Y660031D01*
X215065Y660031D02*
X208433Y660031D01*
X203635Y663347D02*
X203633Y663461D01*
X203627Y663576D01*
X203617Y663690D01*
X203603Y663803D01*
X203586Y663917D01*
X203564Y664029D01*
X203539Y664141D01*
X203509Y664251D01*
X203476Y664361D01*
X203439Y664469D01*
X203399Y664576D01*
X203354Y664682D01*
X203307Y664786D01*
X203255Y664888D01*
X203200Y664988D01*
X203142Y665087D01*
X203080Y665183D01*
X203015Y665278D01*
X202947Y665369D01*
X202875Y665459D01*
X202801Y665546D01*
X202724Y665630D01*
X202643Y665712D01*
X202560Y665791D01*
X202475Y665867D01*
X202386Y665940D01*
X202296Y666009D01*
X202203Y666076D01*
X202107Y666139D01*
X202010Y666199D01*
X201910Y666256D01*
X201809Y666309D01*
X201706Y666359D01*
X201601Y666405D01*
X201495Y666448D01*
X201387Y666486D01*
X201278Y666521D01*
X201168Y666552D01*
X201057Y666580D01*
X200945Y666603D01*
X200832Y666623D01*
X200719Y666639D01*
X200605Y666651D01*
X200491Y666659D01*
X200376Y666663D01*
X200262Y666663D01*
X200147Y666659D01*
X200033Y666651D01*
X199919Y666639D01*
X199806Y666623D01*
X199693Y666603D01*
X199581Y666580D01*
X199470Y666552D01*
X199360Y666521D01*
X199251Y666486D01*
X199143Y666448D01*
X199037Y666405D01*
X198932Y666359D01*
X198829Y666309D01*
X198728Y666256D01*
X198628Y666199D01*
X198531Y666139D01*
X198435Y666076D01*
X198342Y666009D01*
X198252Y665940D01*
X198163Y665867D01*
X198078Y665791D01*
X197995Y665712D01*
X197914Y665630D01*
X197837Y665546D01*
X197763Y665459D01*
X197691Y665369D01*
X197623Y665278D01*
X197558Y665183D01*
X197496Y665087D01*
X197438Y664988D01*
X197383Y664888D01*
X197331Y664786D01*
X197284Y664682D01*
X197239Y664576D01*
X197199Y664469D01*
X197162Y664361D01*
X197129Y664251D01*
X197099Y664141D01*
X197074Y664029D01*
X197052Y663917D01*
X197035Y663803D01*
X197021Y663690D01*
X197011Y663576D01*
X197005Y663461D01*
X197003Y663347D01*
X197005Y663233D01*
X197011Y663118D01*
X197021Y663004D01*
X197035Y662891D01*
X197052Y662777D01*
X197074Y662665D01*
X197099Y662553D01*
X197129Y662443D01*
X197162Y662333D01*
X197199Y662225D01*
X197239Y662118D01*
X197284Y662012D01*
X197331Y661908D01*
X197383Y661806D01*
X197438Y661706D01*
X197496Y661607D01*
X197558Y661511D01*
X197623Y661416D01*
X197691Y661325D01*
X197763Y661235D01*
X197837Y661148D01*
X197914Y661064D01*
X197995Y660982D01*
X198078Y660903D01*
X198163Y660827D01*
X198252Y660754D01*
X198342Y660685D01*
X198435Y660618D01*
X198531Y660555D01*
X198628Y660495D01*
X198728Y660438D01*
X198829Y660385D01*
X198932Y660335D01*
X199037Y660289D01*
X199143Y660246D01*
X199251Y660208D01*
X199360Y660173D01*
X199470Y660142D01*
X199581Y660114D01*
X199693Y660091D01*
X199806Y660071D01*
X199919Y660055D01*
X200033Y660043D01*
X200147Y660035D01*
X200262Y660031D01*
X200376Y660031D01*
X200491Y660035D01*
X200605Y660043D01*
X200719Y660055D01*
X200832Y660071D01*
X200945Y660091D01*
X201057Y660114D01*
X201168Y660142D01*
X201278Y660173D01*
X201387Y660208D01*
X201495Y660246D01*
X201601Y660289D01*
X201706Y660335D01*
X201809Y660385D01*
X201910Y660438D01*
X202010Y660495D01*
X202107Y660555D01*
X202203Y660618D01*
X202296Y660685D01*
X202386Y660754D01*
X202475Y660827D01*
X202560Y660903D01*
X202643Y660982D01*
X202724Y661064D01*
X202801Y661148D01*
X202875Y661235D01*
X202947Y661325D01*
X203015Y661416D01*
X203080Y661511D01*
X203142Y661607D01*
X203200Y661706D01*
X203255Y661806D01*
X203307Y661908D01*
X203354Y662012D01*
X203399Y662118D01*
X203439Y662225D01*
X203476Y662333D01*
X203509Y662443D01*
X203539Y662553D01*
X203564Y662665D01*
X203586Y662777D01*
X203603Y662891D01*
X203617Y663004D01*
X203627Y663118D01*
X203633Y663233D01*
X203635Y663347D01*
X202972Y669316D02*
X202970Y669418D01*
X202964Y669519D01*
X202954Y669620D01*
X202941Y669721D01*
X202923Y669821D01*
X202902Y669920D01*
X202877Y670019D01*
X202848Y670116D01*
X202816Y670213D01*
X202780Y670308D01*
X202740Y670401D01*
X202697Y670493D01*
X202650Y670583D01*
X202599Y670672D01*
X202546Y670758D01*
X202489Y670842D01*
X202429Y670924D01*
X202366Y671004D01*
X202300Y671081D01*
X202231Y671156D01*
X202159Y671228D01*
X202084Y671297D01*
X202007Y671363D01*
X201927Y671426D01*
X201845Y671486D01*
X201761Y671543D01*
X201675Y671596D01*
X201586Y671647D01*
X201496Y671694D01*
X201404Y671737D01*
X201311Y671777D01*
X201216Y671813D01*
X201119Y671845D01*
X201022Y671874D01*
X200923Y671899D01*
X200824Y671920D01*
X200724Y671938D01*
X200623Y671951D01*
X200522Y671961D01*
X200421Y671967D01*
X200319Y671969D01*
X200217Y671967D01*
X200116Y671961D01*
X200015Y671951D01*
X199914Y671938D01*
X199814Y671920D01*
X199715Y671899D01*
X199616Y671874D01*
X199519Y671845D01*
X199422Y671813D01*
X199327Y671777D01*
X199234Y671737D01*
X199142Y671694D01*
X199052Y671647D01*
X198963Y671596D01*
X198877Y671543D01*
X198793Y671486D01*
X198711Y671426D01*
X198631Y671363D01*
X198554Y671297D01*
X198479Y671228D01*
X198407Y671156D01*
X198338Y671081D01*
X198272Y671004D01*
X198209Y670924D01*
X198149Y670842D01*
X198092Y670758D01*
X198039Y670672D01*
X197988Y670583D01*
X197941Y670493D01*
X197898Y670401D01*
X197858Y670308D01*
X197822Y670213D01*
X197790Y670116D01*
X197761Y670019D01*
X197736Y669920D01*
X197715Y669821D01*
X197697Y669721D01*
X197684Y669620D01*
X197674Y669519D01*
X197668Y669418D01*
X197666Y669316D01*
X197668Y669214D01*
X197674Y669113D01*
X197684Y669012D01*
X197697Y668911D01*
X197715Y668811D01*
X197736Y668712D01*
X197761Y668613D01*
X197790Y668516D01*
X197822Y668419D01*
X197858Y668324D01*
X197898Y668231D01*
X197941Y668139D01*
X197988Y668049D01*
X198039Y667960D01*
X198092Y667874D01*
X198149Y667790D01*
X198209Y667708D01*
X198272Y667628D01*
X198338Y667551D01*
X198407Y667476D01*
X198479Y667404D01*
X198554Y667335D01*
X198631Y667269D01*
X198711Y667206D01*
X198793Y667146D01*
X198877Y667089D01*
X198963Y667036D01*
X199052Y666985D01*
X199142Y666938D01*
X199234Y666895D01*
X199327Y666855D01*
X199422Y666819D01*
X199519Y666787D01*
X199616Y666758D01*
X199715Y666733D01*
X199814Y666712D01*
X199914Y666694D01*
X200015Y666681D01*
X200116Y666671D01*
X200217Y666665D01*
X200319Y666663D01*
X200421Y666665D01*
X200522Y666671D01*
X200623Y666681D01*
X200724Y666694D01*
X200824Y666712D01*
X200923Y666733D01*
X201022Y666758D01*
X201119Y666787D01*
X201216Y666819D01*
X201311Y666855D01*
X201404Y666895D01*
X201496Y666938D01*
X201586Y666985D01*
X201675Y667036D01*
X201761Y667089D01*
X201845Y667146D01*
X201927Y667206D01*
X202007Y667269D01*
X202084Y667335D01*
X202159Y667404D01*
X202231Y667476D01*
X202300Y667551D01*
X202366Y667628D01*
X202429Y667708D01*
X202489Y667790D01*
X202546Y667874D01*
X202599Y667960D01*
X202650Y668049D01*
X202697Y668139D01*
X202740Y668231D01*
X202780Y668324D01*
X202816Y668419D01*
X202848Y668516D01*
X202877Y668613D01*
X202902Y668712D01*
X202923Y668811D01*
X202941Y668911D01*
X202954Y669012D01*
X202964Y669113D01*
X202970Y669214D01*
X202972Y669316D01*
D10*
X342066Y499862D02*
X342066Y498338D01*
X352734Y498338D02*
X352734Y499862D01*
D12*
X355796Y486080D02*
X355796Y476588D01*
X355796Y486080D02*
X353159Y486080D01*
X353058Y486078D01*
X352957Y486072D01*
X352857Y486063D01*
X352756Y486049D01*
X352657Y486032D01*
X352558Y486011D01*
X352460Y485986D01*
X352363Y485957D01*
X352268Y485925D01*
X352173Y485889D01*
X352080Y485849D01*
X351989Y485806D01*
X351899Y485760D01*
X351811Y485710D01*
X351726Y485656D01*
X351642Y485600D01*
X351560Y485540D01*
X351481Y485477D01*
X351405Y485412D01*
X351330Y485343D01*
X351259Y485272D01*
X351190Y485197D01*
X351125Y485121D01*
X351062Y485042D01*
X351002Y484960D01*
X350946Y484876D01*
X350892Y484791D01*
X350842Y484703D01*
X350796Y484613D01*
X350753Y484522D01*
X350713Y484429D01*
X350677Y484334D01*
X350645Y484239D01*
X350616Y484142D01*
X350591Y484044D01*
X350570Y483945D01*
X350553Y483846D01*
X350539Y483745D01*
X350530Y483645D01*
X350524Y483544D01*
X350522Y483443D01*
X350524Y483342D01*
X350530Y483241D01*
X350539Y483141D01*
X350553Y483040D01*
X350570Y482941D01*
X350591Y482842D01*
X350616Y482744D01*
X350645Y482647D01*
X350677Y482552D01*
X350713Y482457D01*
X350753Y482364D01*
X350796Y482273D01*
X350842Y482183D01*
X350892Y482095D01*
X350946Y482010D01*
X351002Y481926D01*
X351062Y481844D01*
X351125Y481765D01*
X351190Y481689D01*
X351259Y481614D01*
X351330Y481543D01*
X351405Y481474D01*
X351481Y481409D01*
X351560Y481346D01*
X351642Y481286D01*
X351726Y481230D01*
X351811Y481176D01*
X351899Y481126D01*
X351989Y481080D01*
X352080Y481037D01*
X352173Y480997D01*
X352268Y480961D01*
X352363Y480929D01*
X352460Y480900D01*
X352558Y480875D01*
X352657Y480854D01*
X352756Y480837D01*
X352857Y480823D01*
X352957Y480814D01*
X353058Y480808D01*
X353159Y480806D01*
X353159Y480807D02*
X355796Y480807D01*
X352632Y480807D02*
X350523Y476588D01*
X346843Y476588D02*
X343679Y476588D01*
X343589Y476590D01*
X343500Y476596D01*
X343411Y476605D01*
X343323Y476618D01*
X343235Y476635D01*
X343148Y476656D01*
X343061Y476680D01*
X342976Y476708D01*
X342893Y476740D01*
X342810Y476775D01*
X342730Y476814D01*
X342650Y476856D01*
X342573Y476901D01*
X342498Y476950D01*
X342425Y477001D01*
X342354Y477056D01*
X342286Y477114D01*
X342220Y477174D01*
X342156Y477238D01*
X342096Y477304D01*
X342038Y477372D01*
X341983Y477443D01*
X341932Y477516D01*
X341883Y477591D01*
X341838Y477668D01*
X341796Y477748D01*
X341757Y477828D01*
X341722Y477911D01*
X341690Y477994D01*
X341662Y478079D01*
X341638Y478166D01*
X341617Y478253D01*
X341600Y478341D01*
X341587Y478429D01*
X341578Y478518D01*
X341572Y478607D01*
X341570Y478697D01*
X341570Y479752D01*
X341572Y479842D01*
X341578Y479931D01*
X341587Y480020D01*
X341600Y480108D01*
X341617Y480196D01*
X341638Y480283D01*
X341662Y480370D01*
X341690Y480455D01*
X341722Y480538D01*
X341757Y480621D01*
X341796Y480701D01*
X341838Y480781D01*
X341883Y480858D01*
X341932Y480933D01*
X341983Y481006D01*
X342038Y481077D01*
X342096Y481145D01*
X342156Y481211D01*
X342220Y481275D01*
X342286Y481335D01*
X342354Y481393D01*
X342425Y481448D01*
X342498Y481499D01*
X342573Y481548D01*
X342650Y481593D01*
X342730Y481635D01*
X342810Y481674D01*
X342893Y481709D01*
X342976Y481741D01*
X343061Y481769D01*
X343148Y481793D01*
X343235Y481814D01*
X343323Y481831D01*
X343411Y481844D01*
X343500Y481853D01*
X343589Y481859D01*
X343679Y481861D01*
X346843Y481861D01*
X346843Y486080D01*
X341570Y486080D01*
D11*
X330814Y499073D02*
X326835Y511011D01*
X334794Y511011D02*
X330814Y499073D01*
X333799Y508027D02*
X327830Y508027D01*
X326835Y588989D02*
X326835Y600927D01*
X326835Y596284D02*
X333467Y588989D01*
X329488Y593632D02*
X333467Y600927D01*
X311708Y493231D02*
X309055Y489915D01*
X320993Y489915D01*
X320993Y493231D02*
X320993Y486599D01*
X181660Y493231D02*
X179007Y489915D01*
X190945Y489915D01*
X190945Y493231D02*
X190945Y486599D01*
X188292Y481801D02*
X179007Y479148D01*
X188292Y481801D02*
X188292Y475169D01*
X185639Y477159D02*
X190945Y477159D01*
D10*
X209158Y345084D02*
X220842Y345084D01*
X220842Y372516D02*
X209158Y372516D01*
X242178Y358800D02*
X242180Y358746D01*
X242186Y358692D01*
X242195Y358638D01*
X242209Y358585D01*
X242226Y358534D01*
X242247Y358483D01*
X242271Y358435D01*
X242299Y358388D01*
X242330Y358343D01*
X242364Y358301D01*
X242401Y358261D01*
X242441Y358224D01*
X242483Y358190D01*
X242528Y358159D01*
X242575Y358131D01*
X242623Y358107D01*
X242674Y358086D01*
X242725Y358069D01*
X242778Y358055D01*
X242832Y358046D01*
X242886Y358040D01*
X242940Y358038D01*
X242994Y358040D01*
X243048Y358046D01*
X243102Y358055D01*
X243155Y358069D01*
X243206Y358086D01*
X243257Y358107D01*
X243305Y358131D01*
X243352Y358159D01*
X243397Y358190D01*
X243439Y358224D01*
X243479Y358261D01*
X243516Y358301D01*
X243550Y358343D01*
X243581Y358388D01*
X243609Y358435D01*
X243633Y358483D01*
X243654Y358534D01*
X243671Y358585D01*
X243685Y358638D01*
X243694Y358692D01*
X243700Y358746D01*
X243702Y358800D01*
X243700Y358854D01*
X243694Y358908D01*
X243685Y358962D01*
X243671Y359015D01*
X243654Y359066D01*
X243633Y359117D01*
X243609Y359165D01*
X243581Y359212D01*
X243550Y359257D01*
X243516Y359299D01*
X243479Y359339D01*
X243439Y359376D01*
X243397Y359410D01*
X243352Y359441D01*
X243305Y359469D01*
X243257Y359493D01*
X243206Y359514D01*
X243155Y359531D01*
X243102Y359545D01*
X243048Y359554D01*
X242994Y359560D01*
X242940Y359562D01*
X242886Y359560D01*
X242832Y359554D01*
X242778Y359545D01*
X242725Y359531D01*
X242674Y359514D01*
X242623Y359493D01*
X242575Y359469D01*
X242528Y359441D01*
X242483Y359410D01*
X242441Y359376D01*
X242401Y359339D01*
X242364Y359299D01*
X242330Y359257D01*
X242299Y359212D01*
X242271Y359165D01*
X242247Y359117D01*
X242226Y359066D01*
X242209Y359015D01*
X242195Y358962D01*
X242186Y358908D01*
X242180Y358854D01*
X242178Y358800D01*
D11*
X185732Y354831D02*
X183079Y354831D01*
X185732Y354831D02*
X185834Y354833D01*
X185935Y354839D01*
X186036Y354849D01*
X186137Y354862D01*
X186237Y354880D01*
X186336Y354901D01*
X186435Y354926D01*
X186532Y354955D01*
X186629Y354987D01*
X186724Y355023D01*
X186817Y355063D01*
X186909Y355106D01*
X186999Y355153D01*
X187088Y355204D01*
X187174Y355257D01*
X187258Y355314D01*
X187340Y355374D01*
X187420Y355437D01*
X187497Y355503D01*
X187572Y355572D01*
X187644Y355644D01*
X187713Y355719D01*
X187779Y355796D01*
X187842Y355876D01*
X187902Y355958D01*
X187959Y356042D01*
X188012Y356128D01*
X188063Y356217D01*
X188110Y356307D01*
X188153Y356399D01*
X188193Y356492D01*
X188229Y356587D01*
X188261Y356684D01*
X188290Y356781D01*
X188315Y356880D01*
X188336Y356979D01*
X188354Y357079D01*
X188367Y357180D01*
X188377Y357281D01*
X188383Y357382D01*
X188385Y357484D01*
X188385Y364116D01*
X188383Y364218D01*
X188377Y364319D01*
X188367Y364420D01*
X188354Y364521D01*
X188336Y364621D01*
X188315Y364720D01*
X188290Y364819D01*
X188261Y364916D01*
X188229Y365013D01*
X188193Y365108D01*
X188153Y365201D01*
X188110Y365293D01*
X188063Y365383D01*
X188012Y365472D01*
X187959Y365558D01*
X187902Y365642D01*
X187842Y365724D01*
X187779Y365804D01*
X187713Y365881D01*
X187644Y365956D01*
X187572Y366028D01*
X187497Y366097D01*
X187420Y366163D01*
X187340Y366226D01*
X187258Y366286D01*
X187174Y366343D01*
X187088Y366396D01*
X186999Y366447D01*
X186909Y366494D01*
X186817Y366537D01*
X186724Y366577D01*
X186629Y366613D01*
X186532Y366645D01*
X186435Y366674D01*
X186336Y366699D01*
X186237Y366720D01*
X186137Y366738D01*
X186036Y366751D01*
X185935Y366761D01*
X185834Y366767D01*
X185732Y366769D01*
X183079Y366769D01*
X178831Y364116D02*
X175515Y366769D01*
X175515Y354831D01*
X178831Y354831D02*
X172199Y354831D01*
X164748Y360137D02*
X160769Y360137D01*
X164748Y360137D02*
X164850Y360139D01*
X164951Y360145D01*
X165052Y360155D01*
X165153Y360168D01*
X165253Y360186D01*
X165352Y360207D01*
X165451Y360232D01*
X165548Y360261D01*
X165645Y360293D01*
X165740Y360329D01*
X165833Y360369D01*
X165925Y360412D01*
X166015Y360459D01*
X166104Y360510D01*
X166190Y360563D01*
X166274Y360620D01*
X166356Y360680D01*
X166436Y360743D01*
X166513Y360809D01*
X166588Y360878D01*
X166660Y360950D01*
X166729Y361025D01*
X166795Y361102D01*
X166858Y361182D01*
X166918Y361264D01*
X166975Y361348D01*
X167028Y361434D01*
X167079Y361523D01*
X167126Y361613D01*
X167169Y361705D01*
X167209Y361798D01*
X167245Y361893D01*
X167277Y361990D01*
X167306Y362087D01*
X167331Y362186D01*
X167352Y362285D01*
X167370Y362385D01*
X167383Y362486D01*
X167393Y362587D01*
X167399Y362688D01*
X167401Y362790D01*
X167401Y363453D01*
X167399Y363567D01*
X167393Y363682D01*
X167383Y363796D01*
X167369Y363909D01*
X167352Y364023D01*
X167330Y364135D01*
X167305Y364247D01*
X167275Y364357D01*
X167242Y364467D01*
X167205Y364575D01*
X167165Y364682D01*
X167120Y364788D01*
X167073Y364892D01*
X167021Y364994D01*
X166966Y365094D01*
X166908Y365193D01*
X166846Y365289D01*
X166781Y365384D01*
X166713Y365475D01*
X166641Y365565D01*
X166567Y365652D01*
X166490Y365736D01*
X166409Y365818D01*
X166326Y365897D01*
X166241Y365973D01*
X166152Y366046D01*
X166062Y366115D01*
X165969Y366182D01*
X165873Y366245D01*
X165776Y366305D01*
X165676Y366362D01*
X165575Y366415D01*
X165472Y366465D01*
X165367Y366511D01*
X165261Y366554D01*
X165153Y366592D01*
X165044Y366627D01*
X164934Y366658D01*
X164823Y366686D01*
X164711Y366709D01*
X164598Y366729D01*
X164485Y366745D01*
X164371Y366757D01*
X164257Y366765D01*
X164142Y366769D01*
X164028Y366769D01*
X163913Y366765D01*
X163799Y366757D01*
X163685Y366745D01*
X163572Y366729D01*
X163459Y366709D01*
X163347Y366686D01*
X163236Y366658D01*
X163126Y366627D01*
X163017Y366592D01*
X162909Y366554D01*
X162803Y366511D01*
X162698Y366465D01*
X162595Y366415D01*
X162494Y366362D01*
X162394Y366305D01*
X162297Y366245D01*
X162201Y366182D01*
X162108Y366115D01*
X162018Y366046D01*
X161929Y365973D01*
X161844Y365897D01*
X161761Y365818D01*
X161680Y365736D01*
X161603Y365652D01*
X161529Y365565D01*
X161457Y365475D01*
X161389Y365384D01*
X161324Y365289D01*
X161262Y365193D01*
X161204Y365094D01*
X161149Y364994D01*
X161097Y364892D01*
X161050Y364788D01*
X161005Y364682D01*
X160965Y364575D01*
X160928Y364467D01*
X160895Y364357D01*
X160865Y364247D01*
X160840Y364135D01*
X160818Y364023D01*
X160801Y363909D01*
X160787Y363796D01*
X160777Y363682D01*
X160771Y363567D01*
X160769Y363453D01*
X160769Y360137D01*
X160771Y359993D01*
X160777Y359850D01*
X160787Y359706D01*
X160800Y359563D01*
X160818Y359421D01*
X160839Y359279D01*
X160864Y359137D01*
X160893Y358996D01*
X160926Y358856D01*
X160962Y358717D01*
X161003Y358580D01*
X161047Y358443D01*
X161094Y358307D01*
X161146Y358173D01*
X161201Y358040D01*
X161259Y357909D01*
X161322Y357779D01*
X161387Y357652D01*
X161456Y357526D01*
X161529Y357401D01*
X161604Y357279D01*
X161683Y357159D01*
X161766Y357041D01*
X161851Y356926D01*
X161939Y356813D01*
X162031Y356702D01*
X162125Y356594D01*
X162223Y356488D01*
X162323Y356385D01*
X162426Y356285D01*
X162532Y356187D01*
X162640Y356093D01*
X162751Y356001D01*
X162864Y355913D01*
X162980Y355828D01*
X163097Y355745D01*
X163217Y355666D01*
X163339Y355591D01*
X163464Y355518D01*
X163590Y355449D01*
X163718Y355383D01*
X163847Y355321D01*
X163978Y355263D01*
X164111Y355208D01*
X164245Y355156D01*
X164381Y355109D01*
X164518Y355065D01*
X164656Y355024D01*
X164794Y354988D01*
X164934Y354955D01*
X165075Y354926D01*
X165217Y354901D01*
X165359Y354880D01*
X165501Y354862D01*
X165644Y354849D01*
X165788Y354839D01*
X165931Y354833D01*
X166075Y354831D01*
X326835Y211011D02*
X330814Y199073D01*
X334794Y211011D01*
X333799Y208027D02*
X327830Y208027D01*
X326835Y288989D02*
X326835Y300927D01*
X326835Y296284D02*
X333467Y288989D01*
X329488Y293632D02*
X333467Y300927D01*
X311708Y193231D02*
X309055Y189915D01*
X320993Y189915D01*
X320993Y193231D02*
X320993Y186599D01*
X181660Y193231D02*
X179007Y189915D01*
X190945Y189915D01*
X190945Y193231D02*
X190945Y186599D01*
X188292Y181801D02*
X179007Y179148D01*
X188292Y181801D02*
X188292Y175169D01*
X185639Y177159D02*
X190945Y177159D01*
D10*
X342066Y196488D02*
X342066Y198012D01*
X352734Y198012D02*
X352734Y196488D01*
D12*
X356796Y181230D02*
X356796Y171738D01*
X356796Y181230D02*
X354159Y181230D01*
X354058Y181228D01*
X353957Y181222D01*
X353857Y181213D01*
X353756Y181199D01*
X353657Y181182D01*
X353558Y181161D01*
X353460Y181136D01*
X353363Y181107D01*
X353268Y181075D01*
X353173Y181039D01*
X353080Y180999D01*
X352989Y180956D01*
X352899Y180910D01*
X352811Y180860D01*
X352726Y180806D01*
X352642Y180750D01*
X352560Y180690D01*
X352481Y180627D01*
X352405Y180562D01*
X352330Y180493D01*
X352259Y180422D01*
X352190Y180347D01*
X352125Y180271D01*
X352062Y180192D01*
X352002Y180110D01*
X351946Y180026D01*
X351892Y179941D01*
X351842Y179853D01*
X351796Y179763D01*
X351753Y179672D01*
X351713Y179579D01*
X351677Y179484D01*
X351645Y179389D01*
X351616Y179292D01*
X351591Y179194D01*
X351570Y179095D01*
X351553Y178996D01*
X351539Y178895D01*
X351530Y178795D01*
X351524Y178694D01*
X351522Y178593D01*
X351524Y178492D01*
X351530Y178391D01*
X351539Y178291D01*
X351553Y178190D01*
X351570Y178091D01*
X351591Y177992D01*
X351616Y177894D01*
X351645Y177797D01*
X351677Y177702D01*
X351713Y177607D01*
X351753Y177514D01*
X351796Y177423D01*
X351842Y177333D01*
X351892Y177245D01*
X351946Y177160D01*
X352002Y177076D01*
X352062Y176994D01*
X352125Y176915D01*
X352190Y176839D01*
X352259Y176764D01*
X352330Y176693D01*
X352405Y176624D01*
X352481Y176559D01*
X352560Y176496D01*
X352642Y176436D01*
X352726Y176380D01*
X352811Y176326D01*
X352899Y176276D01*
X352989Y176230D01*
X353080Y176187D01*
X353173Y176147D01*
X353268Y176111D01*
X353363Y176079D01*
X353460Y176050D01*
X353558Y176025D01*
X353657Y176004D01*
X353756Y175987D01*
X353857Y175973D01*
X353957Y175964D01*
X354058Y175958D01*
X354159Y175956D01*
X354159Y175957D02*
X356796Y175957D01*
X353632Y175957D02*
X351523Y171738D01*
X347843Y177011D02*
X344679Y177011D01*
X344589Y177009D01*
X344500Y177003D01*
X344411Y176994D01*
X344323Y176981D01*
X344235Y176964D01*
X344148Y176943D01*
X344061Y176919D01*
X343976Y176891D01*
X343893Y176859D01*
X343810Y176824D01*
X343730Y176785D01*
X343650Y176743D01*
X343573Y176698D01*
X343498Y176649D01*
X343425Y176598D01*
X343354Y176543D01*
X343286Y176485D01*
X343220Y176425D01*
X343156Y176361D01*
X343096Y176295D01*
X343038Y176227D01*
X342983Y176156D01*
X342932Y176083D01*
X342883Y176008D01*
X342838Y175931D01*
X342796Y175851D01*
X342757Y175771D01*
X342722Y175688D01*
X342690Y175605D01*
X342662Y175520D01*
X342638Y175433D01*
X342617Y175346D01*
X342600Y175258D01*
X342587Y175170D01*
X342578Y175081D01*
X342572Y174992D01*
X342570Y174902D01*
X342570Y174375D01*
X342572Y174274D01*
X342578Y174173D01*
X342587Y174073D01*
X342601Y173972D01*
X342618Y173873D01*
X342639Y173774D01*
X342664Y173676D01*
X342693Y173579D01*
X342725Y173484D01*
X342761Y173389D01*
X342801Y173296D01*
X342844Y173205D01*
X342890Y173115D01*
X342940Y173027D01*
X342994Y172942D01*
X343050Y172858D01*
X343110Y172776D01*
X343173Y172697D01*
X343238Y172621D01*
X343307Y172546D01*
X343378Y172475D01*
X343453Y172406D01*
X343529Y172341D01*
X343608Y172278D01*
X343690Y172218D01*
X343774Y172162D01*
X343859Y172108D01*
X343947Y172058D01*
X344037Y172012D01*
X344128Y171969D01*
X344221Y171929D01*
X344316Y171893D01*
X344411Y171861D01*
X344508Y171832D01*
X344606Y171807D01*
X344705Y171786D01*
X344804Y171769D01*
X344905Y171755D01*
X345005Y171746D01*
X345106Y171740D01*
X345207Y171738D01*
X345308Y171740D01*
X345409Y171746D01*
X345509Y171755D01*
X345610Y171769D01*
X345709Y171786D01*
X345808Y171807D01*
X345906Y171832D01*
X346003Y171861D01*
X346098Y171893D01*
X346193Y171929D01*
X346286Y171969D01*
X346377Y172012D01*
X346467Y172058D01*
X346555Y172108D01*
X346640Y172162D01*
X346724Y172218D01*
X346806Y172278D01*
X346885Y172341D01*
X346961Y172406D01*
X347036Y172475D01*
X347107Y172546D01*
X347176Y172621D01*
X347241Y172697D01*
X347304Y172776D01*
X347364Y172858D01*
X347420Y172942D01*
X347474Y173027D01*
X347524Y173115D01*
X347570Y173205D01*
X347613Y173296D01*
X347653Y173389D01*
X347689Y173484D01*
X347721Y173579D01*
X347750Y173676D01*
X347775Y173774D01*
X347796Y173873D01*
X347813Y173972D01*
X347827Y174073D01*
X347836Y174173D01*
X347842Y174274D01*
X347844Y174375D01*
X347843Y174375D02*
X347843Y177011D01*
X347844Y177011D02*
X347842Y177138D01*
X347836Y177266D01*
X347827Y177393D01*
X347813Y177520D01*
X347796Y177646D01*
X347775Y177771D01*
X347750Y177896D01*
X347721Y178021D01*
X347689Y178144D01*
X347653Y178266D01*
X347613Y178387D01*
X347570Y178507D01*
X347523Y178626D01*
X347472Y178743D01*
X347418Y178858D01*
X347361Y178972D01*
X347300Y179084D01*
X347236Y179194D01*
X347168Y179302D01*
X347097Y179408D01*
X347023Y179511D01*
X346946Y179613D01*
X346866Y179712D01*
X346783Y179809D01*
X346697Y179903D01*
X346608Y179994D01*
X346517Y180083D01*
X346423Y180169D01*
X346326Y180252D01*
X346227Y180332D01*
X346125Y180409D01*
X346022Y180483D01*
X345916Y180554D01*
X345808Y180622D01*
X345698Y180686D01*
X345586Y180747D01*
X345472Y180804D01*
X345357Y180858D01*
X345240Y180909D01*
X345121Y180956D01*
X345001Y180999D01*
X344880Y181039D01*
X344758Y181075D01*
X344635Y181107D01*
X344511Y181136D01*
X344386Y181161D01*
X344260Y181182D01*
X344134Y181199D01*
X344007Y181213D01*
X343880Y181222D01*
X343752Y181228D01*
X343625Y181230D01*
D10*
X456284Y284158D02*
X456284Y295842D01*
X483716Y295842D02*
X483716Y284158D01*
X470000Y262822D02*
X469946Y262820D01*
X469892Y262814D01*
X469838Y262805D01*
X469785Y262791D01*
X469734Y262774D01*
X469683Y262753D01*
X469635Y262729D01*
X469588Y262701D01*
X469543Y262670D01*
X469501Y262636D01*
X469461Y262599D01*
X469424Y262559D01*
X469390Y262517D01*
X469359Y262472D01*
X469331Y262425D01*
X469307Y262377D01*
X469286Y262326D01*
X469269Y262275D01*
X469255Y262222D01*
X469246Y262168D01*
X469240Y262114D01*
X469238Y262060D01*
X469240Y262006D01*
X469246Y261952D01*
X469255Y261898D01*
X469269Y261845D01*
X469286Y261794D01*
X469307Y261743D01*
X469331Y261695D01*
X469359Y261648D01*
X469390Y261603D01*
X469424Y261561D01*
X469461Y261521D01*
X469501Y261484D01*
X469543Y261450D01*
X469588Y261419D01*
X469635Y261391D01*
X469683Y261367D01*
X469734Y261346D01*
X469785Y261329D01*
X469838Y261315D01*
X469892Y261306D01*
X469946Y261300D01*
X470000Y261298D01*
X470054Y261300D01*
X470108Y261306D01*
X470162Y261315D01*
X470215Y261329D01*
X470266Y261346D01*
X470317Y261367D01*
X470365Y261391D01*
X470412Y261419D01*
X470457Y261450D01*
X470499Y261484D01*
X470539Y261521D01*
X470576Y261561D01*
X470610Y261603D01*
X470641Y261648D01*
X470669Y261695D01*
X470693Y261743D01*
X470714Y261794D01*
X470731Y261845D01*
X470745Y261898D01*
X470754Y261952D01*
X470760Y262006D01*
X470762Y262060D01*
X470760Y262114D01*
X470754Y262168D01*
X470745Y262222D01*
X470731Y262275D01*
X470714Y262326D01*
X470693Y262377D01*
X470669Y262425D01*
X470641Y262472D01*
X470610Y262517D01*
X470576Y262559D01*
X470539Y262599D01*
X470499Y262636D01*
X470457Y262670D01*
X470412Y262701D01*
X470365Y262729D01*
X470317Y262753D01*
X470266Y262774D01*
X470215Y262791D01*
X470162Y262805D01*
X470108Y262814D01*
X470054Y262820D01*
X470000Y262822D01*
D12*
X478177Y250254D02*
X480287Y250254D01*
X480377Y250256D01*
X480466Y250262D01*
X480555Y250271D01*
X480643Y250284D01*
X480731Y250301D01*
X480818Y250322D01*
X480905Y250346D01*
X480990Y250374D01*
X481073Y250406D01*
X481156Y250441D01*
X481236Y250480D01*
X481316Y250522D01*
X481393Y250567D01*
X481468Y250616D01*
X481541Y250667D01*
X481612Y250722D01*
X481680Y250780D01*
X481746Y250840D01*
X481810Y250904D01*
X481870Y250970D01*
X481928Y251038D01*
X481983Y251109D01*
X482034Y251182D01*
X482083Y251257D01*
X482128Y251334D01*
X482170Y251414D01*
X482209Y251494D01*
X482244Y251577D01*
X482276Y251660D01*
X482304Y251745D01*
X482328Y251832D01*
X482349Y251919D01*
X482366Y252007D01*
X482379Y252095D01*
X482388Y252184D01*
X482394Y252273D01*
X482396Y252363D01*
X482396Y257637D01*
X482394Y257727D01*
X482388Y257816D01*
X482379Y257905D01*
X482366Y257993D01*
X482349Y258081D01*
X482328Y258168D01*
X482304Y258255D01*
X482276Y258340D01*
X482244Y258423D01*
X482209Y258506D01*
X482170Y258586D01*
X482128Y258666D01*
X482083Y258743D01*
X482034Y258818D01*
X481983Y258891D01*
X481928Y258962D01*
X481870Y259030D01*
X481810Y259096D01*
X481746Y259160D01*
X481680Y259220D01*
X481612Y259278D01*
X481541Y259333D01*
X481468Y259384D01*
X481393Y259433D01*
X481316Y259478D01*
X481236Y259520D01*
X481156Y259559D01*
X481073Y259594D01*
X480990Y259626D01*
X480905Y259654D01*
X480818Y259678D01*
X480731Y259699D01*
X480643Y259716D01*
X480555Y259729D01*
X480466Y259738D01*
X480377Y259744D01*
X480287Y259746D01*
X478177Y259746D01*
X471974Y259746D02*
X471878Y259744D01*
X471783Y259738D01*
X471688Y259729D01*
X471593Y259715D01*
X471499Y259698D01*
X471406Y259677D01*
X471314Y259652D01*
X471223Y259624D01*
X471133Y259592D01*
X471044Y259556D01*
X470957Y259517D01*
X470871Y259474D01*
X470788Y259428D01*
X470706Y259379D01*
X470626Y259326D01*
X470548Y259270D01*
X470473Y259211D01*
X470400Y259149D01*
X470330Y259084D01*
X470263Y259017D01*
X470198Y258947D01*
X470136Y258874D01*
X470077Y258799D01*
X470021Y258721D01*
X469968Y258641D01*
X469919Y258560D01*
X469873Y258476D01*
X469830Y258390D01*
X469791Y258303D01*
X469755Y258214D01*
X469723Y258124D01*
X469695Y258033D01*
X469670Y257941D01*
X469649Y257848D01*
X469632Y257754D01*
X469618Y257659D01*
X469609Y257564D01*
X469603Y257469D01*
X469601Y257373D01*
X471974Y259746D02*
X472084Y259744D01*
X472193Y259738D01*
X472302Y259728D01*
X472411Y259715D01*
X472519Y259697D01*
X472626Y259675D01*
X472733Y259650D01*
X472838Y259621D01*
X472943Y259588D01*
X473046Y259551D01*
X473148Y259511D01*
X473248Y259467D01*
X473347Y259419D01*
X473444Y259368D01*
X473539Y259314D01*
X473632Y259256D01*
X473723Y259195D01*
X473811Y259130D01*
X473898Y259063D01*
X473981Y258992D01*
X474062Y258918D01*
X474141Y258842D01*
X474217Y258763D01*
X474289Y258681D01*
X474359Y258596D01*
X474426Y258509D01*
X474489Y258420D01*
X474550Y258329D01*
X474607Y258235D01*
X474660Y258140D01*
X474710Y258042D01*
X474757Y257943D01*
X474800Y257842D01*
X474839Y257740D01*
X474875Y257636D01*
X470392Y255527D02*
X470322Y255596D01*
X470255Y255668D01*
X470191Y255742D01*
X470129Y255819D01*
X470071Y255898D01*
X470016Y255979D01*
X469964Y256063D01*
X469915Y256148D01*
X469869Y256235D01*
X469827Y256324D01*
X469788Y256414D01*
X469753Y256506D01*
X469721Y256599D01*
X469693Y256693D01*
X469669Y256788D01*
X469648Y256885D01*
X469631Y256981D01*
X469618Y257079D01*
X469609Y257177D01*
X469603Y257275D01*
X469601Y257373D01*
X470392Y255527D02*
X474875Y250254D01*
X469601Y250254D01*
X465875Y252363D02*
X463765Y259746D01*
X465875Y252363D02*
X460601Y252363D01*
X462183Y250254D02*
X462183Y254473D01*
D10*
X491284Y284158D02*
X491284Y295842D01*
X518716Y295842D02*
X518716Y284158D01*
X505000Y262822D02*
X504946Y262820D01*
X504892Y262814D01*
X504838Y262805D01*
X504785Y262791D01*
X504734Y262774D01*
X504683Y262753D01*
X504635Y262729D01*
X504588Y262701D01*
X504543Y262670D01*
X504501Y262636D01*
X504461Y262599D01*
X504424Y262559D01*
X504390Y262517D01*
X504359Y262472D01*
X504331Y262425D01*
X504307Y262377D01*
X504286Y262326D01*
X504269Y262275D01*
X504255Y262222D01*
X504246Y262168D01*
X504240Y262114D01*
X504238Y262060D01*
X504240Y262006D01*
X504246Y261952D01*
X504255Y261898D01*
X504269Y261845D01*
X504286Y261794D01*
X504307Y261743D01*
X504331Y261695D01*
X504359Y261648D01*
X504390Y261603D01*
X504424Y261561D01*
X504461Y261521D01*
X504501Y261484D01*
X504543Y261450D01*
X504588Y261419D01*
X504635Y261391D01*
X504683Y261367D01*
X504734Y261346D01*
X504785Y261329D01*
X504838Y261315D01*
X504892Y261306D01*
X504946Y261300D01*
X505000Y261298D01*
X505054Y261300D01*
X505108Y261306D01*
X505162Y261315D01*
X505215Y261329D01*
X505266Y261346D01*
X505317Y261367D01*
X505365Y261391D01*
X505412Y261419D01*
X505457Y261450D01*
X505499Y261484D01*
X505539Y261521D01*
X505576Y261561D01*
X505610Y261603D01*
X505641Y261648D01*
X505669Y261695D01*
X505693Y261743D01*
X505714Y261794D01*
X505731Y261845D01*
X505745Y261898D01*
X505754Y261952D01*
X505760Y262006D01*
X505762Y262060D01*
X505760Y262114D01*
X505754Y262168D01*
X505745Y262222D01*
X505731Y262275D01*
X505714Y262326D01*
X505693Y262377D01*
X505669Y262425D01*
X505641Y262472D01*
X505610Y262517D01*
X505576Y262559D01*
X505539Y262599D01*
X505499Y262636D01*
X505457Y262670D01*
X505412Y262701D01*
X505365Y262729D01*
X505317Y262753D01*
X505266Y262774D01*
X505215Y262791D01*
X505162Y262805D01*
X505108Y262814D01*
X505054Y262820D01*
X505000Y262822D01*
D12*
X513177Y250254D02*
X515287Y250254D01*
X515377Y250256D01*
X515466Y250262D01*
X515555Y250271D01*
X515643Y250284D01*
X515731Y250301D01*
X515818Y250322D01*
X515905Y250346D01*
X515990Y250374D01*
X516073Y250406D01*
X516156Y250441D01*
X516236Y250480D01*
X516316Y250522D01*
X516393Y250567D01*
X516468Y250616D01*
X516541Y250667D01*
X516612Y250722D01*
X516680Y250780D01*
X516746Y250840D01*
X516810Y250904D01*
X516870Y250970D01*
X516928Y251038D01*
X516983Y251109D01*
X517034Y251182D01*
X517083Y251257D01*
X517128Y251334D01*
X517170Y251414D01*
X517209Y251494D01*
X517244Y251577D01*
X517276Y251660D01*
X517304Y251745D01*
X517328Y251832D01*
X517349Y251919D01*
X517366Y252007D01*
X517379Y252095D01*
X517388Y252184D01*
X517394Y252273D01*
X517396Y252363D01*
X517396Y257637D01*
X517394Y257727D01*
X517388Y257816D01*
X517379Y257905D01*
X517366Y257993D01*
X517349Y258081D01*
X517328Y258168D01*
X517304Y258255D01*
X517276Y258340D01*
X517244Y258423D01*
X517209Y258506D01*
X517170Y258586D01*
X517128Y258666D01*
X517083Y258743D01*
X517034Y258818D01*
X516983Y258891D01*
X516928Y258962D01*
X516870Y259030D01*
X516810Y259096D01*
X516746Y259160D01*
X516680Y259220D01*
X516612Y259278D01*
X516541Y259333D01*
X516468Y259384D01*
X516393Y259433D01*
X516316Y259478D01*
X516236Y259520D01*
X516156Y259559D01*
X516073Y259594D01*
X515990Y259626D01*
X515905Y259654D01*
X515818Y259678D01*
X515731Y259699D01*
X515643Y259716D01*
X515555Y259729D01*
X515466Y259738D01*
X515377Y259744D01*
X515287Y259746D01*
X513177Y259746D01*
X506974Y259746D02*
X506878Y259744D01*
X506783Y259738D01*
X506688Y259729D01*
X506593Y259715D01*
X506499Y259698D01*
X506406Y259677D01*
X506314Y259652D01*
X506223Y259624D01*
X506133Y259592D01*
X506044Y259556D01*
X505957Y259517D01*
X505871Y259474D01*
X505788Y259428D01*
X505706Y259379D01*
X505626Y259326D01*
X505548Y259270D01*
X505473Y259211D01*
X505400Y259149D01*
X505330Y259084D01*
X505263Y259017D01*
X505198Y258947D01*
X505136Y258874D01*
X505077Y258799D01*
X505021Y258721D01*
X504968Y258641D01*
X504919Y258560D01*
X504873Y258476D01*
X504830Y258390D01*
X504791Y258303D01*
X504755Y258214D01*
X504723Y258124D01*
X504695Y258033D01*
X504670Y257941D01*
X504649Y257848D01*
X504632Y257754D01*
X504618Y257659D01*
X504609Y257564D01*
X504603Y257469D01*
X504601Y257373D01*
X506974Y259746D02*
X507084Y259744D01*
X507193Y259738D01*
X507302Y259728D01*
X507411Y259715D01*
X507519Y259697D01*
X507626Y259675D01*
X507733Y259650D01*
X507838Y259621D01*
X507943Y259588D01*
X508046Y259551D01*
X508148Y259511D01*
X508248Y259467D01*
X508347Y259419D01*
X508444Y259368D01*
X508539Y259314D01*
X508632Y259256D01*
X508723Y259195D01*
X508811Y259130D01*
X508898Y259063D01*
X508981Y258992D01*
X509062Y258918D01*
X509141Y258842D01*
X509217Y258763D01*
X509289Y258681D01*
X509359Y258596D01*
X509426Y258509D01*
X509489Y258420D01*
X509550Y258329D01*
X509607Y258235D01*
X509660Y258140D01*
X509710Y258042D01*
X509757Y257943D01*
X509800Y257842D01*
X509839Y257740D01*
X509875Y257636D01*
X505392Y255527D02*
X505322Y255596D01*
X505255Y255668D01*
X505191Y255742D01*
X505129Y255819D01*
X505071Y255898D01*
X505016Y255979D01*
X504964Y256063D01*
X504915Y256148D01*
X504869Y256235D01*
X504827Y256324D01*
X504788Y256414D01*
X504753Y256506D01*
X504721Y256599D01*
X504693Y256693D01*
X504669Y256788D01*
X504648Y256885D01*
X504631Y256981D01*
X504618Y257079D01*
X504609Y257177D01*
X504603Y257275D01*
X504601Y257373D01*
X505392Y255527D02*
X509875Y250254D01*
X504601Y250254D01*
X500875Y250254D02*
X497711Y250254D01*
X497621Y250256D01*
X497532Y250262D01*
X497443Y250271D01*
X497355Y250284D01*
X497267Y250301D01*
X497180Y250322D01*
X497093Y250346D01*
X497008Y250374D01*
X496925Y250406D01*
X496842Y250441D01*
X496762Y250480D01*
X496682Y250522D01*
X496605Y250567D01*
X496530Y250616D01*
X496457Y250667D01*
X496386Y250722D01*
X496318Y250780D01*
X496252Y250840D01*
X496188Y250904D01*
X496128Y250970D01*
X496070Y251038D01*
X496015Y251109D01*
X495964Y251182D01*
X495915Y251257D01*
X495870Y251334D01*
X495828Y251414D01*
X495789Y251494D01*
X495754Y251577D01*
X495722Y251660D01*
X495694Y251745D01*
X495670Y251832D01*
X495649Y251919D01*
X495632Y252007D01*
X495619Y252095D01*
X495610Y252184D01*
X495604Y252273D01*
X495602Y252363D01*
X495601Y252363D02*
X495601Y253418D01*
X495602Y253418D02*
X495604Y253508D01*
X495610Y253597D01*
X495619Y253686D01*
X495632Y253774D01*
X495649Y253862D01*
X495670Y253949D01*
X495694Y254036D01*
X495722Y254121D01*
X495754Y254204D01*
X495789Y254287D01*
X495828Y254367D01*
X495870Y254447D01*
X495915Y254524D01*
X495964Y254599D01*
X496015Y254672D01*
X496070Y254743D01*
X496128Y254811D01*
X496188Y254877D01*
X496252Y254941D01*
X496318Y255001D01*
X496386Y255059D01*
X496457Y255114D01*
X496530Y255165D01*
X496605Y255214D01*
X496682Y255259D01*
X496762Y255301D01*
X496842Y255340D01*
X496925Y255375D01*
X497008Y255407D01*
X497093Y255435D01*
X497180Y255459D01*
X497267Y255480D01*
X497355Y255497D01*
X497443Y255510D01*
X497532Y255519D01*
X497621Y255525D01*
X497711Y255527D01*
X500875Y255527D01*
X500875Y259746D01*
X495601Y259746D01*
D10*
X526284Y284158D02*
X526284Y295842D01*
X553716Y295842D02*
X553716Y284158D01*
X540000Y262822D02*
X539946Y262820D01*
X539892Y262814D01*
X539838Y262805D01*
X539785Y262791D01*
X539734Y262774D01*
X539683Y262753D01*
X539635Y262729D01*
X539588Y262701D01*
X539543Y262670D01*
X539501Y262636D01*
X539461Y262599D01*
X539424Y262559D01*
X539390Y262517D01*
X539359Y262472D01*
X539331Y262425D01*
X539307Y262377D01*
X539286Y262326D01*
X539269Y262275D01*
X539255Y262222D01*
X539246Y262168D01*
X539240Y262114D01*
X539238Y262060D01*
X539240Y262006D01*
X539246Y261952D01*
X539255Y261898D01*
X539269Y261845D01*
X539286Y261794D01*
X539307Y261743D01*
X539331Y261695D01*
X539359Y261648D01*
X539390Y261603D01*
X539424Y261561D01*
X539461Y261521D01*
X539501Y261484D01*
X539543Y261450D01*
X539588Y261419D01*
X539635Y261391D01*
X539683Y261367D01*
X539734Y261346D01*
X539785Y261329D01*
X539838Y261315D01*
X539892Y261306D01*
X539946Y261300D01*
X540000Y261298D01*
X540054Y261300D01*
X540108Y261306D01*
X540162Y261315D01*
X540215Y261329D01*
X540266Y261346D01*
X540317Y261367D01*
X540365Y261391D01*
X540412Y261419D01*
X540457Y261450D01*
X540499Y261484D01*
X540539Y261521D01*
X540576Y261561D01*
X540610Y261603D01*
X540641Y261648D01*
X540669Y261695D01*
X540693Y261743D01*
X540714Y261794D01*
X540731Y261845D01*
X540745Y261898D01*
X540754Y261952D01*
X540760Y262006D01*
X540762Y262060D01*
X540760Y262114D01*
X540754Y262168D01*
X540745Y262222D01*
X540731Y262275D01*
X540714Y262326D01*
X540693Y262377D01*
X540669Y262425D01*
X540641Y262472D01*
X540610Y262517D01*
X540576Y262559D01*
X540539Y262599D01*
X540499Y262636D01*
X540457Y262670D01*
X540412Y262701D01*
X540365Y262729D01*
X540317Y262753D01*
X540266Y262774D01*
X540215Y262791D01*
X540162Y262805D01*
X540108Y262814D01*
X540054Y262820D01*
X540000Y262822D01*
D12*
X548177Y250254D02*
X550287Y250254D01*
X550377Y250256D01*
X550466Y250262D01*
X550555Y250271D01*
X550643Y250284D01*
X550731Y250301D01*
X550818Y250322D01*
X550905Y250346D01*
X550990Y250374D01*
X551073Y250406D01*
X551156Y250441D01*
X551236Y250480D01*
X551316Y250522D01*
X551393Y250567D01*
X551468Y250616D01*
X551541Y250667D01*
X551612Y250722D01*
X551680Y250780D01*
X551746Y250840D01*
X551810Y250904D01*
X551870Y250970D01*
X551928Y251038D01*
X551983Y251109D01*
X552034Y251182D01*
X552083Y251257D01*
X552128Y251334D01*
X552170Y251414D01*
X552209Y251494D01*
X552244Y251577D01*
X552276Y251660D01*
X552304Y251745D01*
X552328Y251832D01*
X552349Y251919D01*
X552366Y252007D01*
X552379Y252095D01*
X552388Y252184D01*
X552394Y252273D01*
X552396Y252363D01*
X552396Y257637D01*
X552394Y257727D01*
X552388Y257816D01*
X552379Y257905D01*
X552366Y257993D01*
X552349Y258081D01*
X552328Y258168D01*
X552304Y258255D01*
X552276Y258340D01*
X552244Y258423D01*
X552209Y258506D01*
X552170Y258586D01*
X552128Y258666D01*
X552083Y258743D01*
X552034Y258818D01*
X551983Y258891D01*
X551928Y258962D01*
X551870Y259030D01*
X551810Y259096D01*
X551746Y259160D01*
X551680Y259220D01*
X551612Y259278D01*
X551541Y259333D01*
X551468Y259384D01*
X551393Y259433D01*
X551316Y259478D01*
X551236Y259520D01*
X551156Y259559D01*
X551073Y259594D01*
X550990Y259626D01*
X550905Y259654D01*
X550818Y259678D01*
X550731Y259699D01*
X550643Y259716D01*
X550555Y259729D01*
X550466Y259738D01*
X550377Y259744D01*
X550287Y259746D01*
X548177Y259746D01*
X541974Y259746D02*
X541878Y259744D01*
X541783Y259738D01*
X541688Y259729D01*
X541593Y259715D01*
X541499Y259698D01*
X541406Y259677D01*
X541314Y259652D01*
X541223Y259624D01*
X541133Y259592D01*
X541044Y259556D01*
X540957Y259517D01*
X540871Y259474D01*
X540788Y259428D01*
X540706Y259379D01*
X540626Y259326D01*
X540548Y259270D01*
X540473Y259211D01*
X540400Y259149D01*
X540330Y259084D01*
X540263Y259017D01*
X540198Y258947D01*
X540136Y258874D01*
X540077Y258799D01*
X540021Y258721D01*
X539968Y258641D01*
X539919Y258560D01*
X539873Y258476D01*
X539830Y258390D01*
X539791Y258303D01*
X539755Y258214D01*
X539723Y258124D01*
X539695Y258033D01*
X539670Y257941D01*
X539649Y257848D01*
X539632Y257754D01*
X539618Y257659D01*
X539609Y257564D01*
X539603Y257469D01*
X539601Y257373D01*
X541974Y259746D02*
X542084Y259744D01*
X542193Y259738D01*
X542302Y259728D01*
X542411Y259715D01*
X542519Y259697D01*
X542626Y259675D01*
X542733Y259650D01*
X542838Y259621D01*
X542943Y259588D01*
X543046Y259551D01*
X543148Y259511D01*
X543248Y259467D01*
X543347Y259419D01*
X543444Y259368D01*
X543539Y259314D01*
X543632Y259256D01*
X543723Y259195D01*
X543811Y259130D01*
X543898Y259063D01*
X543981Y258992D01*
X544062Y258918D01*
X544141Y258842D01*
X544217Y258763D01*
X544289Y258681D01*
X544359Y258596D01*
X544426Y258509D01*
X544489Y258420D01*
X544550Y258329D01*
X544607Y258235D01*
X544660Y258140D01*
X544710Y258042D01*
X544757Y257943D01*
X544800Y257842D01*
X544839Y257740D01*
X544875Y257636D01*
X540392Y255527D02*
X540322Y255596D01*
X540255Y255668D01*
X540191Y255742D01*
X540129Y255819D01*
X540071Y255898D01*
X540016Y255979D01*
X539964Y256063D01*
X539915Y256148D01*
X539869Y256235D01*
X539827Y256324D01*
X539788Y256414D01*
X539753Y256506D01*
X539721Y256599D01*
X539693Y256693D01*
X539669Y256788D01*
X539648Y256885D01*
X539631Y256981D01*
X539618Y257079D01*
X539609Y257177D01*
X539603Y257275D01*
X539601Y257373D01*
X540392Y255527D02*
X544875Y250254D01*
X539601Y250254D01*
X535875Y255527D02*
X532711Y255527D01*
X532621Y255525D01*
X532532Y255519D01*
X532443Y255510D01*
X532355Y255497D01*
X532267Y255480D01*
X532180Y255459D01*
X532093Y255435D01*
X532008Y255407D01*
X531925Y255375D01*
X531842Y255340D01*
X531762Y255301D01*
X531682Y255259D01*
X531605Y255214D01*
X531530Y255165D01*
X531457Y255114D01*
X531386Y255059D01*
X531318Y255001D01*
X531252Y254941D01*
X531188Y254877D01*
X531128Y254811D01*
X531070Y254743D01*
X531015Y254672D01*
X530964Y254599D01*
X530915Y254524D01*
X530870Y254447D01*
X530828Y254367D01*
X530789Y254287D01*
X530754Y254204D01*
X530722Y254121D01*
X530694Y254036D01*
X530670Y253949D01*
X530649Y253862D01*
X530632Y253774D01*
X530619Y253686D01*
X530610Y253597D01*
X530604Y253508D01*
X530602Y253418D01*
X530601Y253418D02*
X530601Y252891D01*
X530603Y252790D01*
X530609Y252689D01*
X530618Y252589D01*
X530632Y252488D01*
X530649Y252389D01*
X530670Y252290D01*
X530695Y252192D01*
X530724Y252095D01*
X530756Y252000D01*
X530792Y251905D01*
X530832Y251812D01*
X530875Y251721D01*
X530921Y251631D01*
X530971Y251543D01*
X531025Y251458D01*
X531081Y251374D01*
X531141Y251292D01*
X531204Y251213D01*
X531269Y251137D01*
X531338Y251062D01*
X531409Y250991D01*
X531484Y250922D01*
X531560Y250857D01*
X531639Y250794D01*
X531721Y250734D01*
X531805Y250678D01*
X531890Y250624D01*
X531978Y250574D01*
X532068Y250528D01*
X532159Y250485D01*
X532252Y250445D01*
X532347Y250409D01*
X532442Y250377D01*
X532539Y250348D01*
X532637Y250323D01*
X532736Y250302D01*
X532835Y250285D01*
X532936Y250271D01*
X533036Y250262D01*
X533137Y250256D01*
X533238Y250254D01*
X533339Y250256D01*
X533440Y250262D01*
X533540Y250271D01*
X533641Y250285D01*
X533740Y250302D01*
X533839Y250323D01*
X533937Y250348D01*
X534034Y250377D01*
X534129Y250409D01*
X534224Y250445D01*
X534317Y250485D01*
X534408Y250528D01*
X534498Y250574D01*
X534586Y250624D01*
X534671Y250678D01*
X534755Y250734D01*
X534837Y250794D01*
X534916Y250857D01*
X534992Y250922D01*
X535067Y250991D01*
X535138Y251062D01*
X535207Y251137D01*
X535272Y251213D01*
X535335Y251292D01*
X535395Y251374D01*
X535451Y251458D01*
X535505Y251543D01*
X535555Y251631D01*
X535601Y251721D01*
X535644Y251812D01*
X535684Y251905D01*
X535720Y252000D01*
X535752Y252095D01*
X535781Y252192D01*
X535806Y252290D01*
X535827Y252389D01*
X535844Y252488D01*
X535858Y252589D01*
X535867Y252689D01*
X535873Y252790D01*
X535875Y252891D01*
X535875Y255527D01*
X535873Y255654D01*
X535867Y255782D01*
X535858Y255909D01*
X535844Y256036D01*
X535827Y256162D01*
X535806Y256287D01*
X535781Y256412D01*
X535752Y256537D01*
X535720Y256660D01*
X535684Y256782D01*
X535644Y256903D01*
X535601Y257023D01*
X535554Y257142D01*
X535503Y257259D01*
X535449Y257374D01*
X535392Y257488D01*
X535331Y257600D01*
X535267Y257710D01*
X535199Y257818D01*
X535128Y257924D01*
X535054Y258027D01*
X534977Y258129D01*
X534897Y258228D01*
X534814Y258325D01*
X534728Y258419D01*
X534639Y258510D01*
X534548Y258599D01*
X534454Y258685D01*
X534357Y258768D01*
X534258Y258848D01*
X534156Y258925D01*
X534053Y258999D01*
X533947Y259070D01*
X533839Y259138D01*
X533729Y259202D01*
X533617Y259263D01*
X533503Y259320D01*
X533388Y259374D01*
X533271Y259425D01*
X533152Y259472D01*
X533032Y259515D01*
X532911Y259555D01*
X532789Y259591D01*
X532666Y259623D01*
X532542Y259652D01*
X532417Y259677D01*
X532291Y259698D01*
X532165Y259715D01*
X532038Y259729D01*
X531911Y259738D01*
X531783Y259744D01*
X531656Y259746D01*
D10*
X561284Y284158D02*
X561284Y295842D01*
X588716Y295842D02*
X588716Y284158D01*
X575000Y262822D02*
X574946Y262820D01*
X574892Y262814D01*
X574838Y262805D01*
X574785Y262791D01*
X574734Y262774D01*
X574683Y262753D01*
X574635Y262729D01*
X574588Y262701D01*
X574543Y262670D01*
X574501Y262636D01*
X574461Y262599D01*
X574424Y262559D01*
X574390Y262517D01*
X574359Y262472D01*
X574331Y262425D01*
X574307Y262377D01*
X574286Y262326D01*
X574269Y262275D01*
X574255Y262222D01*
X574246Y262168D01*
X574240Y262114D01*
X574238Y262060D01*
X574240Y262006D01*
X574246Y261952D01*
X574255Y261898D01*
X574269Y261845D01*
X574286Y261794D01*
X574307Y261743D01*
X574331Y261695D01*
X574359Y261648D01*
X574390Y261603D01*
X574424Y261561D01*
X574461Y261521D01*
X574501Y261484D01*
X574543Y261450D01*
X574588Y261419D01*
X574635Y261391D01*
X574683Y261367D01*
X574734Y261346D01*
X574785Y261329D01*
X574838Y261315D01*
X574892Y261306D01*
X574946Y261300D01*
X575000Y261298D01*
X575054Y261300D01*
X575108Y261306D01*
X575162Y261315D01*
X575215Y261329D01*
X575266Y261346D01*
X575317Y261367D01*
X575365Y261391D01*
X575412Y261419D01*
X575457Y261450D01*
X575499Y261484D01*
X575539Y261521D01*
X575576Y261561D01*
X575610Y261603D01*
X575641Y261648D01*
X575669Y261695D01*
X575693Y261743D01*
X575714Y261794D01*
X575731Y261845D01*
X575745Y261898D01*
X575754Y261952D01*
X575760Y262006D01*
X575762Y262060D01*
X575760Y262114D01*
X575754Y262168D01*
X575745Y262222D01*
X575731Y262275D01*
X575714Y262326D01*
X575693Y262377D01*
X575669Y262425D01*
X575641Y262472D01*
X575610Y262517D01*
X575576Y262559D01*
X575539Y262599D01*
X575499Y262636D01*
X575457Y262670D01*
X575412Y262701D01*
X575365Y262729D01*
X575317Y262753D01*
X575266Y262774D01*
X575215Y262791D01*
X575162Y262805D01*
X575108Y262814D01*
X575054Y262820D01*
X575000Y262822D01*
D12*
X583177Y250254D02*
X585287Y250254D01*
X585377Y250256D01*
X585466Y250262D01*
X585555Y250271D01*
X585643Y250284D01*
X585731Y250301D01*
X585818Y250322D01*
X585905Y250346D01*
X585990Y250374D01*
X586073Y250406D01*
X586156Y250441D01*
X586236Y250480D01*
X586316Y250522D01*
X586393Y250567D01*
X586468Y250616D01*
X586541Y250667D01*
X586612Y250722D01*
X586680Y250780D01*
X586746Y250840D01*
X586810Y250904D01*
X586870Y250970D01*
X586928Y251038D01*
X586983Y251109D01*
X587034Y251182D01*
X587083Y251257D01*
X587128Y251334D01*
X587170Y251414D01*
X587209Y251494D01*
X587244Y251577D01*
X587276Y251660D01*
X587304Y251745D01*
X587328Y251832D01*
X587349Y251919D01*
X587366Y252007D01*
X587379Y252095D01*
X587388Y252184D01*
X587394Y252273D01*
X587396Y252363D01*
X587396Y257637D01*
X587394Y257727D01*
X587388Y257816D01*
X587379Y257905D01*
X587366Y257993D01*
X587349Y258081D01*
X587328Y258168D01*
X587304Y258255D01*
X587276Y258340D01*
X587244Y258423D01*
X587209Y258506D01*
X587170Y258586D01*
X587128Y258666D01*
X587083Y258743D01*
X587034Y258818D01*
X586983Y258891D01*
X586928Y258962D01*
X586870Y259030D01*
X586810Y259096D01*
X586746Y259160D01*
X586680Y259220D01*
X586612Y259278D01*
X586541Y259333D01*
X586468Y259384D01*
X586393Y259433D01*
X586316Y259478D01*
X586236Y259520D01*
X586156Y259559D01*
X586073Y259594D01*
X585990Y259626D01*
X585905Y259654D01*
X585818Y259678D01*
X585731Y259699D01*
X585643Y259716D01*
X585555Y259729D01*
X585466Y259738D01*
X585377Y259744D01*
X585287Y259746D01*
X583177Y259746D01*
X576974Y259746D02*
X576878Y259744D01*
X576783Y259738D01*
X576688Y259729D01*
X576593Y259715D01*
X576499Y259698D01*
X576406Y259677D01*
X576314Y259652D01*
X576223Y259624D01*
X576133Y259592D01*
X576044Y259556D01*
X575957Y259517D01*
X575871Y259474D01*
X575788Y259428D01*
X575706Y259379D01*
X575626Y259326D01*
X575548Y259270D01*
X575473Y259211D01*
X575400Y259149D01*
X575330Y259084D01*
X575263Y259017D01*
X575198Y258947D01*
X575136Y258874D01*
X575077Y258799D01*
X575021Y258721D01*
X574968Y258641D01*
X574919Y258560D01*
X574873Y258476D01*
X574830Y258390D01*
X574791Y258303D01*
X574755Y258214D01*
X574723Y258124D01*
X574695Y258033D01*
X574670Y257941D01*
X574649Y257848D01*
X574632Y257754D01*
X574618Y257659D01*
X574609Y257564D01*
X574603Y257469D01*
X574601Y257373D01*
X576974Y259746D02*
X577084Y259744D01*
X577193Y259738D01*
X577302Y259728D01*
X577411Y259715D01*
X577519Y259697D01*
X577626Y259675D01*
X577733Y259650D01*
X577838Y259621D01*
X577943Y259588D01*
X578046Y259551D01*
X578148Y259511D01*
X578248Y259467D01*
X578347Y259419D01*
X578444Y259368D01*
X578539Y259314D01*
X578632Y259256D01*
X578723Y259195D01*
X578811Y259130D01*
X578898Y259063D01*
X578981Y258992D01*
X579062Y258918D01*
X579141Y258842D01*
X579217Y258763D01*
X579289Y258681D01*
X579359Y258596D01*
X579426Y258509D01*
X579489Y258420D01*
X579550Y258329D01*
X579607Y258235D01*
X579660Y258140D01*
X579710Y258042D01*
X579757Y257943D01*
X579800Y257842D01*
X579839Y257740D01*
X579875Y257636D01*
X575392Y255527D02*
X575322Y255596D01*
X575255Y255668D01*
X575191Y255742D01*
X575129Y255819D01*
X575071Y255898D01*
X575016Y255979D01*
X574964Y256063D01*
X574915Y256148D01*
X574869Y256235D01*
X574827Y256324D01*
X574788Y256414D01*
X574753Y256506D01*
X574721Y256599D01*
X574693Y256693D01*
X574669Y256788D01*
X574648Y256885D01*
X574631Y256981D01*
X574618Y257079D01*
X574609Y257177D01*
X574603Y257275D01*
X574601Y257373D01*
X575392Y255527D02*
X579875Y250254D01*
X574601Y250254D01*
X570875Y258691D02*
X570875Y259746D01*
X565601Y259746D01*
X568238Y250254D01*
D10*
X483716Y394158D02*
X483716Y405842D01*
X456284Y405842D02*
X456284Y394158D01*
X470000Y427178D02*
X470054Y427180D01*
X470108Y427186D01*
X470162Y427195D01*
X470215Y427209D01*
X470266Y427226D01*
X470317Y427247D01*
X470365Y427271D01*
X470412Y427299D01*
X470457Y427330D01*
X470499Y427364D01*
X470539Y427401D01*
X470576Y427441D01*
X470610Y427483D01*
X470641Y427528D01*
X470669Y427575D01*
X470693Y427623D01*
X470714Y427674D01*
X470731Y427725D01*
X470745Y427778D01*
X470754Y427832D01*
X470760Y427886D01*
X470762Y427940D01*
X470760Y427994D01*
X470754Y428048D01*
X470745Y428102D01*
X470731Y428155D01*
X470714Y428206D01*
X470693Y428257D01*
X470669Y428305D01*
X470641Y428352D01*
X470610Y428397D01*
X470576Y428439D01*
X470539Y428479D01*
X470499Y428516D01*
X470457Y428550D01*
X470412Y428581D01*
X470365Y428609D01*
X470317Y428633D01*
X470266Y428654D01*
X470215Y428671D01*
X470162Y428685D01*
X470108Y428694D01*
X470054Y428700D01*
X470000Y428702D01*
X469946Y428700D01*
X469892Y428694D01*
X469838Y428685D01*
X469785Y428671D01*
X469734Y428654D01*
X469683Y428633D01*
X469635Y428609D01*
X469588Y428581D01*
X469543Y428550D01*
X469501Y428516D01*
X469461Y428479D01*
X469424Y428439D01*
X469390Y428397D01*
X469359Y428352D01*
X469331Y428305D01*
X469307Y428257D01*
X469286Y428206D01*
X469269Y428155D01*
X469255Y428102D01*
X469246Y428048D01*
X469240Y427994D01*
X469238Y427940D01*
X469240Y427886D01*
X469246Y427832D01*
X469255Y427778D01*
X469269Y427725D01*
X469286Y427674D01*
X469307Y427623D01*
X469331Y427575D01*
X469359Y427528D01*
X469390Y427483D01*
X469424Y427441D01*
X469461Y427401D01*
X469501Y427364D01*
X469543Y427330D01*
X469588Y427299D01*
X469635Y427271D01*
X469683Y427247D01*
X469734Y427226D01*
X469785Y427209D01*
X469838Y427195D01*
X469892Y427186D01*
X469946Y427180D01*
X470000Y427178D01*
D12*
X478377Y431254D02*
X480487Y431254D01*
X480577Y431256D01*
X480666Y431262D01*
X480755Y431271D01*
X480843Y431284D01*
X480931Y431301D01*
X481018Y431322D01*
X481105Y431346D01*
X481190Y431374D01*
X481273Y431406D01*
X481356Y431441D01*
X481436Y431480D01*
X481516Y431522D01*
X481593Y431567D01*
X481668Y431616D01*
X481741Y431667D01*
X481812Y431722D01*
X481880Y431780D01*
X481946Y431840D01*
X482010Y431904D01*
X482070Y431970D01*
X482128Y432038D01*
X482183Y432109D01*
X482234Y432182D01*
X482283Y432257D01*
X482328Y432334D01*
X482370Y432414D01*
X482409Y432494D01*
X482444Y432577D01*
X482476Y432660D01*
X482504Y432745D01*
X482528Y432832D01*
X482549Y432919D01*
X482566Y433007D01*
X482579Y433095D01*
X482588Y433184D01*
X482594Y433273D01*
X482596Y433363D01*
X482596Y438637D01*
X482594Y438727D01*
X482588Y438816D01*
X482579Y438905D01*
X482566Y438993D01*
X482549Y439081D01*
X482528Y439168D01*
X482504Y439255D01*
X482476Y439340D01*
X482444Y439423D01*
X482409Y439506D01*
X482370Y439586D01*
X482328Y439666D01*
X482283Y439743D01*
X482234Y439818D01*
X482183Y439891D01*
X482128Y439962D01*
X482070Y440030D01*
X482010Y440096D01*
X481946Y440160D01*
X481880Y440220D01*
X481812Y440278D01*
X481741Y440333D01*
X481668Y440384D01*
X481593Y440433D01*
X481516Y440478D01*
X481436Y440520D01*
X481356Y440559D01*
X481273Y440594D01*
X481190Y440626D01*
X481105Y440654D01*
X481018Y440678D01*
X480931Y440699D01*
X480843Y440716D01*
X480755Y440729D01*
X480666Y440738D01*
X480577Y440744D01*
X480487Y440746D01*
X478377Y440746D01*
X472174Y440746D02*
X472078Y440744D01*
X471983Y440738D01*
X471888Y440729D01*
X471793Y440715D01*
X471699Y440698D01*
X471606Y440677D01*
X471514Y440652D01*
X471423Y440624D01*
X471333Y440592D01*
X471244Y440556D01*
X471157Y440517D01*
X471071Y440474D01*
X470988Y440428D01*
X470906Y440379D01*
X470826Y440326D01*
X470748Y440270D01*
X470673Y440211D01*
X470600Y440149D01*
X470530Y440084D01*
X470463Y440017D01*
X470398Y439947D01*
X470336Y439874D01*
X470277Y439799D01*
X470221Y439721D01*
X470168Y439641D01*
X470119Y439560D01*
X470073Y439476D01*
X470030Y439390D01*
X469991Y439303D01*
X469955Y439214D01*
X469923Y439124D01*
X469895Y439033D01*
X469870Y438941D01*
X469849Y438848D01*
X469832Y438754D01*
X469818Y438659D01*
X469809Y438564D01*
X469803Y438469D01*
X469801Y438373D01*
X472174Y440746D02*
X472284Y440744D01*
X472393Y440738D01*
X472502Y440728D01*
X472611Y440715D01*
X472719Y440697D01*
X472826Y440675D01*
X472933Y440650D01*
X473038Y440621D01*
X473143Y440588D01*
X473246Y440551D01*
X473348Y440511D01*
X473448Y440467D01*
X473547Y440419D01*
X473644Y440368D01*
X473739Y440314D01*
X473832Y440256D01*
X473923Y440195D01*
X474011Y440130D01*
X474098Y440063D01*
X474181Y439992D01*
X474262Y439918D01*
X474341Y439842D01*
X474417Y439763D01*
X474489Y439681D01*
X474559Y439596D01*
X474626Y439509D01*
X474689Y439420D01*
X474750Y439329D01*
X474807Y439235D01*
X474860Y439140D01*
X474910Y439042D01*
X474957Y438943D01*
X475000Y438842D01*
X475039Y438740D01*
X475075Y438636D01*
X470592Y436527D02*
X470522Y436596D01*
X470455Y436668D01*
X470391Y436742D01*
X470329Y436819D01*
X470271Y436898D01*
X470216Y436979D01*
X470164Y437063D01*
X470115Y437148D01*
X470069Y437235D01*
X470027Y437324D01*
X469988Y437414D01*
X469953Y437506D01*
X469921Y437599D01*
X469893Y437693D01*
X469869Y437788D01*
X469848Y437885D01*
X469831Y437981D01*
X469818Y438079D01*
X469809Y438177D01*
X469803Y438275D01*
X469801Y438373D01*
X470592Y436527D02*
X475075Y431254D01*
X469801Y431254D01*
X466075Y436000D02*
X466073Y436187D01*
X466066Y436373D01*
X466055Y436560D01*
X466039Y436746D01*
X466019Y436931D01*
X465995Y437117D01*
X465966Y437301D01*
X465933Y437485D01*
X465895Y437668D01*
X465853Y437850D01*
X465807Y438031D01*
X465756Y438210D01*
X465701Y438389D01*
X465642Y438566D01*
X465579Y438742D01*
X465511Y438916D01*
X465440Y439088D01*
X465364Y439259D01*
X465284Y439428D01*
X465254Y439509D01*
X465220Y439589D01*
X465183Y439667D01*
X465143Y439743D01*
X465099Y439818D01*
X465053Y439890D01*
X465002Y439961D01*
X464949Y440029D01*
X464893Y440095D01*
X464834Y440158D01*
X464772Y440218D01*
X464708Y440276D01*
X464641Y440331D01*
X464572Y440383D01*
X464501Y440431D01*
X464427Y440477D01*
X464352Y440519D01*
X464274Y440558D01*
X464195Y440593D01*
X464115Y440625D01*
X464033Y440653D01*
X463951Y440677D01*
X463867Y440698D01*
X463782Y440715D01*
X463697Y440729D01*
X463611Y440738D01*
X463524Y440744D01*
X463438Y440746D01*
X463352Y440744D01*
X463265Y440738D01*
X463179Y440729D01*
X463094Y440715D01*
X463009Y440698D01*
X462925Y440677D01*
X462843Y440653D01*
X462761Y440625D01*
X462681Y440593D01*
X462602Y440558D01*
X462524Y440519D01*
X462449Y440477D01*
X462375Y440431D01*
X462304Y440383D01*
X462235Y440331D01*
X462168Y440276D01*
X462104Y440218D01*
X462042Y440158D01*
X461983Y440095D01*
X461927Y440029D01*
X461874Y439961D01*
X461824Y439890D01*
X461777Y439818D01*
X461733Y439743D01*
X461693Y439667D01*
X461656Y439589D01*
X461622Y439509D01*
X461592Y439428D01*
X461512Y439259D01*
X461436Y439088D01*
X461365Y438916D01*
X461297Y438742D01*
X461234Y438566D01*
X461175Y438389D01*
X461120Y438210D01*
X461069Y438031D01*
X461023Y437850D01*
X460981Y437668D01*
X460943Y437485D01*
X460910Y437301D01*
X460881Y437117D01*
X460857Y436931D01*
X460837Y436746D01*
X460821Y436560D01*
X460810Y436373D01*
X460803Y436187D01*
X460801Y436000D01*
X466074Y436000D02*
X466072Y435813D01*
X466065Y435627D01*
X466054Y435440D01*
X466038Y435254D01*
X466018Y435069D01*
X465994Y434883D01*
X465965Y434699D01*
X465932Y434515D01*
X465894Y434332D01*
X465852Y434150D01*
X465806Y433969D01*
X465755Y433790D01*
X465700Y433611D01*
X465641Y433434D01*
X465578Y433258D01*
X465510Y433084D01*
X465439Y432912D01*
X465363Y432741D01*
X465283Y432572D01*
X465284Y432572D02*
X465254Y432491D01*
X465220Y432411D01*
X465183Y432333D01*
X465143Y432257D01*
X465099Y432182D01*
X465052Y432110D01*
X465002Y432039D01*
X464949Y431971D01*
X464893Y431905D01*
X464834Y431842D01*
X464772Y431782D01*
X464708Y431724D01*
X464641Y431669D01*
X464572Y431617D01*
X464501Y431569D01*
X464427Y431523D01*
X464352Y431481D01*
X464274Y431442D01*
X464195Y431407D01*
X464115Y431375D01*
X464033Y431347D01*
X463951Y431323D01*
X463867Y431302D01*
X463782Y431285D01*
X463697Y431271D01*
X463611Y431262D01*
X463524Y431256D01*
X463438Y431254D01*
X461593Y432572D02*
X461513Y432741D01*
X461437Y432912D01*
X461366Y433084D01*
X461298Y433258D01*
X461235Y433434D01*
X461176Y433611D01*
X461121Y433790D01*
X461070Y433969D01*
X461024Y434150D01*
X460982Y434332D01*
X460944Y434515D01*
X460911Y434699D01*
X460882Y434883D01*
X460858Y435069D01*
X460838Y435254D01*
X460822Y435440D01*
X460811Y435627D01*
X460804Y435813D01*
X460802Y436000D01*
X461592Y432572D02*
X461622Y432491D01*
X461656Y432411D01*
X461693Y432333D01*
X461733Y432257D01*
X461777Y432182D01*
X461824Y432110D01*
X461874Y432039D01*
X461927Y431971D01*
X461983Y431905D01*
X462042Y431842D01*
X462104Y431782D01*
X462168Y431724D01*
X462235Y431669D01*
X462304Y431617D01*
X462375Y431569D01*
X462449Y431523D01*
X462524Y431481D01*
X462602Y431442D01*
X462681Y431407D01*
X462761Y431375D01*
X462843Y431347D01*
X462925Y431323D01*
X463009Y431302D01*
X463094Y431285D01*
X463179Y431271D01*
X463265Y431262D01*
X463352Y431256D01*
X463438Y431254D01*
X465547Y433363D02*
X461329Y438637D01*
D10*
X518716Y405842D02*
X518716Y394158D01*
X491284Y394158D02*
X491284Y405842D01*
X505000Y427178D02*
X505054Y427180D01*
X505108Y427186D01*
X505162Y427195D01*
X505215Y427209D01*
X505266Y427226D01*
X505317Y427247D01*
X505365Y427271D01*
X505412Y427299D01*
X505457Y427330D01*
X505499Y427364D01*
X505539Y427401D01*
X505576Y427441D01*
X505610Y427483D01*
X505641Y427528D01*
X505669Y427575D01*
X505693Y427623D01*
X505714Y427674D01*
X505731Y427725D01*
X505745Y427778D01*
X505754Y427832D01*
X505760Y427886D01*
X505762Y427940D01*
X505760Y427994D01*
X505754Y428048D01*
X505745Y428102D01*
X505731Y428155D01*
X505714Y428206D01*
X505693Y428257D01*
X505669Y428305D01*
X505641Y428352D01*
X505610Y428397D01*
X505576Y428439D01*
X505539Y428479D01*
X505499Y428516D01*
X505457Y428550D01*
X505412Y428581D01*
X505365Y428609D01*
X505317Y428633D01*
X505266Y428654D01*
X505215Y428671D01*
X505162Y428685D01*
X505108Y428694D01*
X505054Y428700D01*
X505000Y428702D01*
X504946Y428700D01*
X504892Y428694D01*
X504838Y428685D01*
X504785Y428671D01*
X504734Y428654D01*
X504683Y428633D01*
X504635Y428609D01*
X504588Y428581D01*
X504543Y428550D01*
X504501Y428516D01*
X504461Y428479D01*
X504424Y428439D01*
X504390Y428397D01*
X504359Y428352D01*
X504331Y428305D01*
X504307Y428257D01*
X504286Y428206D01*
X504269Y428155D01*
X504255Y428102D01*
X504246Y428048D01*
X504240Y427994D01*
X504238Y427940D01*
X504240Y427886D01*
X504246Y427832D01*
X504255Y427778D01*
X504269Y427725D01*
X504286Y427674D01*
X504307Y427623D01*
X504331Y427575D01*
X504359Y427528D01*
X504390Y427483D01*
X504424Y427441D01*
X504461Y427401D01*
X504501Y427364D01*
X504543Y427330D01*
X504588Y427299D01*
X504635Y427271D01*
X504683Y427247D01*
X504734Y427226D01*
X504785Y427209D01*
X504838Y427195D01*
X504892Y427186D01*
X504946Y427180D01*
X505000Y427178D01*
D12*
X513377Y431254D02*
X515487Y431254D01*
X515577Y431256D01*
X515666Y431262D01*
X515755Y431271D01*
X515843Y431284D01*
X515931Y431301D01*
X516018Y431322D01*
X516105Y431346D01*
X516190Y431374D01*
X516273Y431406D01*
X516356Y431441D01*
X516436Y431480D01*
X516516Y431522D01*
X516593Y431567D01*
X516668Y431616D01*
X516741Y431667D01*
X516812Y431722D01*
X516880Y431780D01*
X516946Y431840D01*
X517010Y431904D01*
X517070Y431970D01*
X517128Y432038D01*
X517183Y432109D01*
X517234Y432182D01*
X517283Y432257D01*
X517328Y432334D01*
X517370Y432414D01*
X517409Y432494D01*
X517444Y432577D01*
X517476Y432660D01*
X517504Y432745D01*
X517528Y432832D01*
X517549Y432919D01*
X517566Y433007D01*
X517579Y433095D01*
X517588Y433184D01*
X517594Y433273D01*
X517596Y433363D01*
X517596Y438637D01*
X517594Y438727D01*
X517588Y438816D01*
X517579Y438905D01*
X517566Y438993D01*
X517549Y439081D01*
X517528Y439168D01*
X517504Y439255D01*
X517476Y439340D01*
X517444Y439423D01*
X517409Y439506D01*
X517370Y439586D01*
X517328Y439666D01*
X517283Y439743D01*
X517234Y439818D01*
X517183Y439891D01*
X517128Y439962D01*
X517070Y440030D01*
X517010Y440096D01*
X516946Y440160D01*
X516880Y440220D01*
X516812Y440278D01*
X516741Y440333D01*
X516668Y440384D01*
X516593Y440433D01*
X516516Y440478D01*
X516436Y440520D01*
X516356Y440559D01*
X516273Y440594D01*
X516190Y440626D01*
X516105Y440654D01*
X516018Y440678D01*
X515931Y440699D01*
X515843Y440716D01*
X515755Y440729D01*
X515666Y440738D01*
X515577Y440744D01*
X515487Y440746D01*
X513377Y440746D01*
X507174Y440746D02*
X507078Y440744D01*
X506983Y440738D01*
X506888Y440729D01*
X506793Y440715D01*
X506699Y440698D01*
X506606Y440677D01*
X506514Y440652D01*
X506423Y440624D01*
X506333Y440592D01*
X506244Y440556D01*
X506157Y440517D01*
X506071Y440474D01*
X505988Y440428D01*
X505906Y440379D01*
X505826Y440326D01*
X505748Y440270D01*
X505673Y440211D01*
X505600Y440149D01*
X505530Y440084D01*
X505463Y440017D01*
X505398Y439947D01*
X505336Y439874D01*
X505277Y439799D01*
X505221Y439721D01*
X505168Y439641D01*
X505119Y439560D01*
X505073Y439476D01*
X505030Y439390D01*
X504991Y439303D01*
X504955Y439214D01*
X504923Y439124D01*
X504895Y439033D01*
X504870Y438941D01*
X504849Y438848D01*
X504832Y438754D01*
X504818Y438659D01*
X504809Y438564D01*
X504803Y438469D01*
X504801Y438373D01*
X507174Y440746D02*
X507284Y440744D01*
X507393Y440738D01*
X507502Y440728D01*
X507611Y440715D01*
X507719Y440697D01*
X507826Y440675D01*
X507933Y440650D01*
X508038Y440621D01*
X508143Y440588D01*
X508246Y440551D01*
X508348Y440511D01*
X508448Y440467D01*
X508547Y440419D01*
X508644Y440368D01*
X508739Y440314D01*
X508832Y440256D01*
X508923Y440195D01*
X509011Y440130D01*
X509098Y440063D01*
X509181Y439992D01*
X509262Y439918D01*
X509341Y439842D01*
X509417Y439763D01*
X509489Y439681D01*
X509559Y439596D01*
X509626Y439509D01*
X509689Y439420D01*
X509750Y439329D01*
X509807Y439235D01*
X509860Y439140D01*
X509910Y439042D01*
X509957Y438943D01*
X510000Y438842D01*
X510039Y438740D01*
X510075Y438636D01*
X505592Y436527D02*
X505522Y436596D01*
X505455Y436668D01*
X505391Y436742D01*
X505329Y436819D01*
X505271Y436898D01*
X505216Y436979D01*
X505164Y437063D01*
X505115Y437148D01*
X505069Y437235D01*
X505027Y437324D01*
X504988Y437414D01*
X504953Y437506D01*
X504921Y437599D01*
X504893Y437693D01*
X504869Y437788D01*
X504848Y437885D01*
X504831Y437981D01*
X504818Y438079D01*
X504809Y438177D01*
X504803Y438275D01*
X504801Y438373D01*
X505592Y436527D02*
X510075Y431254D01*
X504801Y431254D01*
X501075Y438637D02*
X498438Y440746D01*
X498438Y431254D01*
X501075Y431254D02*
X495801Y431254D01*
D10*
X553716Y405842D02*
X553716Y394158D01*
X526284Y394158D02*
X526284Y405842D01*
X540000Y427178D02*
X540054Y427180D01*
X540108Y427186D01*
X540162Y427195D01*
X540215Y427209D01*
X540266Y427226D01*
X540317Y427247D01*
X540365Y427271D01*
X540412Y427299D01*
X540457Y427330D01*
X540499Y427364D01*
X540539Y427401D01*
X540576Y427441D01*
X540610Y427483D01*
X540641Y427528D01*
X540669Y427575D01*
X540693Y427623D01*
X540714Y427674D01*
X540731Y427725D01*
X540745Y427778D01*
X540754Y427832D01*
X540760Y427886D01*
X540762Y427940D01*
X540760Y427994D01*
X540754Y428048D01*
X540745Y428102D01*
X540731Y428155D01*
X540714Y428206D01*
X540693Y428257D01*
X540669Y428305D01*
X540641Y428352D01*
X540610Y428397D01*
X540576Y428439D01*
X540539Y428479D01*
X540499Y428516D01*
X540457Y428550D01*
X540412Y428581D01*
X540365Y428609D01*
X540317Y428633D01*
X540266Y428654D01*
X540215Y428671D01*
X540162Y428685D01*
X540108Y428694D01*
X540054Y428700D01*
X540000Y428702D01*
X539946Y428700D01*
X539892Y428694D01*
X539838Y428685D01*
X539785Y428671D01*
X539734Y428654D01*
X539683Y428633D01*
X539635Y428609D01*
X539588Y428581D01*
X539543Y428550D01*
X539501Y428516D01*
X539461Y428479D01*
X539424Y428439D01*
X539390Y428397D01*
X539359Y428352D01*
X539331Y428305D01*
X539307Y428257D01*
X539286Y428206D01*
X539269Y428155D01*
X539255Y428102D01*
X539246Y428048D01*
X539240Y427994D01*
X539238Y427940D01*
X539240Y427886D01*
X539246Y427832D01*
X539255Y427778D01*
X539269Y427725D01*
X539286Y427674D01*
X539307Y427623D01*
X539331Y427575D01*
X539359Y427528D01*
X539390Y427483D01*
X539424Y427441D01*
X539461Y427401D01*
X539501Y427364D01*
X539543Y427330D01*
X539588Y427299D01*
X539635Y427271D01*
X539683Y427247D01*
X539734Y427226D01*
X539785Y427209D01*
X539838Y427195D01*
X539892Y427186D01*
X539946Y427180D01*
X540000Y427178D01*
D12*
X548377Y431254D02*
X550487Y431254D01*
X550577Y431256D01*
X550666Y431262D01*
X550755Y431271D01*
X550843Y431284D01*
X550931Y431301D01*
X551018Y431322D01*
X551105Y431346D01*
X551190Y431374D01*
X551273Y431406D01*
X551356Y431441D01*
X551436Y431480D01*
X551516Y431522D01*
X551593Y431567D01*
X551668Y431616D01*
X551741Y431667D01*
X551812Y431722D01*
X551880Y431780D01*
X551946Y431840D01*
X552010Y431904D01*
X552070Y431970D01*
X552128Y432038D01*
X552183Y432109D01*
X552234Y432182D01*
X552283Y432257D01*
X552328Y432334D01*
X552370Y432414D01*
X552409Y432494D01*
X552444Y432577D01*
X552476Y432660D01*
X552504Y432745D01*
X552528Y432832D01*
X552549Y432919D01*
X552566Y433007D01*
X552579Y433095D01*
X552588Y433184D01*
X552594Y433273D01*
X552596Y433363D01*
X552596Y438637D01*
X552594Y438727D01*
X552588Y438816D01*
X552579Y438905D01*
X552566Y438993D01*
X552549Y439081D01*
X552528Y439168D01*
X552504Y439255D01*
X552476Y439340D01*
X552444Y439423D01*
X552409Y439506D01*
X552370Y439586D01*
X552328Y439666D01*
X552283Y439743D01*
X552234Y439818D01*
X552183Y439891D01*
X552128Y439962D01*
X552070Y440030D01*
X552010Y440096D01*
X551946Y440160D01*
X551880Y440220D01*
X551812Y440278D01*
X551741Y440333D01*
X551668Y440384D01*
X551593Y440433D01*
X551516Y440478D01*
X551436Y440520D01*
X551356Y440559D01*
X551273Y440594D01*
X551190Y440626D01*
X551105Y440654D01*
X551018Y440678D01*
X550931Y440699D01*
X550843Y440716D01*
X550755Y440729D01*
X550666Y440738D01*
X550577Y440744D01*
X550487Y440746D01*
X548377Y440746D01*
X542174Y440746D02*
X542078Y440744D01*
X541983Y440738D01*
X541888Y440729D01*
X541793Y440715D01*
X541699Y440698D01*
X541606Y440677D01*
X541514Y440652D01*
X541423Y440624D01*
X541333Y440592D01*
X541244Y440556D01*
X541157Y440517D01*
X541071Y440474D01*
X540988Y440428D01*
X540906Y440379D01*
X540826Y440326D01*
X540748Y440270D01*
X540673Y440211D01*
X540600Y440149D01*
X540530Y440084D01*
X540463Y440017D01*
X540398Y439947D01*
X540336Y439874D01*
X540277Y439799D01*
X540221Y439721D01*
X540168Y439641D01*
X540119Y439560D01*
X540073Y439476D01*
X540030Y439390D01*
X539991Y439303D01*
X539955Y439214D01*
X539923Y439124D01*
X539895Y439033D01*
X539870Y438941D01*
X539849Y438848D01*
X539832Y438754D01*
X539818Y438659D01*
X539809Y438564D01*
X539803Y438469D01*
X539801Y438373D01*
X542174Y440746D02*
X542284Y440744D01*
X542393Y440738D01*
X542502Y440728D01*
X542611Y440715D01*
X542719Y440697D01*
X542826Y440675D01*
X542933Y440650D01*
X543038Y440621D01*
X543143Y440588D01*
X543246Y440551D01*
X543348Y440511D01*
X543448Y440467D01*
X543547Y440419D01*
X543644Y440368D01*
X543739Y440314D01*
X543832Y440256D01*
X543923Y440195D01*
X544011Y440130D01*
X544098Y440063D01*
X544181Y439992D01*
X544262Y439918D01*
X544341Y439842D01*
X544417Y439763D01*
X544489Y439681D01*
X544559Y439596D01*
X544626Y439509D01*
X544689Y439420D01*
X544750Y439329D01*
X544807Y439235D01*
X544860Y439140D01*
X544910Y439042D01*
X544957Y438943D01*
X545000Y438842D01*
X545039Y438740D01*
X545075Y438636D01*
X540592Y436527D02*
X540522Y436596D01*
X540455Y436668D01*
X540391Y436742D01*
X540329Y436819D01*
X540271Y436898D01*
X540216Y436979D01*
X540164Y437063D01*
X540115Y437148D01*
X540069Y437235D01*
X540027Y437324D01*
X539988Y437414D01*
X539953Y437506D01*
X539921Y437599D01*
X539893Y437693D01*
X539869Y437788D01*
X539848Y437885D01*
X539831Y437981D01*
X539818Y438079D01*
X539809Y438177D01*
X539803Y438275D01*
X539801Y438373D01*
X540592Y436527D02*
X545075Y431254D01*
X539801Y431254D01*
X530801Y438373D02*
X530803Y438469D01*
X530809Y438564D01*
X530818Y438659D01*
X530832Y438754D01*
X530849Y438848D01*
X530870Y438941D01*
X530895Y439033D01*
X530923Y439124D01*
X530955Y439214D01*
X530991Y439303D01*
X531030Y439390D01*
X531073Y439476D01*
X531119Y439560D01*
X531168Y439641D01*
X531221Y439721D01*
X531277Y439799D01*
X531336Y439874D01*
X531398Y439947D01*
X531463Y440017D01*
X531530Y440084D01*
X531600Y440149D01*
X531673Y440211D01*
X531748Y440270D01*
X531826Y440326D01*
X531906Y440379D01*
X531988Y440428D01*
X532071Y440474D01*
X532157Y440517D01*
X532244Y440556D01*
X532333Y440592D01*
X532423Y440624D01*
X532514Y440652D01*
X532606Y440677D01*
X532699Y440698D01*
X532793Y440715D01*
X532888Y440729D01*
X532983Y440738D01*
X533078Y440744D01*
X533174Y440746D01*
X533284Y440744D01*
X533393Y440738D01*
X533502Y440728D01*
X533611Y440715D01*
X533719Y440697D01*
X533826Y440675D01*
X533933Y440650D01*
X534038Y440621D01*
X534143Y440588D01*
X534246Y440551D01*
X534348Y440511D01*
X534448Y440467D01*
X534547Y440419D01*
X534644Y440368D01*
X534739Y440314D01*
X534832Y440256D01*
X534923Y440195D01*
X535011Y440130D01*
X535098Y440063D01*
X535181Y439992D01*
X535262Y439918D01*
X535341Y439842D01*
X535417Y439763D01*
X535489Y439681D01*
X535559Y439596D01*
X535626Y439509D01*
X535689Y439420D01*
X535750Y439329D01*
X535807Y439235D01*
X535860Y439140D01*
X535910Y439042D01*
X535957Y438943D01*
X536000Y438842D01*
X536039Y438740D01*
X536075Y438636D01*
X531592Y436527D02*
X531522Y436596D01*
X531455Y436668D01*
X531391Y436742D01*
X531329Y436819D01*
X531271Y436898D01*
X531216Y436979D01*
X531164Y437063D01*
X531115Y437148D01*
X531069Y437235D01*
X531027Y437324D01*
X530988Y437414D01*
X530953Y437506D01*
X530921Y437599D01*
X530893Y437693D01*
X530869Y437788D01*
X530848Y437885D01*
X530831Y437981D01*
X530818Y438079D01*
X530809Y438177D01*
X530803Y438275D01*
X530801Y438373D01*
X531592Y436527D02*
X536075Y431254D01*
X530801Y431254D01*
D10*
X588716Y405842D02*
X588716Y394158D01*
X561284Y394158D02*
X561284Y405842D01*
X575000Y427178D02*
X575054Y427180D01*
X575108Y427186D01*
X575162Y427195D01*
X575215Y427209D01*
X575266Y427226D01*
X575317Y427247D01*
X575365Y427271D01*
X575412Y427299D01*
X575457Y427330D01*
X575499Y427364D01*
X575539Y427401D01*
X575576Y427441D01*
X575610Y427483D01*
X575641Y427528D01*
X575669Y427575D01*
X575693Y427623D01*
X575714Y427674D01*
X575731Y427725D01*
X575745Y427778D01*
X575754Y427832D01*
X575760Y427886D01*
X575762Y427940D01*
X575760Y427994D01*
X575754Y428048D01*
X575745Y428102D01*
X575731Y428155D01*
X575714Y428206D01*
X575693Y428257D01*
X575669Y428305D01*
X575641Y428352D01*
X575610Y428397D01*
X575576Y428439D01*
X575539Y428479D01*
X575499Y428516D01*
X575457Y428550D01*
X575412Y428581D01*
X575365Y428609D01*
X575317Y428633D01*
X575266Y428654D01*
X575215Y428671D01*
X575162Y428685D01*
X575108Y428694D01*
X575054Y428700D01*
X575000Y428702D01*
X574946Y428700D01*
X574892Y428694D01*
X574838Y428685D01*
X574785Y428671D01*
X574734Y428654D01*
X574683Y428633D01*
X574635Y428609D01*
X574588Y428581D01*
X574543Y428550D01*
X574501Y428516D01*
X574461Y428479D01*
X574424Y428439D01*
X574390Y428397D01*
X574359Y428352D01*
X574331Y428305D01*
X574307Y428257D01*
X574286Y428206D01*
X574269Y428155D01*
X574255Y428102D01*
X574246Y428048D01*
X574240Y427994D01*
X574238Y427940D01*
X574240Y427886D01*
X574246Y427832D01*
X574255Y427778D01*
X574269Y427725D01*
X574286Y427674D01*
X574307Y427623D01*
X574331Y427575D01*
X574359Y427528D01*
X574390Y427483D01*
X574424Y427441D01*
X574461Y427401D01*
X574501Y427364D01*
X574543Y427330D01*
X574588Y427299D01*
X574635Y427271D01*
X574683Y427247D01*
X574734Y427226D01*
X574785Y427209D01*
X574838Y427195D01*
X574892Y427186D01*
X574946Y427180D01*
X575000Y427178D01*
D12*
X583377Y431254D02*
X585487Y431254D01*
X585577Y431256D01*
X585666Y431262D01*
X585755Y431271D01*
X585843Y431284D01*
X585931Y431301D01*
X586018Y431322D01*
X586105Y431346D01*
X586190Y431374D01*
X586273Y431406D01*
X586356Y431441D01*
X586436Y431480D01*
X586516Y431522D01*
X586593Y431567D01*
X586668Y431616D01*
X586741Y431667D01*
X586812Y431722D01*
X586880Y431780D01*
X586946Y431840D01*
X587010Y431904D01*
X587070Y431970D01*
X587128Y432038D01*
X587183Y432109D01*
X587234Y432182D01*
X587283Y432257D01*
X587328Y432334D01*
X587370Y432414D01*
X587409Y432494D01*
X587444Y432577D01*
X587476Y432660D01*
X587504Y432745D01*
X587528Y432832D01*
X587549Y432919D01*
X587566Y433007D01*
X587579Y433095D01*
X587588Y433184D01*
X587594Y433273D01*
X587596Y433363D01*
X587596Y438637D01*
X587594Y438727D01*
X587588Y438816D01*
X587579Y438905D01*
X587566Y438993D01*
X587549Y439081D01*
X587528Y439168D01*
X587504Y439255D01*
X587476Y439340D01*
X587444Y439423D01*
X587409Y439506D01*
X587370Y439586D01*
X587328Y439666D01*
X587283Y439743D01*
X587234Y439818D01*
X587183Y439891D01*
X587128Y439962D01*
X587070Y440030D01*
X587010Y440096D01*
X586946Y440160D01*
X586880Y440220D01*
X586812Y440278D01*
X586741Y440333D01*
X586668Y440384D01*
X586593Y440433D01*
X586516Y440478D01*
X586436Y440520D01*
X586356Y440559D01*
X586273Y440594D01*
X586190Y440626D01*
X586105Y440654D01*
X586018Y440678D01*
X585931Y440699D01*
X585843Y440716D01*
X585755Y440729D01*
X585666Y440738D01*
X585577Y440744D01*
X585487Y440746D01*
X583377Y440746D01*
X577174Y440746D02*
X577078Y440744D01*
X576983Y440738D01*
X576888Y440729D01*
X576793Y440715D01*
X576699Y440698D01*
X576606Y440677D01*
X576514Y440652D01*
X576423Y440624D01*
X576333Y440592D01*
X576244Y440556D01*
X576157Y440517D01*
X576071Y440474D01*
X575988Y440428D01*
X575906Y440379D01*
X575826Y440326D01*
X575748Y440270D01*
X575673Y440211D01*
X575600Y440149D01*
X575530Y440084D01*
X575463Y440017D01*
X575398Y439947D01*
X575336Y439874D01*
X575277Y439799D01*
X575221Y439721D01*
X575168Y439641D01*
X575119Y439560D01*
X575073Y439476D01*
X575030Y439390D01*
X574991Y439303D01*
X574955Y439214D01*
X574923Y439124D01*
X574895Y439033D01*
X574870Y438941D01*
X574849Y438848D01*
X574832Y438754D01*
X574818Y438659D01*
X574809Y438564D01*
X574803Y438469D01*
X574801Y438373D01*
X577174Y440746D02*
X577284Y440744D01*
X577393Y440738D01*
X577502Y440728D01*
X577611Y440715D01*
X577719Y440697D01*
X577826Y440675D01*
X577933Y440650D01*
X578038Y440621D01*
X578143Y440588D01*
X578246Y440551D01*
X578348Y440511D01*
X578448Y440467D01*
X578547Y440419D01*
X578644Y440368D01*
X578739Y440314D01*
X578832Y440256D01*
X578923Y440195D01*
X579011Y440130D01*
X579098Y440063D01*
X579181Y439992D01*
X579262Y439918D01*
X579341Y439842D01*
X579417Y439763D01*
X579489Y439681D01*
X579559Y439596D01*
X579626Y439509D01*
X579689Y439420D01*
X579750Y439329D01*
X579807Y439235D01*
X579860Y439140D01*
X579910Y439042D01*
X579957Y438943D01*
X580000Y438842D01*
X580039Y438740D01*
X580075Y438636D01*
X575592Y436527D02*
X575522Y436596D01*
X575455Y436668D01*
X575391Y436742D01*
X575329Y436819D01*
X575271Y436898D01*
X575216Y436979D01*
X575164Y437063D01*
X575115Y437148D01*
X575069Y437235D01*
X575027Y437324D01*
X574988Y437414D01*
X574953Y437506D01*
X574921Y437599D01*
X574893Y437693D01*
X574869Y437788D01*
X574848Y437885D01*
X574831Y437981D01*
X574818Y438079D01*
X574809Y438177D01*
X574803Y438275D01*
X574801Y438373D01*
X575592Y436527D02*
X580075Y431254D01*
X574801Y431254D01*
X571075Y431254D02*
X568438Y431254D01*
X568337Y431256D01*
X568236Y431262D01*
X568136Y431271D01*
X568035Y431285D01*
X567936Y431302D01*
X567837Y431323D01*
X567739Y431348D01*
X567642Y431377D01*
X567547Y431409D01*
X567452Y431445D01*
X567359Y431485D01*
X567268Y431528D01*
X567178Y431574D01*
X567090Y431624D01*
X567005Y431678D01*
X566921Y431734D01*
X566839Y431794D01*
X566760Y431857D01*
X566684Y431922D01*
X566609Y431991D01*
X566538Y432062D01*
X566469Y432137D01*
X566404Y432213D01*
X566341Y432292D01*
X566281Y432374D01*
X566225Y432458D01*
X566171Y432543D01*
X566121Y432631D01*
X566075Y432721D01*
X566032Y432812D01*
X565992Y432905D01*
X565956Y433000D01*
X565924Y433095D01*
X565895Y433192D01*
X565870Y433290D01*
X565849Y433389D01*
X565832Y433488D01*
X565818Y433589D01*
X565809Y433689D01*
X565803Y433790D01*
X565801Y433891D01*
X565803Y433992D01*
X565809Y434093D01*
X565818Y434193D01*
X565832Y434294D01*
X565849Y434393D01*
X565870Y434492D01*
X565895Y434590D01*
X565924Y434687D01*
X565956Y434782D01*
X565992Y434877D01*
X566032Y434970D01*
X566075Y435061D01*
X566121Y435151D01*
X566171Y435239D01*
X566225Y435324D01*
X566281Y435408D01*
X566341Y435490D01*
X566404Y435569D01*
X566469Y435645D01*
X566538Y435720D01*
X566609Y435791D01*
X566684Y435860D01*
X566760Y435925D01*
X566839Y435988D01*
X566921Y436048D01*
X567005Y436104D01*
X567090Y436158D01*
X567178Y436208D01*
X567268Y436254D01*
X567359Y436297D01*
X567452Y436337D01*
X567547Y436373D01*
X567642Y436405D01*
X567739Y436434D01*
X567837Y436459D01*
X567936Y436480D01*
X568035Y436497D01*
X568136Y436511D01*
X568236Y436520D01*
X568337Y436526D01*
X568438Y436528D01*
X567911Y440746D02*
X571075Y440746D01*
X567911Y440746D02*
X567820Y440744D01*
X567730Y440738D01*
X567639Y440728D01*
X567550Y440715D01*
X567461Y440697D01*
X567372Y440676D01*
X567285Y440651D01*
X567199Y440622D01*
X567114Y440590D01*
X567031Y440554D01*
X566949Y440514D01*
X566870Y440471D01*
X566792Y440424D01*
X566716Y440375D01*
X566642Y440322D01*
X566571Y440265D01*
X566502Y440206D01*
X566436Y440144D01*
X566372Y440079D01*
X566312Y440012D01*
X566254Y439942D01*
X566199Y439869D01*
X566148Y439795D01*
X566100Y439718D01*
X566055Y439639D01*
X566014Y439558D01*
X565976Y439475D01*
X565942Y439391D01*
X565911Y439306D01*
X565884Y439219D01*
X565861Y439132D01*
X565841Y439043D01*
X565826Y438953D01*
X565814Y438863D01*
X565806Y438773D01*
X565802Y438682D01*
X565802Y438592D01*
X565806Y438501D01*
X565814Y438411D01*
X565826Y438321D01*
X565841Y438231D01*
X565861Y438142D01*
X565884Y438055D01*
X565911Y437968D01*
X565942Y437883D01*
X565976Y437799D01*
X566014Y437716D01*
X566055Y437635D01*
X566100Y437556D01*
X566148Y437479D01*
X566199Y437405D01*
X566254Y437332D01*
X566312Y437262D01*
X566372Y437195D01*
X566436Y437130D01*
X566502Y437068D01*
X566571Y437009D01*
X566642Y436952D01*
X566716Y436899D01*
X566792Y436850D01*
X566870Y436803D01*
X566949Y436760D01*
X567031Y436720D01*
X567114Y436684D01*
X567199Y436652D01*
X567285Y436623D01*
X567372Y436598D01*
X567461Y436577D01*
X567550Y436559D01*
X567639Y436546D01*
X567730Y436536D01*
X567820Y436530D01*
X567911Y436528D01*
X567911Y436527D02*
X570020Y436527D01*
M02*
