G04 EAGLE Gerber RS-274X export*
G75*
%MOMM*%
%FSLAX34Y34*%
%LPD*%
%INCopper Layer 15*%
%IPPOS*%
%AMOC8*
5,1,8,0,0,1.08239X$1,22.5*%
G01*
%ADD10C,2.057400*%
%ADD11C,1.524000*%
%ADD12C,0.756400*%

G36*
X679348Y10162D02*
X679348Y10162D01*
X679357Y10161D01*
X679445Y10182D01*
X679535Y10200D01*
X679542Y10205D01*
X679550Y10207D01*
X679623Y10261D01*
X679699Y10313D01*
X679703Y10320D01*
X679710Y10325D01*
X679757Y10403D01*
X679806Y10480D01*
X679807Y10489D01*
X679812Y10496D01*
X679839Y10660D01*
X679839Y789340D01*
X679838Y789348D01*
X679839Y789357D01*
X679818Y789445D01*
X679800Y789535D01*
X679795Y789542D01*
X679793Y789550D01*
X679739Y789623D01*
X679687Y789699D01*
X679680Y789703D01*
X679675Y789710D01*
X679597Y789757D01*
X679520Y789806D01*
X679511Y789807D01*
X679504Y789812D01*
X679340Y789839D01*
X660Y789839D01*
X652Y789838D01*
X643Y789839D01*
X555Y789818D01*
X465Y789800D01*
X458Y789795D01*
X450Y789793D01*
X377Y789739D01*
X301Y789687D01*
X297Y789680D01*
X290Y789675D01*
X243Y789597D01*
X194Y789520D01*
X193Y789511D01*
X188Y789504D01*
X161Y789340D01*
X161Y10660D01*
X162Y10652D01*
X161Y10643D01*
X182Y10555D01*
X200Y10465D01*
X205Y10458D01*
X207Y10450D01*
X261Y10377D01*
X313Y10301D01*
X320Y10297D01*
X325Y10290D01*
X403Y10243D01*
X480Y10194D01*
X489Y10193D01*
X496Y10188D01*
X660Y10161D01*
X679340Y10161D01*
X679348Y10162D01*
G37*
%LPC*%
G36*
X653850Y503588D02*
X653850Y503588D01*
X649509Y505386D01*
X646186Y508709D01*
X644388Y513050D01*
X644388Y517750D01*
X646186Y522091D01*
X649509Y525414D01*
X653850Y527212D01*
X658550Y527212D01*
X662891Y525414D01*
X666214Y522091D01*
X668012Y517750D01*
X668012Y513050D01*
X666214Y508709D01*
X662891Y505386D01*
X658550Y503588D01*
X653850Y503588D01*
G37*
%LPD*%
%LPC*%
G36*
X653850Y307788D02*
X653850Y307788D01*
X649509Y309586D01*
X646186Y312909D01*
X644388Y317250D01*
X644388Y321950D01*
X646186Y326291D01*
X649509Y329614D01*
X653850Y331412D01*
X658550Y331412D01*
X662891Y329614D01*
X666214Y326291D01*
X668012Y321950D01*
X668012Y317250D01*
X666214Y312909D01*
X662891Y309586D01*
X658550Y307788D01*
X653850Y307788D01*
G37*
%LPD*%
%LPC*%
G36*
X358050Y754388D02*
X358050Y754388D01*
X353709Y756186D01*
X350386Y759509D01*
X348588Y763850D01*
X348588Y768550D01*
X350386Y772891D01*
X353709Y776214D01*
X358050Y778012D01*
X362750Y778012D01*
X367091Y776214D01*
X370414Y772891D01*
X372212Y768550D01*
X372212Y763850D01*
X370414Y759509D01*
X367091Y756186D01*
X362750Y754388D01*
X358050Y754388D01*
G37*
%LPD*%
%LPC*%
G36*
X307250Y754388D02*
X307250Y754388D01*
X302909Y756186D01*
X299586Y759509D01*
X297788Y763850D01*
X297788Y768550D01*
X299586Y772891D01*
X302909Y776214D01*
X307250Y778012D01*
X311950Y778012D01*
X316291Y776214D01*
X319614Y772891D01*
X321412Y768550D01*
X321412Y763850D01*
X319614Y759509D01*
X316291Y756186D01*
X311950Y754388D01*
X307250Y754388D01*
G37*
%LPD*%
%LPC*%
G36*
X193050Y754388D02*
X193050Y754388D01*
X188709Y756186D01*
X185386Y759509D01*
X183588Y763850D01*
X183588Y768550D01*
X185386Y772891D01*
X188709Y776214D01*
X193050Y778012D01*
X197750Y778012D01*
X202091Y776214D01*
X205414Y772891D01*
X207212Y768550D01*
X207212Y763850D01*
X205414Y759509D01*
X202091Y756186D01*
X197750Y754388D01*
X193050Y754388D01*
G37*
%LPD*%
%LPC*%
G36*
X142250Y754388D02*
X142250Y754388D01*
X137909Y756186D01*
X134586Y759509D01*
X132788Y763850D01*
X132788Y768550D01*
X134586Y772891D01*
X137909Y776214D01*
X142250Y778012D01*
X146950Y778012D01*
X151291Y776214D01*
X154614Y772891D01*
X156412Y768550D01*
X156412Y763850D01*
X154614Y759509D01*
X151291Y756186D01*
X146950Y754388D01*
X142250Y754388D01*
G37*
%LPD*%
%LPC*%
G36*
X653850Y167788D02*
X653850Y167788D01*
X649509Y169586D01*
X646186Y172909D01*
X644388Y177250D01*
X644388Y181950D01*
X646186Y186291D01*
X649509Y189614D01*
X653850Y191412D01*
X658550Y191412D01*
X662891Y189614D01*
X666214Y186291D01*
X668012Y181950D01*
X668012Y177250D01*
X666214Y172909D01*
X662891Y169586D01*
X658550Y167788D01*
X653850Y167788D01*
G37*
%LPD*%
%LPC*%
G36*
X577650Y193188D02*
X577650Y193188D01*
X573309Y194986D01*
X569986Y198309D01*
X568188Y202650D01*
X568188Y207350D01*
X569986Y211691D01*
X573309Y215014D01*
X577650Y216812D01*
X582350Y216812D01*
X586691Y215014D01*
X590014Y211691D01*
X591812Y207350D01*
X591812Y202650D01*
X590014Y198309D01*
X586691Y194986D01*
X582350Y193188D01*
X577650Y193188D01*
G37*
%LPD*%
%LPC*%
G36*
X653850Y218588D02*
X653850Y218588D01*
X649509Y220386D01*
X646186Y223709D01*
X644388Y228050D01*
X644388Y232750D01*
X646186Y237091D01*
X649509Y240414D01*
X653850Y242212D01*
X658550Y242212D01*
X662891Y240414D01*
X666214Y237091D01*
X668012Y232750D01*
X668012Y228050D01*
X666214Y223709D01*
X662891Y220386D01*
X658550Y218588D01*
X653850Y218588D01*
G37*
%LPD*%
%LPC*%
G36*
X167650Y678188D02*
X167650Y678188D01*
X163309Y679986D01*
X159986Y683309D01*
X158188Y687650D01*
X158188Y692350D01*
X159986Y696691D01*
X163309Y700014D01*
X167650Y701812D01*
X172350Y701812D01*
X176691Y700014D01*
X180014Y696691D01*
X181812Y692350D01*
X181812Y687650D01*
X180014Y683309D01*
X176691Y679986D01*
X172350Y678188D01*
X167650Y678188D01*
G37*
%LPD*%
%LPC*%
G36*
X577650Y478188D02*
X577650Y478188D01*
X573309Y479986D01*
X569986Y483309D01*
X568188Y487650D01*
X568188Y492350D01*
X569986Y496691D01*
X573309Y500014D01*
X577650Y501812D01*
X582350Y501812D01*
X586691Y500014D01*
X590014Y496691D01*
X591812Y492350D01*
X591812Y487650D01*
X590014Y483309D01*
X586691Y479986D01*
X582350Y478188D01*
X577650Y478188D01*
G37*
%LPD*%
%LPC*%
G36*
X653850Y452788D02*
X653850Y452788D01*
X649509Y454586D01*
X646186Y457909D01*
X644388Y462250D01*
X644388Y466950D01*
X646186Y471291D01*
X649509Y474614D01*
X653850Y476412D01*
X658550Y476412D01*
X662891Y474614D01*
X666214Y471291D01*
X668012Y466950D01*
X668012Y462250D01*
X666214Y457909D01*
X662891Y454586D01*
X658550Y452788D01*
X653850Y452788D01*
G37*
%LPD*%
%LPC*%
G36*
X653850Y358588D02*
X653850Y358588D01*
X649509Y360386D01*
X646186Y363709D01*
X644388Y368050D01*
X644388Y372750D01*
X646186Y377091D01*
X649509Y380414D01*
X653850Y382212D01*
X658550Y382212D01*
X662891Y380414D01*
X666214Y377091D01*
X668012Y372750D01*
X668012Y368050D01*
X666214Y363709D01*
X662891Y360386D01*
X658550Y358588D01*
X653850Y358588D01*
G37*
%LPD*%
%LPC*%
G36*
X308181Y425855D02*
X308181Y425855D01*
X304820Y427247D01*
X302247Y429820D01*
X300855Y433181D01*
X300855Y436819D01*
X302247Y440180D01*
X304820Y442753D01*
X308181Y444145D01*
X311819Y444145D01*
X315180Y442753D01*
X317753Y440180D01*
X319145Y436819D01*
X319145Y433181D01*
X317753Y429820D01*
X315180Y427247D01*
X311819Y425855D01*
X308181Y425855D01*
G37*
%LPD*%
%LPC*%
G36*
X158181Y125855D02*
X158181Y125855D01*
X154820Y127247D01*
X152247Y129820D01*
X150855Y133181D01*
X150855Y136819D01*
X152247Y140180D01*
X154820Y142753D01*
X158181Y144145D01*
X161819Y144145D01*
X165180Y142753D01*
X167753Y140180D01*
X169145Y136819D01*
X169145Y133181D01*
X167753Y129820D01*
X165180Y127247D01*
X161819Y125855D01*
X158181Y125855D01*
G37*
%LPD*%
%LPC*%
G36*
X158181Y425855D02*
X158181Y425855D01*
X154820Y427247D01*
X152247Y429820D01*
X150855Y433181D01*
X150855Y436819D01*
X152247Y440180D01*
X154820Y442753D01*
X158181Y444145D01*
X161819Y444145D01*
X165180Y442753D01*
X167753Y440180D01*
X169145Y436819D01*
X169145Y433181D01*
X167753Y429820D01*
X165180Y427247D01*
X161819Y425855D01*
X158181Y425855D01*
G37*
%LPD*%
%LPC*%
G36*
X308181Y125855D02*
X308181Y125855D01*
X304820Y127247D01*
X302247Y129820D01*
X300855Y133181D01*
X300855Y136819D01*
X302247Y140180D01*
X304820Y142753D01*
X308181Y144145D01*
X311819Y144145D01*
X315180Y142753D01*
X317753Y140180D01*
X319145Y136819D01*
X319145Y133181D01*
X317753Y129820D01*
X315180Y127247D01*
X311819Y125855D01*
X308181Y125855D01*
G37*
%LPD*%
%LPC*%
G36*
X580999Y345999D02*
X580999Y345999D01*
X580999Y357828D01*
X581010Y357828D01*
X583004Y357512D01*
X584924Y356888D01*
X586723Y355971D01*
X588357Y354785D01*
X589785Y353357D01*
X590971Y351723D01*
X591888Y349924D01*
X592512Y348004D01*
X592828Y346010D01*
X592828Y345999D01*
X580999Y345999D01*
G37*
%LPD*%
%LPC*%
G36*
X335999Y690999D02*
X335999Y690999D01*
X335999Y702828D01*
X336010Y702828D01*
X338004Y702512D01*
X339924Y701888D01*
X341723Y700971D01*
X343357Y699785D01*
X344785Y698357D01*
X345971Y696723D01*
X346888Y694924D01*
X347512Y693004D01*
X347828Y691010D01*
X347828Y690999D01*
X335999Y690999D01*
G37*
%LPD*%
%LPC*%
G36*
X322172Y690999D02*
X322172Y690999D01*
X322172Y691010D01*
X322488Y693004D01*
X323112Y694924D01*
X324029Y696723D01*
X325215Y698357D01*
X326643Y699785D01*
X328277Y700971D01*
X330076Y701888D01*
X331996Y702512D01*
X333990Y702828D01*
X334001Y702828D01*
X334001Y690999D01*
X322172Y690999D01*
G37*
%LPD*%
%LPC*%
G36*
X580999Y332172D02*
X580999Y332172D01*
X580999Y344001D01*
X592828Y344001D01*
X592828Y343990D01*
X592512Y341996D01*
X591888Y340076D01*
X590971Y338277D01*
X589785Y336643D01*
X588357Y335215D01*
X586723Y334029D01*
X584924Y333112D01*
X583004Y332488D01*
X581010Y332172D01*
X580999Y332172D01*
G37*
%LPD*%
%LPC*%
G36*
X567172Y345999D02*
X567172Y345999D01*
X567172Y346010D01*
X567488Y348004D01*
X568112Y349924D01*
X569029Y351723D01*
X570215Y353357D01*
X571643Y354785D01*
X573277Y355971D01*
X575076Y356888D01*
X576996Y357512D01*
X578990Y357828D01*
X579001Y357828D01*
X579001Y345999D01*
X567172Y345999D01*
G37*
%LPD*%
%LPC*%
G36*
X335999Y677172D02*
X335999Y677172D01*
X335999Y689001D01*
X347828Y689001D01*
X347828Y688990D01*
X347512Y686996D01*
X346888Y685076D01*
X345971Y683277D01*
X344785Y681643D01*
X343357Y680215D01*
X341723Y679029D01*
X339924Y678112D01*
X338004Y677488D01*
X336010Y677172D01*
X335999Y677172D01*
G37*
%LPD*%
%LPC*%
G36*
X333990Y677172D02*
X333990Y677172D01*
X331996Y677488D01*
X330076Y678112D01*
X328277Y679029D01*
X326643Y680215D01*
X325215Y681643D01*
X324029Y683277D01*
X323112Y685076D01*
X322488Y686996D01*
X322172Y688990D01*
X322172Y689001D01*
X334001Y689001D01*
X334001Y677172D01*
X333990Y677172D01*
G37*
%LPD*%
%LPC*%
G36*
X578990Y332172D02*
X578990Y332172D01*
X576996Y332488D01*
X575076Y333112D01*
X573277Y334029D01*
X571643Y335215D01*
X570215Y336643D01*
X569029Y338277D01*
X568112Y340076D01*
X567488Y341996D01*
X567172Y343990D01*
X567172Y344001D01*
X579001Y344001D01*
X579001Y332172D01*
X578990Y332172D01*
G37*
%LPD*%
%LPC*%
G36*
X147802Y674693D02*
X147802Y674693D01*
X144693Y677802D01*
X144693Y682198D01*
X147802Y685307D01*
X152198Y685307D01*
X155307Y682198D01*
X155307Y677802D01*
X152198Y674693D01*
X147802Y674693D01*
G37*
%LPD*%
%LPC*%
G36*
X222802Y669693D02*
X222802Y669693D01*
X219693Y672802D01*
X219693Y677198D01*
X222802Y680307D01*
X227198Y680307D01*
X230307Y677198D01*
X230307Y672802D01*
X227198Y669693D01*
X222802Y669693D01*
G37*
%LPD*%
%LPC*%
G36*
X207802Y669693D02*
X207802Y669693D01*
X204693Y672802D01*
X204693Y677198D01*
X207802Y680307D01*
X212198Y680307D01*
X215307Y677198D01*
X215307Y672802D01*
X212198Y669693D01*
X207802Y669693D01*
G37*
%LPD*%
%LPC*%
G36*
X87802Y654693D02*
X87802Y654693D01*
X84693Y657802D01*
X84693Y662198D01*
X87802Y665307D01*
X92198Y665307D01*
X95307Y662198D01*
X95307Y657802D01*
X92198Y654693D01*
X87802Y654693D01*
G37*
%LPD*%
%LPC*%
G36*
X27802Y654693D02*
X27802Y654693D01*
X24693Y657802D01*
X24693Y662198D01*
X27802Y665307D01*
X32198Y665307D01*
X35307Y662198D01*
X35307Y657802D01*
X32198Y654693D01*
X27802Y654693D01*
G37*
%LPD*%
%LPC*%
G36*
X147802Y654693D02*
X147802Y654693D01*
X144693Y657802D01*
X144693Y662198D01*
X147802Y665307D01*
X152198Y665307D01*
X155307Y662198D01*
X155307Y657802D01*
X152198Y654693D01*
X147802Y654693D01*
G37*
%LPD*%
%LPC*%
G36*
X222802Y649693D02*
X222802Y649693D01*
X219693Y652802D01*
X219693Y657198D01*
X222802Y660307D01*
X227198Y660307D01*
X230307Y657198D01*
X230307Y652802D01*
X227198Y649693D01*
X222802Y649693D01*
G37*
%LPD*%
%LPC*%
G36*
X207802Y649693D02*
X207802Y649693D01*
X204693Y652802D01*
X204693Y657198D01*
X207802Y660307D01*
X212198Y660307D01*
X215307Y657198D01*
X215307Y652802D01*
X212198Y649693D01*
X207802Y649693D01*
G37*
%LPD*%
%LPC*%
G36*
X168802Y595693D02*
X168802Y595693D01*
X165693Y598802D01*
X165693Y603198D01*
X168802Y606307D01*
X173198Y606307D01*
X176307Y603198D01*
X176307Y598802D01*
X173198Y595693D01*
X168802Y595693D01*
G37*
%LPD*%
%LPC*%
G36*
X597802Y564693D02*
X597802Y564693D01*
X594693Y567802D01*
X594693Y572198D01*
X597802Y575307D01*
X602198Y575307D01*
X605307Y572198D01*
X605307Y567802D01*
X602198Y564693D01*
X597802Y564693D01*
G37*
%LPD*%
%LPC*%
G36*
X537802Y564693D02*
X537802Y564693D01*
X534693Y567802D01*
X534693Y572198D01*
X537802Y575307D01*
X542198Y575307D01*
X545307Y572198D01*
X545307Y567802D01*
X542198Y564693D01*
X537802Y564693D01*
G37*
%LPD*%
%LPC*%
G36*
X657802Y564693D02*
X657802Y564693D01*
X654693Y567802D01*
X654693Y572198D01*
X657802Y575307D01*
X662198Y575307D01*
X665307Y572198D01*
X665307Y567802D01*
X662198Y564693D01*
X657802Y564693D01*
G37*
%LPD*%
%LPC*%
G36*
X477802Y564693D02*
X477802Y564693D01*
X474693Y567802D01*
X474693Y572198D01*
X477802Y575307D01*
X482198Y575307D01*
X485307Y572198D01*
X485307Y567802D01*
X482198Y564693D01*
X477802Y564693D01*
G37*
%LPD*%
%LPC*%
G36*
X147802Y564693D02*
X147802Y564693D01*
X144693Y567802D01*
X144693Y572198D01*
X147802Y575307D01*
X152198Y575307D01*
X155307Y572198D01*
X155307Y567802D01*
X152198Y564693D01*
X147802Y564693D01*
G37*
%LPD*%
%LPC*%
G36*
X87802Y564693D02*
X87802Y564693D01*
X84693Y567802D01*
X84693Y572198D01*
X87802Y575307D01*
X92198Y575307D01*
X95307Y572198D01*
X95307Y567802D01*
X92198Y564693D01*
X87802Y564693D01*
G37*
%LPD*%
%LPC*%
G36*
X27802Y564693D02*
X27802Y564693D01*
X24693Y567802D01*
X24693Y572198D01*
X27802Y575307D01*
X32198Y575307D01*
X35307Y572198D01*
X35307Y567802D01*
X32198Y564693D01*
X27802Y564693D01*
G37*
%LPD*%
%LPC*%
G36*
X187802Y674693D02*
X187802Y674693D01*
X184693Y677802D01*
X184693Y682198D01*
X187802Y685307D01*
X192198Y685307D01*
X195307Y682198D01*
X195307Y677802D01*
X192198Y674693D01*
X187802Y674693D01*
G37*
%LPD*%
%LPC*%
G36*
X332802Y510993D02*
X332802Y510993D01*
X329693Y514102D01*
X329693Y518498D01*
X332802Y521607D01*
X337198Y521607D01*
X340307Y518498D01*
X340307Y514102D01*
X337198Y510993D01*
X332802Y510993D01*
G37*
%LPD*%
%LPC*%
G36*
X587802Y504693D02*
X587802Y504693D01*
X584693Y507802D01*
X584693Y512198D01*
X587802Y515307D01*
X592198Y515307D01*
X595307Y512198D01*
X595307Y507802D01*
X592198Y504693D01*
X587802Y504693D01*
G37*
%LPD*%
%LPC*%
G36*
X562802Y504693D02*
X562802Y504693D01*
X559693Y507802D01*
X559693Y512198D01*
X562802Y515307D01*
X567198Y515307D01*
X570307Y512198D01*
X570307Y507802D01*
X567198Y504693D01*
X562802Y504693D01*
G37*
%LPD*%
%LPC*%
G36*
X537802Y504693D02*
X537802Y504693D01*
X534693Y507802D01*
X534693Y512198D01*
X537802Y515307D01*
X542198Y515307D01*
X545307Y512198D01*
X545307Y507802D01*
X542198Y504693D01*
X537802Y504693D01*
G37*
%LPD*%
%LPC*%
G36*
X477802Y504693D02*
X477802Y504693D01*
X474693Y507802D01*
X474693Y512198D01*
X477802Y515307D01*
X482198Y515307D01*
X485307Y512198D01*
X485307Y507802D01*
X482198Y504693D01*
X477802Y504693D01*
G37*
%LPD*%
%LPC*%
G36*
X147802Y504693D02*
X147802Y504693D01*
X144693Y507802D01*
X144693Y512198D01*
X147802Y515307D01*
X152198Y515307D01*
X155307Y512198D01*
X155307Y507802D01*
X152198Y504693D01*
X147802Y504693D01*
G37*
%LPD*%
%LPC*%
G36*
X87802Y504693D02*
X87802Y504693D01*
X84693Y507802D01*
X84693Y512198D01*
X87802Y515307D01*
X92198Y515307D01*
X95307Y512198D01*
X95307Y507802D01*
X92198Y504693D01*
X87802Y504693D01*
G37*
%LPD*%
%LPC*%
G36*
X27802Y504693D02*
X27802Y504693D01*
X24693Y507802D01*
X24693Y512198D01*
X27802Y515307D01*
X32198Y515307D01*
X35307Y512198D01*
X35307Y507802D01*
X32198Y504693D01*
X27802Y504693D01*
G37*
%LPD*%
%LPC*%
G36*
X597802Y24693D02*
X597802Y24693D01*
X594693Y27802D01*
X594693Y32198D01*
X597802Y35307D01*
X602198Y35307D01*
X605307Y32198D01*
X605307Y27802D01*
X602198Y24693D01*
X597802Y24693D01*
G37*
%LPD*%
%LPC*%
G36*
X282802Y479693D02*
X282802Y479693D01*
X279693Y482802D01*
X279693Y487198D01*
X282802Y490307D01*
X287198Y490307D01*
X290307Y487198D01*
X290307Y482802D01*
X287198Y479693D01*
X282802Y479693D01*
G37*
%LPD*%
%LPC*%
G36*
X267802Y479693D02*
X267802Y479693D01*
X264693Y482802D01*
X264693Y487198D01*
X267802Y490307D01*
X272198Y490307D01*
X275307Y487198D01*
X275307Y482802D01*
X272198Y479693D01*
X267802Y479693D01*
G37*
%LPD*%
%LPC*%
G36*
X327802Y474693D02*
X327802Y474693D01*
X324693Y477802D01*
X324693Y482198D01*
X327802Y485307D01*
X332198Y485307D01*
X335307Y482198D01*
X335307Y477802D01*
X332198Y474693D01*
X327802Y474693D01*
G37*
%LPD*%
%LPC*%
G36*
X297802Y474693D02*
X297802Y474693D01*
X294693Y477802D01*
X294693Y482198D01*
X297802Y485307D01*
X302198Y485307D01*
X305307Y482198D01*
X305307Y477802D01*
X302198Y474693D01*
X297802Y474693D01*
G37*
%LPD*%
%LPC*%
G36*
X207802Y684693D02*
X207802Y684693D01*
X204693Y687802D01*
X204693Y692198D01*
X207802Y695307D01*
X212198Y695307D01*
X215307Y692198D01*
X215307Y687802D01*
X212198Y684693D01*
X207802Y684693D01*
G37*
%LPD*%
%LPC*%
G36*
X587802Y464693D02*
X587802Y464693D01*
X584693Y467802D01*
X584693Y472198D01*
X587802Y475307D01*
X592198Y475307D01*
X595307Y472198D01*
X595307Y467802D01*
X592198Y464693D01*
X587802Y464693D01*
G37*
%LPD*%
%LPC*%
G36*
X562802Y464693D02*
X562802Y464693D01*
X559693Y467802D01*
X559693Y472198D01*
X562802Y475307D01*
X567198Y475307D01*
X570307Y472198D01*
X570307Y467802D01*
X567198Y464693D01*
X562802Y464693D01*
G37*
%LPD*%
%LPC*%
G36*
X282802Y464693D02*
X282802Y464693D01*
X279693Y467802D01*
X279693Y472198D01*
X282802Y475307D01*
X287198Y475307D01*
X290307Y472198D01*
X290307Y467802D01*
X287198Y464693D01*
X282802Y464693D01*
G37*
%LPD*%
%LPC*%
G36*
X267802Y464693D02*
X267802Y464693D01*
X264693Y467802D01*
X264693Y472198D01*
X267802Y475307D01*
X272198Y475307D01*
X275307Y472198D01*
X275307Y467802D01*
X272198Y464693D01*
X267802Y464693D01*
G37*
%LPD*%
%LPC*%
G36*
X327802Y449693D02*
X327802Y449693D01*
X324693Y452802D01*
X324693Y457198D01*
X327802Y460307D01*
X332198Y460307D01*
X335307Y457198D01*
X335307Y452802D01*
X332198Y449693D01*
X327802Y449693D01*
G37*
%LPD*%
%LPC*%
G36*
X287802Y449693D02*
X287802Y449693D01*
X284693Y452802D01*
X284693Y457198D01*
X287802Y460307D01*
X292198Y460307D01*
X295307Y457198D01*
X295307Y452802D01*
X292198Y449693D01*
X287802Y449693D01*
G37*
%LPD*%
%LPC*%
G36*
X177802Y449693D02*
X177802Y449693D01*
X174693Y452802D01*
X174693Y457198D01*
X177802Y460307D01*
X182198Y460307D01*
X185307Y457198D01*
X185307Y452802D01*
X182198Y449693D01*
X177802Y449693D01*
G37*
%LPD*%
%LPC*%
G36*
X137802Y449693D02*
X137802Y449693D01*
X134693Y452802D01*
X134693Y457198D01*
X137802Y460307D01*
X142198Y460307D01*
X145307Y457198D01*
X145307Y452802D01*
X142198Y449693D01*
X137802Y449693D01*
G37*
%LPD*%
%LPC*%
G36*
X267802Y444693D02*
X267802Y444693D01*
X264693Y447802D01*
X264693Y452198D01*
X267802Y455307D01*
X272198Y455307D01*
X275307Y452198D01*
X275307Y447802D01*
X272198Y444693D01*
X267802Y444693D01*
G37*
%LPD*%
%LPC*%
G36*
X87802Y444693D02*
X87802Y444693D01*
X84693Y447802D01*
X84693Y452198D01*
X87802Y455307D01*
X92198Y455307D01*
X95307Y452198D01*
X95307Y447802D01*
X92198Y444693D01*
X87802Y444693D01*
G37*
%LPD*%
%LPC*%
G36*
X27802Y444693D02*
X27802Y444693D01*
X24693Y447802D01*
X24693Y452198D01*
X27802Y455307D01*
X32198Y455307D01*
X35307Y452198D01*
X35307Y447802D01*
X32198Y444693D01*
X27802Y444693D01*
G37*
%LPD*%
%LPC*%
G36*
X477802Y439693D02*
X477802Y439693D01*
X474693Y442802D01*
X474693Y447198D01*
X477802Y450307D01*
X482198Y450307D01*
X485307Y447198D01*
X485307Y442802D01*
X482198Y439693D01*
X477802Y439693D01*
G37*
%LPD*%
%LPC*%
G36*
X457802Y439693D02*
X457802Y439693D01*
X454693Y442802D01*
X454693Y447198D01*
X457802Y450307D01*
X462198Y450307D01*
X465307Y447198D01*
X465307Y442802D01*
X462198Y439693D01*
X457802Y439693D01*
G37*
%LPD*%
%LPC*%
G36*
X582802Y439693D02*
X582802Y439693D01*
X579693Y442802D01*
X579693Y447198D01*
X582802Y450307D01*
X587198Y450307D01*
X590307Y447198D01*
X590307Y442802D01*
X587198Y439693D01*
X582802Y439693D01*
G37*
%LPD*%
%LPC*%
G36*
X562802Y439693D02*
X562802Y439693D01*
X559693Y442802D01*
X559693Y447198D01*
X562802Y450307D01*
X567198Y450307D01*
X570307Y447198D01*
X570307Y442802D01*
X567198Y439693D01*
X562802Y439693D01*
G37*
%LPD*%
%LPC*%
G36*
X547802Y439693D02*
X547802Y439693D01*
X544693Y442802D01*
X544693Y447198D01*
X547802Y450307D01*
X552198Y450307D01*
X555307Y447198D01*
X555307Y442802D01*
X552198Y439693D01*
X547802Y439693D01*
G37*
%LPD*%
%LPC*%
G36*
X527802Y439693D02*
X527802Y439693D01*
X524693Y442802D01*
X524693Y447198D01*
X527802Y450307D01*
X532198Y450307D01*
X535307Y447198D01*
X535307Y442802D01*
X532198Y439693D01*
X527802Y439693D01*
G37*
%LPD*%
%LPC*%
G36*
X512802Y439693D02*
X512802Y439693D01*
X509693Y442802D01*
X509693Y447198D01*
X512802Y450307D01*
X517198Y450307D01*
X520307Y447198D01*
X520307Y442802D01*
X517198Y439693D01*
X512802Y439693D01*
G37*
%LPD*%
%LPC*%
G36*
X492802Y439693D02*
X492802Y439693D01*
X489693Y442802D01*
X489693Y447198D01*
X492802Y450307D01*
X497198Y450307D01*
X500307Y447198D01*
X500307Y442802D01*
X497198Y439693D01*
X492802Y439693D01*
G37*
%LPD*%
%LPC*%
G36*
X222802Y684693D02*
X222802Y684693D01*
X219693Y687802D01*
X219693Y692198D01*
X222802Y695307D01*
X227198Y695307D01*
X230307Y692198D01*
X230307Y687802D01*
X227198Y684693D01*
X222802Y684693D01*
G37*
%LPD*%
%LPC*%
G36*
X147802Y699693D02*
X147802Y699693D01*
X144693Y702802D01*
X144693Y707198D01*
X147802Y710307D01*
X152198Y710307D01*
X155307Y707198D01*
X155307Y702802D01*
X152198Y699693D01*
X147802Y699693D01*
G37*
%LPD*%
%LPC*%
G36*
X512802Y424693D02*
X512802Y424693D01*
X509693Y427802D01*
X509693Y432198D01*
X512802Y435307D01*
X517198Y435307D01*
X520307Y432198D01*
X520307Y427802D01*
X517198Y424693D01*
X512802Y424693D01*
G37*
%LPD*%
%LPC*%
G36*
X492802Y424693D02*
X492802Y424693D01*
X489693Y427802D01*
X489693Y432198D01*
X492802Y435307D01*
X497198Y435307D01*
X500307Y432198D01*
X500307Y427802D01*
X497198Y424693D01*
X492802Y424693D01*
G37*
%LPD*%
%LPC*%
G36*
X582802Y424693D02*
X582802Y424693D01*
X579693Y427802D01*
X579693Y432198D01*
X582802Y435307D01*
X587198Y435307D01*
X590307Y432198D01*
X590307Y427802D01*
X587198Y424693D01*
X582802Y424693D01*
G37*
%LPD*%
%LPC*%
G36*
X562802Y424693D02*
X562802Y424693D01*
X559693Y427802D01*
X559693Y432198D01*
X562802Y435307D01*
X567198Y435307D01*
X570307Y432198D01*
X570307Y427802D01*
X567198Y424693D01*
X562802Y424693D01*
G37*
%LPD*%
%LPC*%
G36*
X547802Y424693D02*
X547802Y424693D01*
X544693Y427802D01*
X544693Y432198D01*
X547802Y435307D01*
X552198Y435307D01*
X555307Y432198D01*
X555307Y427802D01*
X552198Y424693D01*
X547802Y424693D01*
G37*
%LPD*%
%LPC*%
G36*
X527802Y424693D02*
X527802Y424693D01*
X524693Y427802D01*
X524693Y432198D01*
X527802Y435307D01*
X532198Y435307D01*
X535307Y432198D01*
X535307Y427802D01*
X532198Y424693D01*
X527802Y424693D01*
G37*
%LPD*%
%LPC*%
G36*
X477802Y424693D02*
X477802Y424693D01*
X474693Y427802D01*
X474693Y432198D01*
X477802Y435307D01*
X482198Y435307D01*
X485307Y432198D01*
X485307Y427802D01*
X482198Y424693D01*
X477802Y424693D01*
G37*
%LPD*%
%LPC*%
G36*
X457802Y424693D02*
X457802Y424693D01*
X454693Y427802D01*
X454693Y432198D01*
X457802Y435307D01*
X462198Y435307D01*
X465307Y432198D01*
X465307Y427802D01*
X462198Y424693D01*
X457802Y424693D01*
G37*
%LPD*%
%LPC*%
G36*
X327802Y414693D02*
X327802Y414693D01*
X324693Y417802D01*
X324693Y422198D01*
X327802Y425307D01*
X332198Y425307D01*
X335307Y422198D01*
X335307Y417802D01*
X332198Y414693D01*
X327802Y414693D01*
G37*
%LPD*%
%LPC*%
G36*
X287802Y414693D02*
X287802Y414693D01*
X284693Y417802D01*
X284693Y422198D01*
X287802Y425307D01*
X292198Y425307D01*
X295307Y422198D01*
X295307Y417802D01*
X292198Y414693D01*
X287802Y414693D01*
G37*
%LPD*%
%LPC*%
G36*
X267802Y414693D02*
X267802Y414693D01*
X264693Y417802D01*
X264693Y422198D01*
X267802Y425307D01*
X272198Y425307D01*
X275307Y422198D01*
X275307Y417802D01*
X272198Y414693D01*
X267802Y414693D01*
G37*
%LPD*%
%LPC*%
G36*
X177802Y414693D02*
X177802Y414693D01*
X174693Y417802D01*
X174693Y422198D01*
X177802Y425307D01*
X182198Y425307D01*
X185307Y422198D01*
X185307Y417802D01*
X182198Y414693D01*
X177802Y414693D01*
G37*
%LPD*%
%LPC*%
G36*
X137802Y414693D02*
X137802Y414693D01*
X134693Y417802D01*
X134693Y422198D01*
X137802Y425307D01*
X142198Y425307D01*
X145307Y422198D01*
X145307Y417802D01*
X142198Y414693D01*
X137802Y414693D01*
G37*
%LPD*%
%LPC*%
G36*
X227802Y379693D02*
X227802Y379693D01*
X224693Y382802D01*
X224693Y387198D01*
X227802Y390307D01*
X232198Y390307D01*
X235307Y387198D01*
X235307Y382802D01*
X232198Y379693D01*
X227802Y379693D01*
G37*
%LPD*%
%LPC*%
G36*
X187802Y699693D02*
X187802Y699693D01*
X184693Y702802D01*
X184693Y707198D01*
X187802Y710307D01*
X192198Y710307D01*
X195307Y707198D01*
X195307Y702802D01*
X192198Y699693D01*
X187802Y699693D01*
G37*
%LPD*%
%LPC*%
G36*
X207802Y709693D02*
X207802Y709693D01*
X204693Y712802D01*
X204693Y717198D01*
X207802Y720307D01*
X212198Y720307D01*
X215307Y717198D01*
X215307Y712802D01*
X212198Y709693D01*
X207802Y709693D01*
G37*
%LPD*%
%LPC*%
G36*
X222802Y709693D02*
X222802Y709693D01*
X219693Y712802D01*
X219693Y717198D01*
X222802Y720307D01*
X227198Y720307D01*
X230307Y717198D01*
X230307Y712802D01*
X227198Y709693D01*
X222802Y709693D01*
G37*
%LPD*%
%LPC*%
G36*
X657802Y24693D02*
X657802Y24693D01*
X654693Y27802D01*
X654693Y32198D01*
X657802Y35307D01*
X662198Y35307D01*
X665307Y32198D01*
X665307Y27802D01*
X662198Y24693D01*
X657802Y24693D01*
G37*
%LPD*%
%LPC*%
G36*
X27802Y714693D02*
X27802Y714693D01*
X24693Y717802D01*
X24693Y722198D01*
X27802Y725307D01*
X32198Y725307D01*
X35307Y722198D01*
X35307Y717802D01*
X32198Y714693D01*
X27802Y714693D01*
G37*
%LPD*%
%LPC*%
G36*
X87802Y714693D02*
X87802Y714693D01*
X84693Y717802D01*
X84693Y722198D01*
X87802Y725307D01*
X92198Y725307D01*
X95307Y722198D01*
X95307Y717802D01*
X92198Y714693D01*
X87802Y714693D01*
G37*
%LPD*%
%LPC*%
G36*
X226802Y325693D02*
X226802Y325693D01*
X223693Y328802D01*
X223693Y333198D01*
X226802Y336307D01*
X231198Y336307D01*
X234307Y333198D01*
X234307Y328802D01*
X231198Y325693D01*
X226802Y325693D01*
G37*
%LPD*%
%LPC*%
G36*
X207802Y724693D02*
X207802Y724693D01*
X204693Y727802D01*
X204693Y732198D01*
X207802Y735307D01*
X212198Y735307D01*
X215307Y732198D01*
X215307Y727802D01*
X212198Y724693D01*
X207802Y724693D01*
G37*
%LPD*%
%LPC*%
G36*
X167802Y299693D02*
X167802Y299693D01*
X164693Y302802D01*
X164693Y307198D01*
X167802Y310307D01*
X172198Y310307D01*
X175307Y307198D01*
X175307Y302802D01*
X172198Y299693D01*
X167802Y299693D01*
G37*
%LPD*%
%LPC*%
G36*
X147802Y264693D02*
X147802Y264693D01*
X144693Y267802D01*
X144693Y272198D01*
X147802Y275307D01*
X152198Y275307D01*
X155307Y272198D01*
X155307Y267802D01*
X152198Y264693D01*
X147802Y264693D01*
G37*
%LPD*%
%LPC*%
G36*
X87802Y264693D02*
X87802Y264693D01*
X84693Y267802D01*
X84693Y272198D01*
X87802Y275307D01*
X92198Y275307D01*
X95307Y272198D01*
X95307Y267802D01*
X92198Y264693D01*
X87802Y264693D01*
G37*
%LPD*%
%LPC*%
G36*
X27802Y264693D02*
X27802Y264693D01*
X24693Y267802D01*
X24693Y272198D01*
X27802Y275307D01*
X32198Y275307D01*
X35307Y272198D01*
X35307Y267802D01*
X32198Y264693D01*
X27802Y264693D01*
G37*
%LPD*%
%LPC*%
G36*
X582802Y254693D02*
X582802Y254693D01*
X579693Y257802D01*
X579693Y262198D01*
X582802Y265307D01*
X587198Y265307D01*
X590307Y262198D01*
X590307Y257802D01*
X587198Y254693D01*
X582802Y254693D01*
G37*
%LPD*%
%LPC*%
G36*
X562802Y254693D02*
X562802Y254693D01*
X559693Y257802D01*
X559693Y262198D01*
X562802Y265307D01*
X567198Y265307D01*
X570307Y262198D01*
X570307Y257802D01*
X567198Y254693D01*
X562802Y254693D01*
G37*
%LPD*%
%LPC*%
G36*
X547802Y254693D02*
X547802Y254693D01*
X544693Y257802D01*
X544693Y262198D01*
X547802Y265307D01*
X552198Y265307D01*
X555307Y262198D01*
X555307Y257802D01*
X552198Y254693D01*
X547802Y254693D01*
G37*
%LPD*%
%LPC*%
G36*
X527802Y254693D02*
X527802Y254693D01*
X524693Y257802D01*
X524693Y262198D01*
X527802Y265307D01*
X532198Y265307D01*
X535307Y262198D01*
X535307Y257802D01*
X532198Y254693D01*
X527802Y254693D01*
G37*
%LPD*%
%LPC*%
G36*
X512802Y254693D02*
X512802Y254693D01*
X509693Y257802D01*
X509693Y262198D01*
X512802Y265307D01*
X517198Y265307D01*
X520307Y262198D01*
X520307Y257802D01*
X517198Y254693D01*
X512802Y254693D01*
G37*
%LPD*%
%LPC*%
G36*
X492802Y254693D02*
X492802Y254693D01*
X489693Y257802D01*
X489693Y262198D01*
X492802Y265307D01*
X497198Y265307D01*
X500307Y262198D01*
X500307Y257802D01*
X497198Y254693D01*
X492802Y254693D01*
G37*
%LPD*%
%LPC*%
G36*
X477802Y254693D02*
X477802Y254693D01*
X474693Y257802D01*
X474693Y262198D01*
X477802Y265307D01*
X482198Y265307D01*
X485307Y262198D01*
X485307Y257802D01*
X482198Y254693D01*
X477802Y254693D01*
G37*
%LPD*%
%LPC*%
G36*
X457802Y254693D02*
X457802Y254693D01*
X454693Y257802D01*
X454693Y262198D01*
X457802Y265307D01*
X462198Y265307D01*
X465307Y262198D01*
X465307Y257802D01*
X462198Y254693D01*
X457802Y254693D01*
G37*
%LPD*%
%LPC*%
G36*
X477802Y239693D02*
X477802Y239693D01*
X474693Y242802D01*
X474693Y247198D01*
X477802Y250307D01*
X482198Y250307D01*
X485307Y247198D01*
X485307Y242802D01*
X482198Y239693D01*
X477802Y239693D01*
G37*
%LPD*%
%LPC*%
G36*
X457802Y239693D02*
X457802Y239693D01*
X454693Y242802D01*
X454693Y247198D01*
X457802Y250307D01*
X462198Y250307D01*
X465307Y247198D01*
X465307Y242802D01*
X462198Y239693D01*
X457802Y239693D01*
G37*
%LPD*%
%LPC*%
G36*
X582802Y239693D02*
X582802Y239693D01*
X579693Y242802D01*
X579693Y247198D01*
X582802Y250307D01*
X587198Y250307D01*
X590307Y247198D01*
X590307Y242802D01*
X587198Y239693D01*
X582802Y239693D01*
G37*
%LPD*%
%LPC*%
G36*
X562802Y239693D02*
X562802Y239693D01*
X559693Y242802D01*
X559693Y247198D01*
X562802Y250307D01*
X567198Y250307D01*
X570307Y247198D01*
X570307Y242802D01*
X567198Y239693D01*
X562802Y239693D01*
G37*
%LPD*%
%LPC*%
G36*
X547802Y239693D02*
X547802Y239693D01*
X544693Y242802D01*
X544693Y247198D01*
X547802Y250307D01*
X552198Y250307D01*
X555307Y247198D01*
X555307Y242802D01*
X552198Y239693D01*
X547802Y239693D01*
G37*
%LPD*%
%LPC*%
G36*
X527802Y239693D02*
X527802Y239693D01*
X524693Y242802D01*
X524693Y247198D01*
X527802Y250307D01*
X532198Y250307D01*
X535307Y247198D01*
X535307Y242802D01*
X532198Y239693D01*
X527802Y239693D01*
G37*
%LPD*%
%LPC*%
G36*
X512802Y239693D02*
X512802Y239693D01*
X509693Y242802D01*
X509693Y247198D01*
X512802Y250307D01*
X517198Y250307D01*
X520307Y247198D01*
X520307Y242802D01*
X517198Y239693D01*
X512802Y239693D01*
G37*
%LPD*%
%LPC*%
G36*
X492802Y239693D02*
X492802Y239693D01*
X489693Y242802D01*
X489693Y247198D01*
X492802Y250307D01*
X497198Y250307D01*
X500307Y247198D01*
X500307Y242802D01*
X497198Y239693D01*
X492802Y239693D01*
G37*
%LPD*%
%LPC*%
G36*
X222802Y724693D02*
X222802Y724693D01*
X219693Y727802D01*
X219693Y732198D01*
X222802Y735307D01*
X227198Y735307D01*
X230307Y732198D01*
X230307Y727802D01*
X227198Y724693D01*
X222802Y724693D01*
G37*
%LPD*%
%LPC*%
G36*
X587802Y219693D02*
X587802Y219693D01*
X584693Y222802D01*
X584693Y227198D01*
X587802Y230307D01*
X592198Y230307D01*
X595307Y227198D01*
X595307Y222802D01*
X592198Y219693D01*
X587802Y219693D01*
G37*
%LPD*%
%LPC*%
G36*
X562802Y219693D02*
X562802Y219693D01*
X559693Y222802D01*
X559693Y227198D01*
X562802Y230307D01*
X567198Y230307D01*
X570307Y227198D01*
X570307Y222802D01*
X567198Y219693D01*
X562802Y219693D01*
G37*
%LPD*%
%LPC*%
G36*
X332802Y214693D02*
X332802Y214693D01*
X329693Y217802D01*
X329693Y222198D01*
X332802Y225307D01*
X337198Y225307D01*
X340307Y222198D01*
X340307Y217802D01*
X337198Y214693D01*
X332802Y214693D01*
G37*
%LPD*%
%LPC*%
G36*
X207802Y744693D02*
X207802Y744693D01*
X204693Y747802D01*
X204693Y752198D01*
X207802Y755307D01*
X212198Y755307D01*
X215307Y752198D01*
X215307Y747802D01*
X212198Y744693D01*
X207802Y744693D01*
G37*
%LPD*%
%LPC*%
G36*
X537802Y204693D02*
X537802Y204693D01*
X534693Y207802D01*
X534693Y212198D01*
X537802Y215307D01*
X542198Y215307D01*
X545307Y212198D01*
X545307Y207802D01*
X542198Y204693D01*
X537802Y204693D01*
G37*
%LPD*%
%LPC*%
G36*
X477802Y204693D02*
X477802Y204693D01*
X474693Y207802D01*
X474693Y212198D01*
X477802Y215307D01*
X482198Y215307D01*
X485307Y212198D01*
X485307Y207802D01*
X482198Y204693D01*
X477802Y204693D01*
G37*
%LPD*%
%LPC*%
G36*
X147802Y204693D02*
X147802Y204693D01*
X144693Y207802D01*
X144693Y212198D01*
X147802Y215307D01*
X152198Y215307D01*
X155307Y212198D01*
X155307Y207802D01*
X152198Y204693D01*
X147802Y204693D01*
G37*
%LPD*%
%LPC*%
G36*
X87802Y204693D02*
X87802Y204693D01*
X84693Y207802D01*
X84693Y212198D01*
X87802Y215307D01*
X92198Y215307D01*
X95307Y212198D01*
X95307Y207802D01*
X92198Y204693D01*
X87802Y204693D01*
G37*
%LPD*%
%LPC*%
G36*
X27802Y204693D02*
X27802Y204693D01*
X24693Y207802D01*
X24693Y212198D01*
X27802Y215307D01*
X32198Y215307D01*
X35307Y212198D01*
X35307Y207802D01*
X32198Y204693D01*
X27802Y204693D01*
G37*
%LPD*%
%LPC*%
G36*
X222802Y744693D02*
X222802Y744693D01*
X219693Y747802D01*
X219693Y752198D01*
X222802Y755307D01*
X227198Y755307D01*
X230307Y752198D01*
X230307Y747802D01*
X227198Y744693D01*
X222802Y744693D01*
G37*
%LPD*%
%LPC*%
G36*
X281802Y180693D02*
X281802Y180693D01*
X278693Y183802D01*
X278693Y188198D01*
X281802Y191307D01*
X286198Y191307D01*
X289307Y188198D01*
X289307Y183802D01*
X286198Y180693D01*
X281802Y180693D01*
G37*
%LPD*%
%LPC*%
G36*
X263802Y180693D02*
X263802Y180693D01*
X260693Y183802D01*
X260693Y188198D01*
X263802Y191307D01*
X268198Y191307D01*
X271307Y188198D01*
X271307Y183802D01*
X268198Y180693D01*
X263802Y180693D01*
G37*
%LPD*%
%LPC*%
G36*
X587802Y179693D02*
X587802Y179693D01*
X584693Y182802D01*
X584693Y187198D01*
X587802Y190307D01*
X592198Y190307D01*
X595307Y187198D01*
X595307Y182802D01*
X592198Y179693D01*
X587802Y179693D01*
G37*
%LPD*%
%LPC*%
G36*
X562802Y179693D02*
X562802Y179693D01*
X559693Y182802D01*
X559693Y187198D01*
X562802Y190307D01*
X567198Y190307D01*
X570307Y187198D01*
X570307Y182802D01*
X567198Y179693D01*
X562802Y179693D01*
G37*
%LPD*%
%LPC*%
G36*
X327802Y174693D02*
X327802Y174693D01*
X324693Y177802D01*
X324693Y182198D01*
X327802Y185307D01*
X332198Y185307D01*
X335307Y182198D01*
X335307Y177802D01*
X332198Y174693D01*
X327802Y174693D01*
G37*
%LPD*%
%LPC*%
G36*
X297802Y174693D02*
X297802Y174693D01*
X294693Y177802D01*
X294693Y182198D01*
X297802Y185307D01*
X302198Y185307D01*
X305307Y182198D01*
X305307Y177802D01*
X302198Y174693D01*
X297802Y174693D01*
G37*
%LPD*%
%LPC*%
G36*
X237802Y174693D02*
X237802Y174693D01*
X234693Y177802D01*
X234693Y182198D01*
X237802Y185307D01*
X242198Y185307D01*
X245307Y182198D01*
X245307Y177802D01*
X242198Y174693D01*
X237802Y174693D01*
G37*
%LPD*%
%LPC*%
G36*
X281802Y167693D02*
X281802Y167693D01*
X278693Y170802D01*
X278693Y175198D01*
X281802Y178307D01*
X286198Y178307D01*
X289307Y175198D01*
X289307Y170802D01*
X286198Y167693D01*
X281802Y167693D01*
G37*
%LPD*%
%LPC*%
G36*
X263802Y167693D02*
X263802Y167693D01*
X260693Y170802D01*
X260693Y175198D01*
X263802Y178307D01*
X268198Y178307D01*
X271307Y175198D01*
X271307Y170802D01*
X268198Y167693D01*
X263802Y167693D01*
G37*
%LPD*%
%LPC*%
G36*
X327802Y149693D02*
X327802Y149693D01*
X324693Y152802D01*
X324693Y157198D01*
X327802Y160307D01*
X332198Y160307D01*
X335307Y157198D01*
X335307Y152802D01*
X332198Y149693D01*
X327802Y149693D01*
G37*
%LPD*%
%LPC*%
G36*
X287802Y149693D02*
X287802Y149693D01*
X284693Y152802D01*
X284693Y157198D01*
X287802Y160307D01*
X292198Y160307D01*
X295307Y157198D01*
X295307Y152802D01*
X292198Y149693D01*
X287802Y149693D01*
G37*
%LPD*%
%LPC*%
G36*
X177802Y149693D02*
X177802Y149693D01*
X174693Y152802D01*
X174693Y157198D01*
X177802Y160307D01*
X182198Y160307D01*
X185307Y157198D01*
X185307Y152802D01*
X182198Y149693D01*
X177802Y149693D01*
G37*
%LPD*%
%LPC*%
G36*
X137802Y149693D02*
X137802Y149693D01*
X134693Y152802D01*
X134693Y157198D01*
X137802Y160307D01*
X142198Y160307D01*
X145307Y157198D01*
X145307Y152802D01*
X142198Y149693D01*
X137802Y149693D01*
G37*
%LPD*%
%LPC*%
G36*
X657802Y144693D02*
X657802Y144693D01*
X654693Y147802D01*
X654693Y152198D01*
X657802Y155307D01*
X662198Y155307D01*
X665307Y152198D01*
X665307Y147802D01*
X662198Y144693D01*
X657802Y144693D01*
G37*
%LPD*%
%LPC*%
G36*
X597802Y144693D02*
X597802Y144693D01*
X594693Y147802D01*
X594693Y152198D01*
X597802Y155307D01*
X602198Y155307D01*
X605307Y152198D01*
X605307Y147802D01*
X602198Y144693D01*
X597802Y144693D01*
G37*
%LPD*%
%LPC*%
G36*
X537802Y144693D02*
X537802Y144693D01*
X534693Y147802D01*
X534693Y152198D01*
X537802Y155307D01*
X542198Y155307D01*
X545307Y152198D01*
X545307Y147802D01*
X542198Y144693D01*
X537802Y144693D01*
G37*
%LPD*%
%LPC*%
G36*
X477802Y144693D02*
X477802Y144693D01*
X474693Y147802D01*
X474693Y152198D01*
X477802Y155307D01*
X482198Y155307D01*
X485307Y152198D01*
X485307Y147802D01*
X482198Y144693D01*
X477802Y144693D01*
G37*
%LPD*%
%LPC*%
G36*
X267802Y144693D02*
X267802Y144693D01*
X264693Y147802D01*
X264693Y152198D01*
X267802Y155307D01*
X272198Y155307D01*
X275307Y152198D01*
X275307Y147802D01*
X272198Y144693D01*
X267802Y144693D01*
G37*
%LPD*%
%LPC*%
G36*
X237802Y144693D02*
X237802Y144693D01*
X234693Y147802D01*
X234693Y152198D01*
X237802Y155307D01*
X242198Y155307D01*
X245307Y152198D01*
X245307Y147802D01*
X242198Y144693D01*
X237802Y144693D01*
G37*
%LPD*%
%LPC*%
G36*
X87802Y144693D02*
X87802Y144693D01*
X84693Y147802D01*
X84693Y152198D01*
X87802Y155307D01*
X92198Y155307D01*
X95307Y152198D01*
X95307Y147802D01*
X92198Y144693D01*
X87802Y144693D01*
G37*
%LPD*%
%LPC*%
G36*
X27802Y144693D02*
X27802Y144693D01*
X24693Y147802D01*
X24693Y152198D01*
X27802Y155307D01*
X32198Y155307D01*
X35307Y152198D01*
X35307Y147802D01*
X32198Y144693D01*
X27802Y144693D01*
G37*
%LPD*%
%LPC*%
G36*
X27802Y774693D02*
X27802Y774693D01*
X24693Y777802D01*
X24693Y782198D01*
X27802Y785307D01*
X32198Y785307D01*
X35307Y782198D01*
X35307Y777802D01*
X32198Y774693D01*
X27802Y774693D01*
G37*
%LPD*%
%LPC*%
G36*
X87802Y774693D02*
X87802Y774693D01*
X84693Y777802D01*
X84693Y782198D01*
X87802Y785307D01*
X92198Y785307D01*
X95307Y782198D01*
X95307Y777802D01*
X92198Y774693D01*
X87802Y774693D01*
G37*
%LPD*%
%LPC*%
G36*
X177802Y114693D02*
X177802Y114693D01*
X174693Y117802D01*
X174693Y122198D01*
X177802Y125307D01*
X182198Y125307D01*
X185307Y122198D01*
X185307Y117802D01*
X182198Y114693D01*
X177802Y114693D01*
G37*
%LPD*%
%LPC*%
G36*
X137802Y114693D02*
X137802Y114693D01*
X134693Y117802D01*
X134693Y122198D01*
X137802Y125307D01*
X142198Y125307D01*
X145307Y122198D01*
X145307Y117802D01*
X142198Y114693D01*
X137802Y114693D01*
G37*
%LPD*%
%LPC*%
G36*
X327802Y114693D02*
X327802Y114693D01*
X324693Y117802D01*
X324693Y122198D01*
X327802Y125307D01*
X332198Y125307D01*
X335307Y122198D01*
X335307Y117802D01*
X332198Y114693D01*
X327802Y114693D01*
G37*
%LPD*%
%LPC*%
G36*
X287802Y114693D02*
X287802Y114693D01*
X284693Y117802D01*
X284693Y122198D01*
X287802Y125307D01*
X292198Y125307D01*
X295307Y122198D01*
X295307Y117802D01*
X292198Y114693D01*
X287802Y114693D01*
G37*
%LPD*%
%LPC*%
G36*
X267802Y114693D02*
X267802Y114693D01*
X264693Y117802D01*
X264693Y122198D01*
X267802Y125307D01*
X272198Y125307D01*
X275307Y122198D01*
X275307Y117802D01*
X272198Y114693D01*
X267802Y114693D01*
G37*
%LPD*%
%LPC*%
G36*
X237802Y114693D02*
X237802Y114693D01*
X234693Y117802D01*
X234693Y122198D01*
X237802Y125307D01*
X242198Y125307D01*
X245307Y122198D01*
X245307Y117802D01*
X242198Y114693D01*
X237802Y114693D01*
G37*
%LPD*%
%LPC*%
G36*
X537802Y84693D02*
X537802Y84693D01*
X534693Y87802D01*
X534693Y92198D01*
X537802Y95307D01*
X542198Y95307D01*
X545307Y92198D01*
X545307Y87802D01*
X542198Y84693D01*
X537802Y84693D01*
G37*
%LPD*%
%LPC*%
G36*
X477802Y84693D02*
X477802Y84693D01*
X474693Y87802D01*
X474693Y92198D01*
X477802Y95307D01*
X482198Y95307D01*
X485307Y92198D01*
X485307Y87802D01*
X482198Y84693D01*
X477802Y84693D01*
G37*
%LPD*%
%LPC*%
G36*
X657802Y84693D02*
X657802Y84693D01*
X654693Y87802D01*
X654693Y92198D01*
X657802Y95307D01*
X662198Y95307D01*
X665307Y92198D01*
X665307Y87802D01*
X662198Y84693D01*
X657802Y84693D01*
G37*
%LPD*%
%LPC*%
G36*
X597802Y84693D02*
X597802Y84693D01*
X594693Y87802D01*
X594693Y92198D01*
X597802Y95307D01*
X602198Y95307D01*
X605307Y92198D01*
X605307Y87802D01*
X602198Y84693D01*
X597802Y84693D01*
G37*
%LPD*%
%LPC*%
G36*
X537802Y24693D02*
X537802Y24693D01*
X534693Y27802D01*
X534693Y32198D01*
X537802Y35307D01*
X542198Y35307D01*
X545307Y32198D01*
X545307Y27802D01*
X542198Y24693D01*
X537802Y24693D01*
G37*
%LPD*%
%LPC*%
G36*
X477802Y24693D02*
X477802Y24693D01*
X474693Y27802D01*
X474693Y32198D01*
X477802Y35307D01*
X482198Y35307D01*
X485307Y32198D01*
X485307Y27802D01*
X482198Y24693D01*
X477802Y24693D01*
G37*
%LPD*%
%LPC*%
G36*
X579999Y344999D02*
X579999Y344999D01*
X579999Y345001D01*
X580001Y345001D01*
X580001Y344999D01*
X579999Y344999D01*
G37*
%LPD*%
%LPC*%
G36*
X334999Y689999D02*
X334999Y689999D01*
X334999Y690001D01*
X335001Y690001D01*
X335001Y689999D01*
X334999Y689999D01*
G37*
%LPD*%
D10*
X170000Y690000D03*
X144600Y766200D03*
X195400Y766200D03*
X335000Y690000D03*
X309600Y766200D03*
X360400Y766200D03*
X580000Y205000D03*
X656200Y230400D03*
X656200Y179600D03*
X580000Y490000D03*
X656200Y515400D03*
X656200Y464600D03*
X580000Y345000D03*
X656200Y370400D03*
X656200Y319600D03*
D11*
X160000Y435000D03*
X310000Y435000D03*
X160000Y135000D03*
X310000Y135000D03*
D12*
X30000Y780000D03*
X30000Y720000D03*
X30000Y660000D03*
X90000Y660000D03*
X90000Y720000D03*
X90000Y780000D03*
X150000Y705000D03*
X150000Y680000D03*
X150000Y660000D03*
X190000Y680000D03*
X190000Y705000D03*
X210000Y655000D03*
X225000Y655000D03*
X210000Y675000D03*
X225000Y675000D03*
X210000Y690000D03*
X225000Y690000D03*
X210000Y715000D03*
X225000Y715000D03*
X225000Y730000D03*
X210000Y730000D03*
X210000Y750000D03*
X225000Y750000D03*
X230000Y385000D03*
X229000Y331000D03*
X285000Y750000D03*
X285000Y730000D03*
X300000Y750000D03*
X300000Y730000D03*
X300000Y715000D03*
X285000Y715000D03*
X285000Y690000D03*
X300000Y690000D03*
X285000Y675000D03*
X300000Y675000D03*
X285000Y655000D03*
X300000Y655000D03*
X270000Y616000D03*
X315000Y705000D03*
X315000Y680000D03*
X355000Y705000D03*
X355000Y680000D03*
X390000Y660000D03*
X390000Y720000D03*
X390000Y780000D03*
X450000Y780000D03*
X450000Y720000D03*
X450000Y660000D03*
X510000Y780000D03*
X510000Y720000D03*
X510000Y660000D03*
X570000Y780000D03*
X570000Y720000D03*
X570000Y660000D03*
X630000Y660000D03*
X630000Y720000D03*
X630000Y780000D03*
X390000Y390000D03*
X330000Y390000D03*
X270000Y390000D03*
X270000Y330000D03*
X268000Y314000D03*
X330000Y330000D03*
X390000Y330000D03*
X390000Y270000D03*
X150000Y90000D03*
X90000Y90000D03*
X30000Y90000D03*
X150000Y30000D03*
X90000Y30000D03*
X30000Y30000D03*
X460000Y370000D03*
X460000Y355000D03*
X480000Y370000D03*
X480000Y355000D03*
X495000Y370000D03*
X495000Y355000D03*
X515000Y370000D03*
X515000Y355000D03*
X530000Y370000D03*
X530000Y355000D03*
X550000Y370000D03*
X550000Y355000D03*
X460000Y335000D03*
X460000Y320000D03*
X480000Y335000D03*
X480000Y320000D03*
X495000Y335000D03*
X495000Y320000D03*
X515000Y335000D03*
X515000Y320000D03*
X530000Y335000D03*
X530000Y320000D03*
X550000Y335000D03*
X550000Y320000D03*
X565000Y365000D03*
X590000Y365000D03*
X565000Y325000D03*
X590000Y325000D03*
X205000Y325000D03*
X150000Y330000D03*
X185000Y350000D03*
X170000Y350000D03*
X185000Y370000D03*
X170000Y370000D03*
X205000Y390000D03*
X150000Y390000D03*
X90000Y390000D03*
X90000Y330000D03*
X30000Y330000D03*
X30000Y390000D03*
X335000Y516300D03*
X270000Y485000D03*
X285000Y485000D03*
X270000Y470000D03*
X285000Y470000D03*
X460000Y445000D03*
X480000Y430000D03*
X480000Y445000D03*
X460000Y430000D03*
X330000Y420000D03*
X290000Y420000D03*
X270000Y420000D03*
X270000Y450000D03*
X290000Y455000D03*
X300000Y480000D03*
X330000Y480000D03*
X330000Y455000D03*
X480000Y570000D03*
X540000Y570000D03*
X600000Y570000D03*
X660000Y570000D03*
X540000Y510000D03*
X480000Y510000D03*
X565000Y510000D03*
X590000Y510000D03*
X565000Y470000D03*
X590000Y470000D03*
X495000Y445000D03*
X495000Y430000D03*
X515000Y430000D03*
X515000Y445000D03*
X530000Y445000D03*
X530000Y430000D03*
X550000Y445000D03*
X550000Y430000D03*
X565000Y445000D03*
X565000Y430000D03*
X585000Y445000D03*
X585000Y430000D03*
X171000Y601000D03*
X150000Y570000D03*
X90000Y570000D03*
X30000Y570000D03*
X90000Y510000D03*
X30000Y510000D03*
X150000Y510000D03*
X30000Y450000D03*
X90000Y450000D03*
X140000Y455000D03*
X140000Y420000D03*
X180000Y455000D03*
X180000Y420000D03*
X335000Y220000D03*
X266000Y186000D03*
X284000Y186000D03*
X266000Y173000D03*
X284000Y173000D03*
X240000Y180000D03*
X240000Y150000D03*
X240000Y120000D03*
X270000Y150000D03*
X270000Y120000D03*
X300000Y180000D03*
X290000Y155000D03*
X290000Y120000D03*
X330000Y120000D03*
X330000Y155000D03*
X330000Y180000D03*
X460000Y260000D03*
X460000Y245000D03*
X480000Y260000D03*
X480000Y245000D03*
X495000Y260000D03*
X495000Y245000D03*
X515000Y260000D03*
X515000Y245000D03*
X530000Y260000D03*
X530000Y245000D03*
X550000Y260000D03*
X550000Y245000D03*
X565000Y260000D03*
X565000Y245000D03*
X585000Y260000D03*
X585000Y245000D03*
X480000Y210000D03*
X540000Y210000D03*
X565000Y225000D03*
X590000Y225000D03*
X565000Y185000D03*
X590000Y185000D03*
X480000Y150000D03*
X540000Y150000D03*
X600000Y150000D03*
X540000Y90000D03*
X480000Y90000D03*
X600000Y90000D03*
X480000Y30000D03*
X540000Y30000D03*
X600000Y30000D03*
X660000Y150000D03*
X660000Y90000D03*
X660000Y30000D03*
X170000Y305000D03*
X30000Y270000D03*
X90000Y270000D03*
X150000Y270000D03*
X150000Y210000D03*
X90000Y210000D03*
X30000Y210000D03*
X90000Y150000D03*
X30000Y150000D03*
X140000Y155000D03*
X140000Y120000D03*
X180000Y155000D03*
X180000Y120000D03*
M02*
