G04 EAGLE Gerber RS-274X export*
G75*
%MOMM*%
%FSLAX34Y34*%
%LPD*%
%INSoldermask Top*%
%IPPOS*%
%AMOC8*
5,1,8,0,0,1.08239X$1,22.5*%
G01*
%ADD10R,1.143000X0.756400*%
%ADD11R,1.264400X2.692400*%
%ADD12R,0.812800X0.812800*%
%ADD13C,2.260600*%
%ADD14R,1.193800X0.911200*%
%ADD15R,1.003197X0.953200*%
%ADD16R,1.016000X0.959600*%
%ADD17R,1.203200X0.753200*%
%ADD18C,2.082800*%
%ADD19R,2.692400X1.264400*%
%ADD20C,0.959600*%


D10*
X330000Y549751D03*
X330000Y530249D03*
D11*
X240804Y738800D03*
X269196Y738800D03*
X240804Y702600D03*
X269196Y702600D03*
X240804Y666400D03*
X269196Y666400D03*
D12*
X315000Y505000D03*
X305000Y505000D03*
X295000Y505000D03*
X285000Y505000D03*
X275000Y505000D03*
X265000Y505000D03*
X245000Y505000D03*
X235000Y505000D03*
X225000Y505000D03*
X205000Y505000D03*
X185000Y505000D03*
X315000Y515000D03*
X305000Y515000D03*
X295000Y515000D03*
X285000Y515000D03*
X275000Y515000D03*
X265000Y515000D03*
X245000Y515000D03*
X235000Y515000D03*
X225000Y515000D03*
X205000Y515000D03*
X185000Y515000D03*
X315000Y525000D03*
X305000Y525000D03*
X295000Y525000D03*
X285000Y525000D03*
X275000Y525000D03*
X265000Y525000D03*
X245000Y525000D03*
X235000Y525000D03*
X225000Y525000D03*
X205000Y525000D03*
X185000Y525000D03*
X315000Y535000D03*
X305000Y535000D03*
X295000Y535000D03*
X285000Y535000D03*
X275000Y535000D03*
X265000Y535000D03*
X245000Y535000D03*
X235000Y535000D03*
X225000Y535000D03*
X205000Y535000D03*
X185000Y535000D03*
X315000Y545000D03*
X305000Y545000D03*
X295000Y545000D03*
X285000Y545000D03*
X275000Y545000D03*
X265000Y545000D03*
X245000Y545000D03*
X235000Y545000D03*
X225000Y545000D03*
X205000Y545000D03*
X185000Y545000D03*
X315000Y555000D03*
X305000Y555000D03*
X295000Y555000D03*
X285000Y555000D03*
X275000Y555000D03*
X265000Y555000D03*
X245000Y555000D03*
X235000Y555000D03*
X225000Y555000D03*
X205000Y555000D03*
X185000Y555000D03*
X315000Y565000D03*
X305000Y565000D03*
X295000Y565000D03*
X285000Y565000D03*
X275000Y565000D03*
X265000Y565000D03*
X245000Y565000D03*
X235000Y565000D03*
X225000Y565000D03*
X205000Y565000D03*
X185000Y565000D03*
X315000Y575000D03*
X305000Y575000D03*
X295000Y575000D03*
X285000Y575000D03*
X275000Y575000D03*
X265000Y575000D03*
X245000Y575000D03*
X235000Y575000D03*
X225000Y575000D03*
X205000Y575000D03*
X185000Y575000D03*
X315000Y585000D03*
X305000Y585000D03*
X295000Y585000D03*
X285000Y585000D03*
X275000Y585000D03*
X265000Y585000D03*
X245000Y585000D03*
X235000Y585000D03*
X225000Y585000D03*
X205000Y585000D03*
X185000Y585000D03*
X315000Y595000D03*
X305000Y595000D03*
X295000Y595000D03*
X285000Y595000D03*
X275000Y595000D03*
X265000Y595000D03*
X245000Y595000D03*
X235000Y595000D03*
X225000Y595000D03*
X205000Y595000D03*
X185000Y595000D03*
D11*
X229196Y358800D03*
X200804Y358800D03*
D12*
X315000Y205000D03*
X305000Y205000D03*
X295000Y205000D03*
X285000Y205000D03*
X275000Y205000D03*
X265000Y205000D03*
X245000Y205000D03*
X235000Y205000D03*
X225000Y205000D03*
X205000Y205000D03*
X185000Y205000D03*
X315000Y215000D03*
X305000Y215000D03*
X295000Y215000D03*
X285000Y215000D03*
X275000Y215000D03*
X265000Y215000D03*
X245000Y215000D03*
X235000Y215000D03*
X225000Y215000D03*
X205000Y215000D03*
X185000Y215000D03*
X315000Y225000D03*
X305000Y225000D03*
X295000Y225000D03*
X285000Y225000D03*
X275000Y225000D03*
X265000Y225000D03*
X245000Y225000D03*
X235000Y225000D03*
X225000Y225000D03*
X205000Y225000D03*
X185000Y225000D03*
X315000Y235000D03*
X305000Y235000D03*
X295000Y235000D03*
X285000Y235000D03*
X275000Y235000D03*
X265000Y235000D03*
X245000Y235000D03*
X235000Y235000D03*
X225000Y235000D03*
X205000Y235000D03*
X185000Y235000D03*
X315000Y245000D03*
X305000Y245000D03*
X295000Y245000D03*
X285000Y245000D03*
X275000Y245000D03*
X265000Y245000D03*
X245000Y245000D03*
X235000Y245000D03*
X225000Y245000D03*
X205000Y245000D03*
X185000Y245000D03*
X315000Y255000D03*
X305000Y255000D03*
X295000Y255000D03*
X285000Y255000D03*
X275000Y255000D03*
X265000Y255000D03*
X245000Y255000D03*
X235000Y255000D03*
X225000Y255000D03*
X205000Y255000D03*
X185000Y255000D03*
X315000Y265000D03*
X305000Y265000D03*
X295000Y265000D03*
X285000Y265000D03*
X275000Y265000D03*
X265000Y265000D03*
X245000Y265000D03*
X235000Y265000D03*
X225000Y265000D03*
X205000Y265000D03*
X185000Y265000D03*
X315000Y275000D03*
X305000Y275000D03*
X295000Y275000D03*
X285000Y275000D03*
X275000Y275000D03*
X265000Y275000D03*
X245000Y275000D03*
X235000Y275000D03*
X225000Y275000D03*
X205000Y275000D03*
X185000Y275000D03*
X315000Y285000D03*
X305000Y285000D03*
X295000Y285000D03*
X285000Y285000D03*
X275000Y285000D03*
X265000Y285000D03*
X245000Y285000D03*
X235000Y285000D03*
X225000Y285000D03*
X205000Y285000D03*
X185000Y285000D03*
X315000Y295000D03*
X305000Y295000D03*
X295000Y295000D03*
X285000Y295000D03*
X275000Y295000D03*
X265000Y295000D03*
X245000Y295000D03*
X235000Y295000D03*
X225000Y295000D03*
X205000Y295000D03*
X185000Y295000D03*
D10*
X330000Y249751D03*
X330000Y230249D03*
D13*
X170000Y690000D03*
X144600Y766200D03*
X195400Y766200D03*
X335000Y690000D03*
X309600Y766200D03*
X360400Y766200D03*
X580000Y205000D03*
X656200Y230400D03*
X656200Y179600D03*
X580000Y490000D03*
X656200Y515400D03*
X656200Y464600D03*
X580000Y345000D03*
X656200Y370400D03*
X656200Y319600D03*
D14*
X348000Y237477D03*
X348000Y222523D03*
D15*
X348000Y247250D03*
X348000Y262750D03*
D16*
X348000Y522281D03*
X348000Y537719D03*
D17*
X348000Y568250D03*
X348000Y551750D03*
D18*
X160000Y435000D03*
X310000Y435000D03*
X160000Y135000D03*
X310000Y135000D03*
D19*
X470000Y275804D03*
X470000Y304196D03*
X505000Y275804D03*
X505000Y304196D03*
X540000Y275804D03*
X540000Y304196D03*
X575000Y275804D03*
X575000Y304196D03*
X470000Y414196D03*
X470000Y385804D03*
X505000Y414196D03*
X505000Y385804D03*
X540000Y414196D03*
X540000Y385804D03*
X575000Y414196D03*
X575000Y385804D03*
D20*
X30000Y780000D03*
X30000Y720000D03*
X30000Y660000D03*
X90000Y660000D03*
X90000Y720000D03*
X90000Y780000D03*
X150000Y705000D03*
X150000Y680000D03*
X150000Y660000D03*
X190000Y680000D03*
X190000Y705000D03*
X210000Y655000D03*
X225000Y655000D03*
X210000Y675000D03*
X225000Y675000D03*
X210000Y690000D03*
X225000Y690000D03*
X210000Y715000D03*
X225000Y715000D03*
X225000Y730000D03*
X210000Y730000D03*
X210000Y750000D03*
X225000Y750000D03*
X230000Y385000D03*
X229000Y331000D03*
X285000Y750000D03*
X285000Y730000D03*
X300000Y750000D03*
X300000Y730000D03*
X300000Y715000D03*
X285000Y715000D03*
X285000Y690000D03*
X300000Y690000D03*
X285000Y675000D03*
X300000Y675000D03*
X285000Y655000D03*
X300000Y655000D03*
X270000Y616000D03*
X315000Y705000D03*
X315000Y680000D03*
X355000Y705000D03*
X355000Y680000D03*
X390000Y660000D03*
X390000Y720000D03*
X390000Y780000D03*
X450000Y780000D03*
X450000Y720000D03*
X450000Y660000D03*
X510000Y780000D03*
X510000Y720000D03*
X510000Y660000D03*
X570000Y780000D03*
X570000Y720000D03*
X570000Y660000D03*
X630000Y660000D03*
X630000Y720000D03*
X630000Y780000D03*
X390000Y390000D03*
X330000Y390000D03*
X270000Y390000D03*
X270000Y330000D03*
X268000Y314000D03*
X330000Y330000D03*
X390000Y330000D03*
X390000Y270000D03*
X150000Y90000D03*
X90000Y90000D03*
X30000Y90000D03*
X150000Y30000D03*
X90000Y30000D03*
X30000Y30000D03*
X460000Y370000D03*
X460000Y355000D03*
X480000Y370000D03*
X480000Y355000D03*
X495000Y370000D03*
X495000Y355000D03*
X515000Y370000D03*
X515000Y355000D03*
X530000Y370000D03*
X530000Y355000D03*
X550000Y370000D03*
X550000Y355000D03*
X460000Y335000D03*
X460000Y320000D03*
X480000Y335000D03*
X480000Y320000D03*
X495000Y335000D03*
X495000Y320000D03*
X515000Y335000D03*
X515000Y320000D03*
X530000Y335000D03*
X530000Y320000D03*
X550000Y335000D03*
X550000Y320000D03*
X565000Y365000D03*
X590000Y365000D03*
X565000Y325000D03*
X590000Y325000D03*
X205000Y325000D03*
X150000Y330000D03*
X185000Y350000D03*
X170000Y350000D03*
X185000Y370000D03*
X170000Y370000D03*
X205000Y390000D03*
X150000Y390000D03*
X90000Y390000D03*
X90000Y330000D03*
X30000Y330000D03*
X30000Y390000D03*
X335000Y516300D03*
X270000Y485000D03*
X285000Y485000D03*
X270000Y470000D03*
X285000Y470000D03*
X460000Y445000D03*
X480000Y430000D03*
X480000Y445000D03*
X460000Y430000D03*
X330000Y420000D03*
X290000Y420000D03*
X270000Y420000D03*
X270000Y450000D03*
X290000Y455000D03*
X300000Y480000D03*
X330000Y480000D03*
X330000Y455000D03*
X480000Y570000D03*
X540000Y570000D03*
X600000Y570000D03*
X660000Y570000D03*
X540000Y510000D03*
X480000Y510000D03*
X565000Y510000D03*
X590000Y510000D03*
X565000Y470000D03*
X590000Y470000D03*
X495000Y445000D03*
X495000Y430000D03*
X515000Y430000D03*
X515000Y445000D03*
X530000Y445000D03*
X530000Y430000D03*
X550000Y445000D03*
X550000Y430000D03*
X565000Y445000D03*
X565000Y430000D03*
X585000Y445000D03*
X585000Y430000D03*
X171000Y601000D03*
X150000Y570000D03*
X90000Y570000D03*
X30000Y570000D03*
X90000Y510000D03*
X30000Y510000D03*
X150000Y510000D03*
X30000Y450000D03*
X90000Y450000D03*
X140000Y455000D03*
X140000Y420000D03*
X180000Y455000D03*
X180000Y420000D03*
X335000Y220000D03*
X266000Y186000D03*
X284000Y186000D03*
X266000Y173000D03*
X284000Y173000D03*
X240000Y180000D03*
X240000Y150000D03*
X240000Y120000D03*
X270000Y150000D03*
X270000Y120000D03*
X300000Y180000D03*
X290000Y155000D03*
X290000Y120000D03*
X330000Y120000D03*
X330000Y155000D03*
X330000Y180000D03*
X460000Y260000D03*
X460000Y245000D03*
X480000Y260000D03*
X480000Y245000D03*
X495000Y260000D03*
X495000Y245000D03*
X515000Y260000D03*
X515000Y245000D03*
X530000Y260000D03*
X530000Y245000D03*
X550000Y260000D03*
X550000Y245000D03*
X565000Y260000D03*
X565000Y245000D03*
X585000Y260000D03*
X585000Y245000D03*
X480000Y210000D03*
X540000Y210000D03*
X565000Y225000D03*
X590000Y225000D03*
X565000Y185000D03*
X590000Y185000D03*
X480000Y150000D03*
X540000Y150000D03*
X600000Y150000D03*
X540000Y90000D03*
X480000Y90000D03*
X600000Y90000D03*
X480000Y30000D03*
X540000Y30000D03*
X600000Y30000D03*
X660000Y150000D03*
X660000Y90000D03*
X660000Y30000D03*
X170000Y305000D03*
X30000Y270000D03*
X90000Y270000D03*
X150000Y270000D03*
X150000Y210000D03*
X90000Y210000D03*
X30000Y210000D03*
X90000Y150000D03*
X30000Y150000D03*
X140000Y155000D03*
X140000Y120000D03*
X180000Y155000D03*
X180000Y120000D03*
M02*
