G04 EAGLE Gerber RS-274X export*
G75*
%MOMM*%
%FSLAX34Y34*%
%LPD*%
%INSoldermask Bottom*%
%IPPOS*%
%AMOC8*
5,1,8,0,0,1.08239X$1,22.5*%
G01*
%ADD10R,1.264400X2.692400*%
%ADD11R,1.016000X0.959600*%
%ADD12C,2.260600*%
%ADD13C,2.082800*%
%ADD14R,2.692400X1.264400*%
%ADD15C,0.959600*%


D10*
X240804Y740700D03*
X269196Y740700D03*
X240804Y704500D03*
X269196Y704500D03*
X240804Y668300D03*
X269196Y668300D03*
D11*
X347400Y491381D03*
X347400Y506819D03*
D10*
X229196Y358800D03*
X200804Y358800D03*
D11*
X347400Y189531D03*
X347400Y204969D03*
D12*
X170000Y690000D03*
X144600Y766200D03*
X195400Y766200D03*
X335000Y690000D03*
X309600Y766200D03*
X360400Y766200D03*
X580000Y205000D03*
X656200Y230400D03*
X656200Y179600D03*
X580000Y490000D03*
X656200Y515400D03*
X656200Y464600D03*
X580000Y345000D03*
X656200Y370400D03*
X656200Y319600D03*
D13*
X160000Y435000D03*
X310000Y435000D03*
X160000Y135000D03*
X310000Y135000D03*
D14*
X470000Y275804D03*
X470000Y304196D03*
X505000Y275804D03*
X505000Y304196D03*
X540000Y275804D03*
X540000Y304196D03*
X575000Y275804D03*
X575000Y304196D03*
X470000Y414196D03*
X470000Y385804D03*
X505000Y414196D03*
X505000Y385804D03*
X540000Y414196D03*
X540000Y385804D03*
X575000Y414196D03*
X575000Y385804D03*
D15*
X30000Y780000D03*
X30000Y720000D03*
X30000Y660000D03*
X90000Y660000D03*
X90000Y720000D03*
X90000Y780000D03*
X150000Y705000D03*
X150000Y680000D03*
X150000Y660000D03*
X190000Y680000D03*
X190000Y705000D03*
X210000Y655000D03*
X225000Y655000D03*
X210000Y675000D03*
X225000Y675000D03*
X210000Y690000D03*
X225000Y690000D03*
X210000Y715000D03*
X225000Y715000D03*
X225000Y730000D03*
X210000Y730000D03*
X210000Y750000D03*
X225000Y750000D03*
X230000Y385000D03*
X229000Y331000D03*
X285000Y750000D03*
X285000Y730000D03*
X300000Y750000D03*
X300000Y730000D03*
X300000Y715000D03*
X285000Y715000D03*
X285000Y690000D03*
X300000Y690000D03*
X285000Y675000D03*
X300000Y675000D03*
X285000Y655000D03*
X300000Y655000D03*
X270000Y616000D03*
X315000Y705000D03*
X315000Y680000D03*
X355000Y705000D03*
X355000Y680000D03*
X390000Y660000D03*
X390000Y720000D03*
X390000Y780000D03*
X450000Y780000D03*
X450000Y720000D03*
X450000Y660000D03*
X510000Y780000D03*
X510000Y720000D03*
X510000Y660000D03*
X570000Y780000D03*
X570000Y720000D03*
X570000Y660000D03*
X630000Y660000D03*
X630000Y720000D03*
X630000Y780000D03*
X390000Y390000D03*
X330000Y390000D03*
X270000Y390000D03*
X270000Y330000D03*
X268000Y314000D03*
X330000Y330000D03*
X390000Y330000D03*
X390000Y270000D03*
X150000Y90000D03*
X90000Y90000D03*
X30000Y90000D03*
X150000Y30000D03*
X90000Y30000D03*
X30000Y30000D03*
X460000Y370000D03*
X460000Y355000D03*
X480000Y370000D03*
X480000Y355000D03*
X495000Y370000D03*
X495000Y355000D03*
X515000Y370000D03*
X515000Y355000D03*
X530000Y370000D03*
X530000Y355000D03*
X550000Y370000D03*
X550000Y355000D03*
X460000Y335000D03*
X460000Y320000D03*
X480000Y335000D03*
X480000Y320000D03*
X495000Y335000D03*
X495000Y320000D03*
X515000Y335000D03*
X515000Y320000D03*
X530000Y335000D03*
X530000Y320000D03*
X550000Y335000D03*
X550000Y320000D03*
X565000Y365000D03*
X590000Y365000D03*
X565000Y325000D03*
X590000Y325000D03*
X205000Y325000D03*
X150000Y330000D03*
X185000Y350000D03*
X170000Y350000D03*
X185000Y370000D03*
X170000Y370000D03*
X205000Y390000D03*
X150000Y390000D03*
X90000Y390000D03*
X90000Y330000D03*
X30000Y330000D03*
X30000Y390000D03*
X335000Y516300D03*
X270000Y485000D03*
X285000Y485000D03*
X270000Y470000D03*
X285000Y470000D03*
X460000Y445000D03*
X480000Y430000D03*
X480000Y445000D03*
X460000Y430000D03*
X330000Y420000D03*
X290000Y420000D03*
X270000Y420000D03*
X270000Y450000D03*
X290000Y455000D03*
X300000Y480000D03*
X330000Y480000D03*
X330000Y455000D03*
X480000Y570000D03*
X540000Y570000D03*
X600000Y570000D03*
X660000Y570000D03*
X540000Y510000D03*
X480000Y510000D03*
X565000Y510000D03*
X590000Y510000D03*
X565000Y470000D03*
X590000Y470000D03*
X495000Y445000D03*
X495000Y430000D03*
X515000Y430000D03*
X515000Y445000D03*
X530000Y445000D03*
X530000Y430000D03*
X550000Y445000D03*
X550000Y430000D03*
X565000Y445000D03*
X565000Y430000D03*
X585000Y445000D03*
X585000Y430000D03*
X171000Y601000D03*
X150000Y570000D03*
X90000Y570000D03*
X30000Y570000D03*
X90000Y510000D03*
X30000Y510000D03*
X150000Y510000D03*
X30000Y450000D03*
X90000Y450000D03*
X140000Y455000D03*
X140000Y420000D03*
X180000Y455000D03*
X180000Y420000D03*
X335000Y220000D03*
X266000Y186000D03*
X284000Y186000D03*
X266000Y173000D03*
X284000Y173000D03*
X240000Y180000D03*
X240000Y150000D03*
X240000Y120000D03*
X270000Y150000D03*
X270000Y120000D03*
X300000Y180000D03*
X290000Y155000D03*
X290000Y120000D03*
X330000Y120000D03*
X330000Y155000D03*
X330000Y180000D03*
X460000Y260000D03*
X460000Y245000D03*
X480000Y260000D03*
X480000Y245000D03*
X495000Y260000D03*
X495000Y245000D03*
X515000Y260000D03*
X515000Y245000D03*
X530000Y260000D03*
X530000Y245000D03*
X550000Y260000D03*
X550000Y245000D03*
X565000Y260000D03*
X565000Y245000D03*
X585000Y260000D03*
X585000Y245000D03*
X480000Y210000D03*
X540000Y210000D03*
X565000Y225000D03*
X590000Y225000D03*
X565000Y185000D03*
X590000Y185000D03*
X480000Y150000D03*
X540000Y150000D03*
X600000Y150000D03*
X540000Y90000D03*
X480000Y90000D03*
X600000Y90000D03*
X480000Y30000D03*
X540000Y30000D03*
X600000Y30000D03*
X660000Y150000D03*
X660000Y90000D03*
X660000Y30000D03*
X170000Y305000D03*
X30000Y270000D03*
X90000Y270000D03*
X150000Y270000D03*
X150000Y210000D03*
X90000Y210000D03*
X30000Y210000D03*
X90000Y150000D03*
X30000Y150000D03*
X140000Y155000D03*
X140000Y120000D03*
X180000Y155000D03*
X180000Y120000D03*
M02*
